%TF.GenerationSoftware,KiCad,Pcbnew,7.0.6-1.fc38*%
%TF.CreationDate,2023-08-14T18:07:59+02:00*%
%TF.ProjectId,ESP12F_PROGRAMMER,45535031-3246-45f5-9052-4f4752414d4d,rev?*%
%TF.SameCoordinates,Original*%
%TF.FileFunction,Copper,L2,Bot*%
%TF.FilePolarity,Positive*%
%FSLAX46Y46*%
G04 Gerber Fmt 4.6, Leading zero omitted, Abs format (unit mm)*
G04 Created by KiCad (PCBNEW 7.0.6-1.fc38) date 2023-08-14 18:07:59*
%MOMM*%
%LPD*%
G01*
G04 APERTURE LIST*
%TA.AperFunction,ComponentPad*%
%ADD10R,1.700000X1.700000*%
%TD*%
%TA.AperFunction,ComponentPad*%
%ADD11O,1.700000X1.700000*%
%TD*%
%TA.AperFunction,ComponentPad*%
%ADD12R,1.350000X1.350000*%
%TD*%
%TA.AperFunction,ComponentPad*%
%ADD13O,1.350000X1.350000*%
%TD*%
%TA.AperFunction,ViaPad*%
%ADD14C,0.800000*%
%TD*%
%TA.AperFunction,Conductor*%
%ADD15C,0.250000*%
%TD*%
G04 APERTURE END LIST*
D10*
%TO.P,J2,1,Pin_1*%
%TO.N,GND*%
X140843000Y-91440000D03*
D11*
%TO.P,J2,2,Pin_2*%
%TO.N,CTS*%
X140843000Y-93980000D03*
%TO.P,J2,3,Pin_3*%
%TO.N,5V*%
X140843000Y-96520000D03*
%TO.P,J2,4,Pin_4*%
%TO.N,TXD*%
X140843000Y-99060000D03*
%TO.P,J2,5,Pin_5*%
%TO.N,RXD*%
X140843000Y-101600000D03*
%TO.P,J2,6,Pin_6*%
%TO.N,DTR*%
X140843000Y-104140000D03*
%TD*%
D12*
%TO.P,J1,1,Pin_1*%
%TO.N,GND*%
X115316000Y-92075000D03*
D13*
%TO.P,J1,2,Pin_2*%
%TO.N,RXD*%
X115316000Y-94075000D03*
%TO.P,J1,3,Pin_3*%
%TO.N,TXD*%
X115316000Y-96075000D03*
%TO.P,J1,4,Pin_4*%
%TO.N,PRG*%
X115316000Y-98075000D03*
%TO.P,J1,5,Pin_5*%
%TO.N,RST*%
X115316000Y-100075000D03*
%TO.P,J1,6,Pin_6*%
%TO.N,3V3*%
X115316000Y-102075000D03*
%TD*%
D14*
%TO.N,GND*%
X131191000Y-95123000D03*
X137414000Y-95123000D03*
X126111000Y-90551000D03*
X133985000Y-102362000D03*
%TO.N,TXD*%
X118110000Y-93472000D03*
%TD*%
D15*
%TO.N,GND*%
X126111000Y-90551000D02*
X126238000Y-90551000D01*
X131318000Y-95123000D02*
X131318000Y-95123000D01*
X137414000Y-94869000D02*
X137414000Y-95123000D01*
%TO.N,RXD*%
X117443000Y-94075000D02*
X118110000Y-94869000D01*
X115316000Y-94075000D02*
X117443000Y-94075000D01*
X140843000Y-101600000D02*
X125349000Y-101600000D01*
X118618000Y-94869000D02*
X118110000Y-94869000D01*
X125349000Y-101600000D02*
X118618000Y-94869000D01*
%TO.N,TXD*%
X123698000Y-99060000D02*
X118110000Y-93472000D01*
X140843000Y-99060000D02*
X123698000Y-99060000D01*
%TD*%
%TA.AperFunction,Conductor*%
%TO.N,GND*%
G36*
X143071539Y-89301185D02*
G01*
X143117294Y-89353989D01*
X143128500Y-89405500D01*
X143128500Y-106174500D01*
X143108815Y-106241539D01*
X143056011Y-106287294D01*
X143004500Y-106298500D01*
X113535500Y-106298500D01*
X113468461Y-106278815D01*
X113422706Y-106226011D01*
X113411500Y-106174500D01*
X113411500Y-104140000D01*
X139787417Y-104140000D01*
X139807699Y-104345932D01*
X139807700Y-104345934D01*
X139867768Y-104543954D01*
X139965315Y-104726450D01*
X139965317Y-104726452D01*
X140096589Y-104886410D01*
X140193209Y-104965702D01*
X140256550Y-105017685D01*
X140439046Y-105115232D01*
X140637066Y-105175300D01*
X140637065Y-105175300D01*
X140657347Y-105177297D01*
X140843000Y-105195583D01*
X141048934Y-105175300D01*
X141246954Y-105115232D01*
X141429450Y-105017685D01*
X141589410Y-104886410D01*
X141720685Y-104726450D01*
X141818232Y-104543954D01*
X141878300Y-104345934D01*
X141898583Y-104140000D01*
X141878300Y-103934066D01*
X141818232Y-103736046D01*
X141720685Y-103553550D01*
X141668702Y-103490209D01*
X141589410Y-103393589D01*
X141429452Y-103262317D01*
X141429453Y-103262317D01*
X141429450Y-103262315D01*
X141246954Y-103164768D01*
X141048934Y-103104700D01*
X141048932Y-103104699D01*
X141048934Y-103104699D01*
X140843000Y-103084417D01*
X140637067Y-103104699D01*
X140439043Y-103164769D01*
X140328898Y-103223643D01*
X140256550Y-103262315D01*
X140256548Y-103262316D01*
X140256547Y-103262317D01*
X140096589Y-103393589D01*
X139965317Y-103553547D01*
X139867769Y-103736043D01*
X139807699Y-103934067D01*
X139787417Y-104140000D01*
X113411500Y-104140000D01*
X113411500Y-102075000D01*
X114435678Y-102075000D01*
X114454915Y-102258029D01*
X114454916Y-102258032D01*
X114511783Y-102433053D01*
X114511786Y-102433059D01*
X114603805Y-102592440D01*
X114660658Y-102655582D01*
X114726949Y-102729206D01*
X114726951Y-102729208D01*
X114875834Y-102837378D01*
X114875835Y-102837378D01*
X114875839Y-102837381D01*
X115012953Y-102898428D01*
X115043961Y-102912234D01*
X115043966Y-102912236D01*
X115223981Y-102950500D01*
X115408019Y-102950500D01*
X115588034Y-102912236D01*
X115756161Y-102837381D01*
X115905050Y-102729207D01*
X116028195Y-102592440D01*
X116120214Y-102433059D01*
X116177085Y-102258029D01*
X116196322Y-102075000D01*
X116177085Y-101891971D01*
X116120214Y-101716941D01*
X116028195Y-101557560D01*
X115905050Y-101420793D01*
X115905048Y-101420791D01*
X115756165Y-101312621D01*
X115756162Y-101312619D01*
X115756161Y-101312619D01*
X115695112Y-101285438D01*
X115588038Y-101237765D01*
X115588033Y-101237763D01*
X115408019Y-101199500D01*
X115223981Y-101199500D01*
X115043966Y-101237763D01*
X115043961Y-101237765D01*
X114875839Y-101312619D01*
X114875834Y-101312621D01*
X114726951Y-101420791D01*
X114726949Y-101420793D01*
X114603804Y-101557561D01*
X114511786Y-101716940D01*
X114511783Y-101716946D01*
X114460498Y-101874787D01*
X114454915Y-101891971D01*
X114435678Y-102075000D01*
X113411500Y-102075000D01*
X113411500Y-100075000D01*
X114435678Y-100075000D01*
X114454915Y-100258029D01*
X114454916Y-100258032D01*
X114511783Y-100433053D01*
X114511786Y-100433059D01*
X114603805Y-100592440D01*
X114713327Y-100714077D01*
X114726949Y-100729206D01*
X114726951Y-100729208D01*
X114875834Y-100837378D01*
X114875835Y-100837378D01*
X114875839Y-100837381D01*
X115012953Y-100898428D01*
X115043961Y-100912234D01*
X115043966Y-100912236D01*
X115223981Y-100950500D01*
X115408019Y-100950500D01*
X115588034Y-100912236D01*
X115756161Y-100837381D01*
X115905050Y-100729207D01*
X116028195Y-100592440D01*
X116120214Y-100433059D01*
X116177085Y-100258029D01*
X116196322Y-100075000D01*
X116177085Y-99891971D01*
X116120214Y-99716941D01*
X116028195Y-99557560D01*
X115905050Y-99420793D01*
X115905048Y-99420791D01*
X115756165Y-99312621D01*
X115756162Y-99312619D01*
X115756161Y-99312619D01*
X115695112Y-99285438D01*
X115588038Y-99237765D01*
X115588033Y-99237763D01*
X115408019Y-99199500D01*
X115223981Y-99199500D01*
X115043966Y-99237763D01*
X115043961Y-99237765D01*
X114875839Y-99312619D01*
X114875834Y-99312621D01*
X114726951Y-99420791D01*
X114726949Y-99420793D01*
X114603804Y-99557561D01*
X114511786Y-99716940D01*
X114511783Y-99716946D01*
X114454916Y-99891967D01*
X114454915Y-99891971D01*
X114435678Y-100075000D01*
X113411500Y-100075000D01*
X113411500Y-98075000D01*
X114435678Y-98075000D01*
X114454915Y-98258029D01*
X114454916Y-98258032D01*
X114511783Y-98433053D01*
X114511786Y-98433059D01*
X114603805Y-98592440D01*
X114665914Y-98661419D01*
X114726949Y-98729206D01*
X114726951Y-98729208D01*
X114875834Y-98837378D01*
X114875835Y-98837378D01*
X114875839Y-98837381D01*
X115012953Y-98898428D01*
X115043961Y-98912234D01*
X115043966Y-98912236D01*
X115223981Y-98950500D01*
X115408019Y-98950500D01*
X115588034Y-98912236D01*
X115756161Y-98837381D01*
X115905050Y-98729207D01*
X116028195Y-98592440D01*
X116120214Y-98433059D01*
X116177085Y-98258029D01*
X116196322Y-98075000D01*
X116177085Y-97891971D01*
X116120214Y-97716941D01*
X116028195Y-97557560D01*
X115905050Y-97420793D01*
X115905048Y-97420791D01*
X115756165Y-97312621D01*
X115756162Y-97312619D01*
X115756161Y-97312619D01*
X115695112Y-97285438D01*
X115588038Y-97237765D01*
X115588033Y-97237763D01*
X115408019Y-97199500D01*
X115223981Y-97199500D01*
X115043966Y-97237763D01*
X115043961Y-97237765D01*
X114875839Y-97312619D01*
X114875834Y-97312621D01*
X114726951Y-97420791D01*
X114726949Y-97420793D01*
X114603804Y-97557561D01*
X114511786Y-97716940D01*
X114511783Y-97716946D01*
X114454916Y-97891967D01*
X114454915Y-97891971D01*
X114435678Y-98075000D01*
X113411500Y-98075000D01*
X113411500Y-96075000D01*
X114435678Y-96075000D01*
X114454915Y-96258029D01*
X114454916Y-96258032D01*
X114511783Y-96433053D01*
X114511786Y-96433059D01*
X114603805Y-96592440D01*
X114713327Y-96714077D01*
X114726949Y-96729206D01*
X114726951Y-96729208D01*
X114875834Y-96837378D01*
X114875835Y-96837378D01*
X114875839Y-96837381D01*
X115012953Y-96898428D01*
X115043961Y-96912234D01*
X115043966Y-96912236D01*
X115223981Y-96950500D01*
X115408019Y-96950500D01*
X115588034Y-96912236D01*
X115756161Y-96837381D01*
X115905050Y-96729207D01*
X116028195Y-96592440D01*
X116120214Y-96433059D01*
X116177085Y-96258029D01*
X116196322Y-96075000D01*
X116177085Y-95891971D01*
X116140061Y-95778023D01*
X116120216Y-95716946D01*
X116120213Y-95716940D01*
X116028195Y-95557560D01*
X115905050Y-95420793D01*
X115905048Y-95420791D01*
X115756165Y-95312621D01*
X115756162Y-95312619D01*
X115756161Y-95312619D01*
X115695112Y-95285438D01*
X115588038Y-95237765D01*
X115588033Y-95237763D01*
X115408019Y-95199500D01*
X115223981Y-95199500D01*
X115043966Y-95237763D01*
X115043961Y-95237765D01*
X114875839Y-95312619D01*
X114875834Y-95312621D01*
X114726951Y-95420791D01*
X114726949Y-95420793D01*
X114603804Y-95557561D01*
X114511786Y-95716940D01*
X114511783Y-95716946D01*
X114454916Y-95891967D01*
X114454915Y-95891971D01*
X114435678Y-96075000D01*
X113411500Y-96075000D01*
X113411500Y-92797844D01*
X114141000Y-92797844D01*
X114147401Y-92857372D01*
X114147403Y-92857379D01*
X114197645Y-92992086D01*
X114197649Y-92992093D01*
X114283809Y-93107187D01*
X114283812Y-93107190D01*
X114398906Y-93193350D01*
X114398913Y-93193354D01*
X114533620Y-93243596D01*
X114533627Y-93243598D01*
X114593155Y-93249999D01*
X114593172Y-93250000D01*
X114602224Y-93250000D01*
X114669263Y-93269685D01*
X114715018Y-93322489D01*
X114724962Y-93391647D01*
X114695937Y-93455203D01*
X114694374Y-93456972D01*
X114603804Y-93557561D01*
X114511786Y-93716940D01*
X114511783Y-93716946D01*
X114454916Y-93891967D01*
X114454915Y-93891971D01*
X114435678Y-94075000D01*
X114454915Y-94258029D01*
X114454916Y-94258032D01*
X114511783Y-94433053D01*
X114511786Y-94433059D01*
X114603805Y-94592440D01*
X114713327Y-94714077D01*
X114726949Y-94729206D01*
X114726951Y-94729208D01*
X114875834Y-94837378D01*
X114875835Y-94837378D01*
X114875839Y-94837381D01*
X115012953Y-94898428D01*
X115043961Y-94912234D01*
X115043966Y-94912236D01*
X115223981Y-94950500D01*
X115408019Y-94950500D01*
X115588034Y-94912236D01*
X115756161Y-94837381D01*
X115905050Y-94729207D01*
X116028195Y-94592440D01*
X116103216Y-94462499D01*
X116153783Y-94414284D01*
X116210603Y-94400500D01*
X117233548Y-94400500D01*
X117300587Y-94420185D01*
X117328491Y-94444739D01*
X117860546Y-95078100D01*
X117897545Y-95122194D01*
X117909588Y-95129147D01*
X117913305Y-95131293D01*
X117930955Y-95143644D01*
X117944900Y-95155332D01*
X117961766Y-95161460D01*
X117981411Y-95170614D01*
X117996955Y-95179588D01*
X118014871Y-95182746D01*
X118035687Y-95188318D01*
X118052787Y-95194532D01*
X118110181Y-95194500D01*
X118431812Y-95194500D01*
X118498851Y-95214185D01*
X118519493Y-95230819D01*
X125106868Y-101818195D01*
X125110523Y-101822184D01*
X125136541Y-101853190D01*
X125136542Y-101853191D01*
X125136545Y-101853194D01*
X125165387Y-101869845D01*
X125171604Y-101873435D01*
X125176154Y-101876333D01*
X125209316Y-101899553D01*
X125209318Y-101899553D01*
X125209319Y-101899554D01*
X125214168Y-101901815D01*
X125230947Y-101908765D01*
X125235952Y-101910587D01*
X125235953Y-101910587D01*
X125235955Y-101910588D01*
X125275829Y-101917618D01*
X125281092Y-101918786D01*
X125292907Y-101921951D01*
X125320193Y-101929263D01*
X125360510Y-101925735D01*
X125365912Y-101925500D01*
X139752417Y-101925500D01*
X139819456Y-101945185D01*
X139865211Y-101997989D01*
X139866979Y-102002049D01*
X139867768Y-102003954D01*
X139965315Y-102186450D01*
X139965317Y-102186452D01*
X140096589Y-102346410D01*
X140193209Y-102425702D01*
X140256550Y-102477685D01*
X140439046Y-102575232D01*
X140637066Y-102635300D01*
X140637065Y-102635300D01*
X140657347Y-102637297D01*
X140843000Y-102655583D01*
X141048934Y-102635300D01*
X141246954Y-102575232D01*
X141429450Y-102477685D01*
X141589410Y-102346410D01*
X141720685Y-102186450D01*
X141818232Y-102003954D01*
X141878300Y-101805934D01*
X141898583Y-101600000D01*
X141878300Y-101394066D01*
X141818232Y-101196046D01*
X141720685Y-101013550D01*
X141668702Y-100950209D01*
X141589410Y-100853589D01*
X141437848Y-100729207D01*
X141429450Y-100722315D01*
X141246954Y-100624768D01*
X141048934Y-100564700D01*
X141048932Y-100564699D01*
X141048934Y-100564699D01*
X140861463Y-100546235D01*
X140843000Y-100544417D01*
X140842999Y-100544417D01*
X140637067Y-100564699D01*
X140439043Y-100624769D01*
X140328898Y-100683643D01*
X140256550Y-100722315D01*
X140256548Y-100722316D01*
X140256547Y-100722317D01*
X140096589Y-100853589D01*
X139965317Y-101013547D01*
X139867768Y-101196045D01*
X139866979Y-101197951D01*
X139866298Y-101198796D01*
X139864896Y-101201419D01*
X139864398Y-101201153D01*
X139823138Y-101252355D01*
X139756844Y-101274421D01*
X139752417Y-101274500D01*
X125535189Y-101274500D01*
X125468150Y-101254815D01*
X125447508Y-101238181D01*
X123806508Y-99597181D01*
X123773023Y-99535858D01*
X123778007Y-99466166D01*
X123819879Y-99410233D01*
X123885343Y-99385816D01*
X123894189Y-99385500D01*
X139752417Y-99385500D01*
X139819456Y-99405185D01*
X139865211Y-99457989D01*
X139866979Y-99462049D01*
X139867768Y-99463954D01*
X139965315Y-99646450D01*
X139965317Y-99646452D01*
X140096589Y-99806410D01*
X140193209Y-99885702D01*
X140256550Y-99937685D01*
X140439046Y-100035232D01*
X140637066Y-100095300D01*
X140637065Y-100095300D01*
X140657347Y-100097297D01*
X140843000Y-100115583D01*
X141048934Y-100095300D01*
X141246954Y-100035232D01*
X141429450Y-99937685D01*
X141589410Y-99806410D01*
X141720685Y-99646450D01*
X141818232Y-99463954D01*
X141878300Y-99265934D01*
X141898583Y-99060000D01*
X141878300Y-98854066D01*
X141818232Y-98656046D01*
X141720685Y-98473550D01*
X141668702Y-98410209D01*
X141589410Y-98313589D01*
X141429452Y-98182317D01*
X141429453Y-98182317D01*
X141429450Y-98182315D01*
X141246954Y-98084768D01*
X141048934Y-98024700D01*
X141048932Y-98024699D01*
X141048934Y-98024699D01*
X140861463Y-98006235D01*
X140843000Y-98004417D01*
X140842999Y-98004417D01*
X140637067Y-98024699D01*
X140439043Y-98084769D01*
X140328898Y-98143643D01*
X140256550Y-98182315D01*
X140256548Y-98182316D01*
X140256547Y-98182317D01*
X140096589Y-98313589D01*
X139965317Y-98473547D01*
X139867768Y-98656045D01*
X139866979Y-98657951D01*
X139866298Y-98658796D01*
X139864896Y-98661419D01*
X139864398Y-98661153D01*
X139823138Y-98712355D01*
X139756844Y-98734421D01*
X139752417Y-98734500D01*
X123884189Y-98734500D01*
X123817150Y-98714815D01*
X123796508Y-98698181D01*
X121618326Y-96519999D01*
X139787417Y-96519999D01*
X139807699Y-96725932D01*
X139808693Y-96729208D01*
X139867768Y-96923954D01*
X139965315Y-97106450D01*
X139965317Y-97106452D01*
X140096589Y-97266410D01*
X140193209Y-97345702D01*
X140256550Y-97397685D01*
X140439046Y-97495232D01*
X140637066Y-97555300D01*
X140637065Y-97555300D01*
X140655529Y-97557118D01*
X140843000Y-97575583D01*
X141048934Y-97555300D01*
X141246954Y-97495232D01*
X141429450Y-97397685D01*
X141589410Y-97266410D01*
X141720685Y-97106450D01*
X141818232Y-96923954D01*
X141878300Y-96725934D01*
X141898583Y-96520000D01*
X141878300Y-96314066D01*
X141818232Y-96116046D01*
X141720685Y-95933550D01*
X141668702Y-95870209D01*
X141589410Y-95773589D01*
X141429452Y-95642317D01*
X141429453Y-95642317D01*
X141429450Y-95642315D01*
X141246954Y-95544768D01*
X141048934Y-95484700D01*
X141048932Y-95484699D01*
X141048934Y-95484699D01*
X140843000Y-95464417D01*
X140637067Y-95484699D01*
X140439043Y-95544769D01*
X140328898Y-95603643D01*
X140256550Y-95642315D01*
X140256548Y-95642316D01*
X140256547Y-95642317D01*
X140096589Y-95773589D01*
X139965317Y-95933547D01*
X139867769Y-96116043D01*
X139807699Y-96314067D01*
X139787417Y-96519999D01*
X121618326Y-96519999D01*
X118742011Y-93643685D01*
X118708526Y-93582362D01*
X118706753Y-93539818D01*
X118715682Y-93472000D01*
X118715682Y-93471998D01*
X118696282Y-93324645D01*
X118695044Y-93315238D01*
X118634536Y-93169159D01*
X118538282Y-93043718D01*
X118412841Y-92947464D01*
X118406168Y-92944700D01*
X118266762Y-92886956D01*
X118266760Y-92886955D01*
X118110001Y-92866318D01*
X118109999Y-92866318D01*
X117953239Y-92886955D01*
X117953237Y-92886956D01*
X117807160Y-92947463D01*
X117681718Y-93043718D01*
X117585463Y-93169160D01*
X117524956Y-93315237D01*
X117524955Y-93315239D01*
X117514646Y-93393547D01*
X117504318Y-93472000D01*
X117518847Y-93582362D01*
X117522396Y-93609315D01*
X117511631Y-93678350D01*
X117465251Y-93730606D01*
X117399457Y-93749500D01*
X116210603Y-93749500D01*
X116143564Y-93729815D01*
X116103216Y-93687500D01*
X116077919Y-93643685D01*
X116028195Y-93557560D01*
X115937626Y-93456972D01*
X115907396Y-93393980D01*
X115916022Y-93324645D01*
X115960763Y-93270979D01*
X116027416Y-93250022D01*
X116029776Y-93250000D01*
X116038828Y-93250000D01*
X116038844Y-93249999D01*
X116098372Y-93243598D01*
X116098379Y-93243596D01*
X116233086Y-93193354D01*
X116233093Y-93193350D01*
X116348187Y-93107190D01*
X116348190Y-93107187D01*
X116434350Y-92992093D01*
X116434354Y-92992086D01*
X116484596Y-92857379D01*
X116484598Y-92857372D01*
X116490999Y-92797844D01*
X116491000Y-92797827D01*
X116491000Y-92337844D01*
X139493000Y-92337844D01*
X139499401Y-92397372D01*
X139499403Y-92397379D01*
X139549645Y-92532086D01*
X139549649Y-92532093D01*
X139635809Y-92647187D01*
X139635812Y-92647190D01*
X139750906Y-92733350D01*
X139750913Y-92733354D01*
X139885620Y-92783596D01*
X139885627Y-92783598D01*
X139945155Y-92789999D01*
X139945172Y-92790000D01*
X140345813Y-92790000D01*
X140412852Y-92809685D01*
X140458607Y-92862489D01*
X140468551Y-92931647D01*
X140439526Y-92995203D01*
X140404267Y-93023357D01*
X140256550Y-93102315D01*
X140256548Y-93102316D01*
X140256547Y-93102317D01*
X140096589Y-93233589D01*
X139965317Y-93393547D01*
X139965315Y-93393550D01*
X139931415Y-93456972D01*
X139867769Y-93576043D01*
X139807699Y-93774067D01*
X139787417Y-93979999D01*
X139807699Y-94185932D01*
X139829570Y-94258032D01*
X139867768Y-94383954D01*
X139965315Y-94566450D01*
X139965317Y-94566452D01*
X140096589Y-94726410D01*
X140193209Y-94805702D01*
X140256550Y-94857685D01*
X140439046Y-94955232D01*
X140637066Y-95015300D01*
X140637065Y-95015300D01*
X140657347Y-95017297D01*
X140843000Y-95035583D01*
X141048934Y-95015300D01*
X141246954Y-94955232D01*
X141429450Y-94857685D01*
X141589410Y-94726410D01*
X141720685Y-94566450D01*
X141818232Y-94383954D01*
X141878300Y-94185934D01*
X141898583Y-93980000D01*
X141878300Y-93774066D01*
X141818232Y-93576046D01*
X141720685Y-93393550D01*
X141668702Y-93330209D01*
X141589410Y-93233589D01*
X141435390Y-93107190D01*
X141429450Y-93102315D01*
X141281732Y-93023357D01*
X141231889Y-92974395D01*
X141216429Y-92906257D01*
X141240261Y-92840578D01*
X141295819Y-92798209D01*
X141340187Y-92790000D01*
X141740828Y-92790000D01*
X141740844Y-92789999D01*
X141800372Y-92783598D01*
X141800379Y-92783596D01*
X141935086Y-92733354D01*
X141935093Y-92733350D01*
X142050187Y-92647190D01*
X142050190Y-92647187D01*
X142136350Y-92532093D01*
X142136354Y-92532086D01*
X142186596Y-92397379D01*
X142186598Y-92397372D01*
X142192999Y-92337844D01*
X142193000Y-92337827D01*
X142193000Y-91690000D01*
X141276686Y-91690000D01*
X141302493Y-91649844D01*
X141343000Y-91511889D01*
X141343000Y-91368111D01*
X141302493Y-91230156D01*
X141276686Y-91190000D01*
X142193000Y-91190000D01*
X142193000Y-90542172D01*
X142192999Y-90542155D01*
X142186598Y-90482627D01*
X142186596Y-90482620D01*
X142136354Y-90347913D01*
X142136350Y-90347906D01*
X142050190Y-90232812D01*
X142050187Y-90232809D01*
X141935093Y-90146649D01*
X141935086Y-90146645D01*
X141800379Y-90096403D01*
X141800372Y-90096401D01*
X141740844Y-90090000D01*
X141093000Y-90090000D01*
X141093000Y-91004498D01*
X140985315Y-90955320D01*
X140878763Y-90940000D01*
X140807237Y-90940000D01*
X140700685Y-90955320D01*
X140593000Y-91004498D01*
X140593000Y-90090000D01*
X139945155Y-90090000D01*
X139885627Y-90096401D01*
X139885620Y-90096403D01*
X139750913Y-90146645D01*
X139750906Y-90146649D01*
X139635812Y-90232809D01*
X139635809Y-90232812D01*
X139549649Y-90347906D01*
X139549645Y-90347913D01*
X139499403Y-90482620D01*
X139499401Y-90482627D01*
X139493000Y-90542155D01*
X139493000Y-91190000D01*
X140409314Y-91190000D01*
X140383507Y-91230156D01*
X140343000Y-91368111D01*
X140343000Y-91511889D01*
X140383507Y-91649844D01*
X140409314Y-91690000D01*
X139493000Y-91690000D01*
X139493000Y-92337844D01*
X116491000Y-92337844D01*
X116491000Y-92325000D01*
X115631686Y-92325000D01*
X115643641Y-92313045D01*
X115701165Y-92200148D01*
X115720986Y-92075000D01*
X115701165Y-91949852D01*
X115643641Y-91836955D01*
X115631686Y-91825000D01*
X116491000Y-91825000D01*
X116491000Y-91352172D01*
X116490999Y-91352155D01*
X116484598Y-91292627D01*
X116484596Y-91292620D01*
X116434354Y-91157913D01*
X116434350Y-91157906D01*
X116348190Y-91042812D01*
X116348187Y-91042809D01*
X116233093Y-90956649D01*
X116233086Y-90956645D01*
X116098379Y-90906403D01*
X116098372Y-90906401D01*
X116038844Y-90900000D01*
X115566000Y-90900000D01*
X115566000Y-91759313D01*
X115554045Y-91747359D01*
X115441148Y-91689835D01*
X115347481Y-91675000D01*
X115284519Y-91675000D01*
X115190852Y-91689835D01*
X115077955Y-91747359D01*
X115066000Y-91759313D01*
X115066000Y-90900000D01*
X114593155Y-90900000D01*
X114533627Y-90906401D01*
X114533620Y-90906403D01*
X114398913Y-90956645D01*
X114398906Y-90956649D01*
X114283812Y-91042809D01*
X114283809Y-91042812D01*
X114197649Y-91157906D01*
X114197645Y-91157913D01*
X114147403Y-91292620D01*
X114147401Y-91292627D01*
X114141000Y-91352155D01*
X114141000Y-91825000D01*
X115000314Y-91825000D01*
X114988359Y-91836955D01*
X114930835Y-91949852D01*
X114911014Y-92075000D01*
X114930835Y-92200148D01*
X114988359Y-92313045D01*
X115000314Y-92325000D01*
X114141000Y-92325000D01*
X114141000Y-92797844D01*
X113411500Y-92797844D01*
X113411500Y-89405500D01*
X113431185Y-89338461D01*
X113483989Y-89292706D01*
X113535500Y-89281500D01*
X143004500Y-89281500D01*
X143071539Y-89301185D01*
G37*
%TD.AperFunction*%
%TD*%
M02*
