%TF.GenerationSoftware,KiCad,Pcbnew,7.0.6-1.fc38*%
%TF.CreationDate,2023-08-14T17:52:23+02:00*%
%TF.ProjectId,220V_OPTO_SWITCH,32323056-5f4f-4505-944f-5f5357495443,rev?*%
%TF.SameCoordinates,Original*%
%TF.FileFunction,Copper,L1,Top*%
%TF.FilePolarity,Positive*%
%FSLAX46Y46*%
G04 Gerber Fmt 4.6, Leading zero omitted, Abs format (unit mm)*
G04 Created by KiCad (PCBNEW 7.0.6-1.fc38) date 2023-08-14 17:52:23*
%MOMM*%
%LPD*%
G01*
G04 APERTURE LIST*
G04 Aperture macros list*
%AMRoundRect*
0 Rectangle with rounded corners*
0 $1 Rounding radius*
0 $2 $3 $4 $5 $6 $7 $8 $9 X,Y pos of 4 corners*
0 Add a 4 corners polygon primitive as box body*
4,1,4,$2,$3,$4,$5,$6,$7,$8,$9,$2,$3,0*
0 Add four circle primitives for the rounded corners*
1,1,$1+$1,$2,$3*
1,1,$1+$1,$4,$5*
1,1,$1+$1,$6,$7*
1,1,$1+$1,$8,$9*
0 Add four rect primitives between the rounded corners*
20,1,$1+$1,$2,$3,$4,$5,0*
20,1,$1+$1,$4,$5,$6,$7,0*
20,1,$1+$1,$6,$7,$8,$9,0*
20,1,$1+$1,$8,$9,$2,$3,0*%
G04 Aperture macros list end*
%TA.AperFunction,ComponentPad*%
%ADD10R,1.600000X1.600000*%
%TD*%
%TA.AperFunction,ComponentPad*%
%ADD11O,1.600000X1.600000*%
%TD*%
%TA.AperFunction,SMDPad,CuDef*%
%ADD12RoundRect,0.250000X0.350000X0.450000X-0.350000X0.450000X-0.350000X-0.450000X0.350000X-0.450000X0*%
%TD*%
%TA.AperFunction,SMDPad,CuDef*%
%ADD13RoundRect,0.250000X-0.450000X0.350000X-0.450000X-0.350000X0.450000X-0.350000X0.450000X0.350000X0*%
%TD*%
%TA.AperFunction,SMDPad,CuDef*%
%ADD14RoundRect,0.250000X-0.350000X-0.450000X0.350000X-0.450000X0.350000X0.450000X-0.350000X0.450000X0*%
%TD*%
%TA.AperFunction,ComponentPad*%
%ADD15C,2.400000*%
%TD*%
%TA.AperFunction,ComponentPad*%
%ADD16O,2.400000X2.400000*%
%TD*%
%TA.AperFunction,ComponentPad*%
%ADD17R,1.500000X1.050000*%
%TD*%
%TA.AperFunction,ComponentPad*%
%ADD18O,1.500000X1.050000*%
%TD*%
%TA.AperFunction,ComponentPad*%
%ADD19R,1.700000X1.700000*%
%TD*%
%TA.AperFunction,ComponentPad*%
%ADD20O,1.700000X1.700000*%
%TD*%
%TA.AperFunction,ComponentPad*%
%ADD21R,2.600000X2.600000*%
%TD*%
%TA.AperFunction,ComponentPad*%
%ADD22C,2.600000*%
%TD*%
%TA.AperFunction,SMDPad,CuDef*%
%ADD23RoundRect,0.250000X0.325000X0.450000X-0.325000X0.450000X-0.325000X-0.450000X0.325000X-0.450000X0*%
%TD*%
%TA.AperFunction,SMDPad,CuDef*%
%ADD24RoundRect,0.250000X-0.450000X0.325000X-0.450000X-0.325000X0.450000X-0.325000X0.450000X0.325000X0*%
%TD*%
%TA.AperFunction,ComponentPad*%
%ADD25R,2.200000X2.200000*%
%TD*%
%TA.AperFunction,ComponentPad*%
%ADD26O,2.200000X2.200000*%
%TD*%
%TA.AperFunction,SMDPad,CuDef*%
%ADD27RoundRect,0.250000X-0.412500X-0.650000X0.412500X-0.650000X0.412500X0.650000X-0.412500X0.650000X0*%
%TD*%
%TA.AperFunction,ViaPad*%
%ADD28C,0.800000*%
%TD*%
%TA.AperFunction,Conductor*%
%ADD29C,0.350000*%
%TD*%
%TA.AperFunction,Conductor*%
%ADD30C,2.000000*%
%TD*%
G04 APERTURE END LIST*
D10*
%TO.P,U1,1*%
%TO.N,Net-(D1-K)*%
X95631000Y-79375000D03*
D11*
%TO.P,U1,2*%
%TO.N,NEUT*%
X93091000Y-79375000D03*
%TO.P,U1,3,NC*%
%TO.N,unconnected-(U1-NC-Pad3)*%
X90551000Y-79375000D03*
%TO.P,U1,4*%
%TO.N,Net-(Q1-B)*%
X90551000Y-86995000D03*
%TO.P,U1,5*%
%TO.N,+3.3V*%
X93091000Y-86995000D03*
%TO.P,U1,6*%
%TO.N,unconnected-(U1-Pad6)*%
X95631000Y-86995000D03*
%TD*%
D12*
%TO.P,R5,1*%
%TO.N,Net-(D3-K)*%
X104013000Y-89535000D03*
%TO.P,R5,2*%
%TO.N,GND*%
X102013000Y-89535000D03*
%TD*%
D13*
%TO.P,R4,1*%
%TO.N,Net-(D2-K)*%
X104013000Y-91472000D03*
%TO.P,R4,2*%
%TO.N,GND*%
X104013000Y-93472000D03*
%TD*%
D12*
%TO.P,R3,1*%
%TO.N,SIG*%
X85455000Y-90424000D03*
%TO.P,R3,2*%
%TO.N,Net-(Q1-B)*%
X83455000Y-90424000D03*
%TD*%
D14*
%TO.P,R2,1*%
%TO.N,+3.3V*%
X96790000Y-89027000D03*
%TO.P,R2,2*%
%TO.N,GND*%
X98790000Y-89027000D03*
%TD*%
D15*
%TO.P,R1,1*%
%TO.N,Net-(D1-K)*%
X105664000Y-76200000D03*
D16*
%TO.P,R1,2*%
%TO.N,-VSW*%
X90424000Y-76200000D03*
%TD*%
D17*
%TO.P,Q1,1,C*%
%TO.N,GND*%
X90297000Y-92964000D03*
D18*
%TO.P,Q1,2,B*%
%TO.N,Net-(Q1-B)*%
X90297000Y-91694000D03*
%TO.P,Q1,3,E*%
%TO.N,SIG*%
X90297000Y-90424000D03*
%TD*%
D19*
%TO.P,J2,1,Pin_1*%
%TO.N,SIG*%
X94107000Y-91821000D03*
D20*
%TO.P,J2,2,Pin_2*%
%TO.N,+3.3V*%
X96647000Y-91821000D03*
%TO.P,J2,3,Pin_3*%
%TO.N,GND*%
X99187000Y-91821000D03*
%TD*%
D21*
%TO.P,J1,1,Pin_1*%
%TO.N,NEUT*%
X109013000Y-68326000D03*
D22*
%TO.P,J1,2,Pin_2*%
%TO.N,LINE*%
X104013000Y-68326000D03*
%TO.P,J1,3,Pin_3*%
X99013000Y-68326000D03*
%TO.P,J1,4,Pin_4*%
%TO.N,NEUT*%
X94013000Y-68326000D03*
%TO.P,J1,5,Pin_5*%
%TO.N,-VSW*%
X89013000Y-68326000D03*
%TD*%
D23*
%TO.P,D3,1,K*%
%TO.N,Net-(D3-K)*%
X104031000Y-87503000D03*
%TO.P,D3,2,A*%
%TO.N,+3.3V*%
X101981000Y-87503000D03*
%TD*%
D24*
%TO.P,D2,1,K*%
%TO.N,Net-(D2-K)*%
X101981000Y-91431000D03*
%TO.P,D2,2,A*%
%TO.N,SIG*%
X101981000Y-93481000D03*
%TD*%
D25*
%TO.P,D1,1,K*%
%TO.N,Net-(D1-K)*%
X108712000Y-79883000D03*
D26*
%TO.P,D1,2,A*%
%TO.N,NEUT*%
X98552000Y-79883000D03*
%TD*%
D27*
%TO.P,C1,1*%
%TO.N,Net-(Q1-B)*%
X83400500Y-92964000D03*
%TO.P,C1,2*%
%TO.N,GND*%
X86525500Y-92964000D03*
%TD*%
D28*
%TO.N,GND*%
X100330000Y-89154000D03*
X93726000Y-93980000D03*
X86868000Y-90170000D03*
X93091000Y-89154000D03*
X86233000Y-87503000D03*
%TD*%
D29*
%TO.N,Net-(D3-K)*%
X104031000Y-87503000D02*
X104031000Y-89517000D01*
X104031000Y-89517000D02*
X104013000Y-89535000D01*
%TO.N,+3.3V*%
X98187000Y-87630000D02*
X101854000Y-87630000D01*
X101854000Y-87630000D02*
X101981000Y-87503000D01*
X93091000Y-86995000D02*
X95123000Y-89027000D01*
X95123000Y-89027000D02*
X96790000Y-89027000D01*
%TO.N,Net-(Q1-B)*%
X90551000Y-88265000D02*
X89916000Y-88900000D01*
X90551000Y-86995000D02*
X90551000Y-88265000D01*
X89916000Y-88900000D02*
X84979000Y-88900000D01*
X84979000Y-88900000D02*
X83455000Y-90424000D01*
D30*
%TO.N,NEUT*%
X97663000Y-76200000D02*
X101139000Y-76200000D01*
X101139000Y-76200000D02*
X109013000Y-68326000D01*
%TO.N,LINE*%
X99013000Y-68326000D02*
X104013000Y-68326000D01*
%TO.N,NEUT*%
X94013000Y-68326000D02*
X94013000Y-75407000D01*
X94013000Y-75407000D02*
X94806000Y-76200000D01*
%TO.N,-VSW*%
X90410000Y-69723000D02*
X90424000Y-69723000D01*
X89013000Y-68326000D02*
X90410000Y-69723000D01*
X90424000Y-69723000D02*
X90424000Y-76200000D01*
D29*
%TO.N,Net-(Q1-B)*%
X83455000Y-90424000D02*
X83537500Y-90424000D01*
X83537500Y-90424000D02*
X84802500Y-91689000D01*
X83400500Y-92964000D02*
X83527500Y-92964000D01*
X83527500Y-92964000D02*
X84802500Y-91689000D01*
%TO.N,Net-(D3-K)*%
X104013000Y-87655000D02*
X104038000Y-87630000D01*
%TO.N,+3.3V*%
X98187000Y-87630000D02*
X96790000Y-89027000D01*
%TO.N,Net-(D2-K)*%
X101981000Y-91431000D02*
X103972000Y-91431000D01*
X103972000Y-91431000D02*
X104013000Y-91472000D01*
%TO.N,SIG*%
X94107000Y-91821000D02*
X95767000Y-93481000D01*
X95767000Y-93481000D02*
X101981000Y-93481000D01*
%TO.N,GND*%
X98790000Y-91424000D02*
X99187000Y-91821000D01*
%TO.N,+3.3V*%
X96790000Y-89027000D02*
X96790000Y-91678000D01*
X96790000Y-91678000D02*
X96647000Y-91821000D01*
%TO.N,SIG*%
X90297000Y-90424000D02*
X92710000Y-90424000D01*
X92710000Y-90424000D02*
X94107000Y-91821000D01*
X86170000Y-91139000D02*
X89154000Y-91139000D01*
X85455000Y-90424000D02*
X86170000Y-91139000D01*
X89154000Y-91139000D02*
X89869000Y-90424000D01*
X89869000Y-90424000D02*
X90297000Y-90424000D01*
%TO.N,Net-(Q1-B)*%
X84802500Y-91689000D02*
X90292000Y-91689000D01*
X90292000Y-91689000D02*
X90297000Y-91694000D01*
D30*
%TO.N,Net-(D1-K)*%
X105664000Y-76200000D02*
X105664000Y-76835000D01*
X105664000Y-76835000D02*
X108712000Y-79883000D01*
X95631000Y-82423000D02*
X95885000Y-82677000D01*
X95631000Y-79375000D02*
X95631000Y-82423000D01*
X95885000Y-82677000D02*
X105918000Y-82677000D01*
X105918000Y-82677000D02*
X108712000Y-79883000D01*
%TO.N,NEUT*%
X98552000Y-79883000D02*
X98552000Y-77089000D01*
X98552000Y-77089000D02*
X97663000Y-76200000D01*
X97663000Y-76200000D02*
X94806000Y-76200000D01*
X94806000Y-76200000D02*
X93091000Y-77915000D01*
X93091000Y-77915000D02*
X93091000Y-79375000D01*
%TD*%
%TA.AperFunction,Conductor*%
%TO.N,GND*%
G36*
X115385539Y-86125685D02*
G01*
X115431294Y-86178489D01*
X115442500Y-86230000D01*
X115442500Y-99824500D01*
X115422815Y-99891539D01*
X115370011Y-99937294D01*
X115318500Y-99948500D01*
X88121947Y-99948500D01*
X88054908Y-99928815D01*
X88009153Y-99876011D01*
X87999209Y-99806853D01*
X88028234Y-99743297D01*
X88034266Y-99736819D01*
X88069410Y-99701675D01*
X88069410Y-98298000D01*
X88937785Y-98298000D01*
X88956602Y-98501082D01*
X89012417Y-98697247D01*
X89012422Y-98697260D01*
X89103327Y-98879821D01*
X89226237Y-99042581D01*
X89376958Y-99179980D01*
X89376960Y-99179982D01*
X89503148Y-99258113D01*
X89550363Y-99287348D01*
X89581863Y-99299551D01*
X89584927Y-99300844D01*
X89585002Y-99300870D01*
X89585004Y-99300871D01*
X89586021Y-99301223D01*
X89587499Y-99301735D01*
X89665885Y-99332101D01*
X89740544Y-99361024D01*
X89773395Y-99367165D01*
X89776608Y-99367854D01*
X89783070Y-99369422D01*
X89783075Y-99369424D01*
X89783079Y-99369424D01*
X89783081Y-99369425D01*
X89793493Y-99370922D01*
X89820696Y-99376007D01*
X89941024Y-99398500D01*
X89941026Y-99398500D01*
X89976437Y-99398500D01*
X89984643Y-99399086D01*
X89984649Y-99398972D01*
X89990537Y-99399252D01*
X89990541Y-99399253D01*
X89990544Y-99399252D01*
X89990548Y-99399253D01*
X89998954Y-99398853D01*
X89998964Y-99398855D01*
X90004938Y-99398570D01*
X90007891Y-99398500D01*
X90144975Y-99398500D01*
X90144976Y-99398500D01*
X90188198Y-99390420D01*
X90196646Y-99389435D01*
X90199902Y-99389280D01*
X90199904Y-99389279D01*
X90201781Y-99389190D01*
X90201827Y-99389185D01*
X90234914Y-99387608D01*
X90265294Y-99376008D01*
X90345456Y-99361024D01*
X90390381Y-99343619D01*
X90398145Y-99341186D01*
X90403593Y-99339865D01*
X90403596Y-99339863D01*
X90406340Y-99339198D01*
X90406370Y-99339190D01*
X90435586Y-99332101D01*
X90461999Y-99315875D01*
X90518895Y-99293833D01*
X90535635Y-99287349D01*
X90535640Y-99287346D01*
X90580244Y-99259728D01*
X90587092Y-99256064D01*
X90594251Y-99252795D01*
X90594254Y-99252792D01*
X90598575Y-99250820D01*
X90600528Y-99249928D01*
X90601782Y-99249747D01*
X90605029Y-99247872D01*
X90622245Y-99240010D01*
X90644028Y-99220234D01*
X90709041Y-99179981D01*
X90751053Y-99141681D01*
X90756809Y-99137036D01*
X90764985Y-99131215D01*
X90764989Y-99131210D01*
X90765077Y-99131148D01*
X90767906Y-99130168D01*
X90774622Y-99124350D01*
X90788296Y-99114612D01*
X90805053Y-99092453D01*
X90859764Y-99042579D01*
X90896691Y-98993678D01*
X90901278Y-98988278D01*
X90904207Y-98985203D01*
X90905284Y-98984074D01*
X90909302Y-98981752D01*
X90917799Y-98970949D01*
X90927839Y-98960419D01*
X90939455Y-98937050D01*
X90982673Y-98879821D01*
X91009822Y-98825297D01*
X91017339Y-98817189D01*
X91018541Y-98814187D01*
X91029342Y-98793235D01*
X91035993Y-98782884D01*
X91042607Y-98759455D01*
X91073582Y-98697250D01*
X91090598Y-98637443D01*
X91097343Y-98626750D01*
X91098596Y-98620253D01*
X91105240Y-98597626D01*
X91108947Y-98588365D01*
X91110948Y-98565921D01*
X91129397Y-98501083D01*
X91136368Y-98425845D01*
X91137217Y-98419880D01*
X91140510Y-98402799D01*
X91140510Y-98402794D01*
X91144179Y-98383758D01*
X91142173Y-98363195D01*
X91148215Y-98298000D01*
X106760785Y-98298000D01*
X106779602Y-98501082D01*
X106835417Y-98697247D01*
X106835422Y-98697260D01*
X106926327Y-98879821D01*
X107049237Y-99042581D01*
X107199958Y-99179980D01*
X107199960Y-99179982D01*
X107326148Y-99258113D01*
X107373363Y-99287348D01*
X107404863Y-99299551D01*
X107407927Y-99300844D01*
X107408002Y-99300870D01*
X107408004Y-99300871D01*
X107409021Y-99301223D01*
X107410499Y-99301735D01*
X107488885Y-99332101D01*
X107563544Y-99361024D01*
X107596395Y-99367165D01*
X107599608Y-99367854D01*
X107606070Y-99369422D01*
X107606075Y-99369424D01*
X107606079Y-99369424D01*
X107606081Y-99369425D01*
X107616493Y-99370922D01*
X107643696Y-99376007D01*
X107764024Y-99398500D01*
X107764026Y-99398500D01*
X107799437Y-99398500D01*
X107807643Y-99399086D01*
X107807649Y-99398972D01*
X107813537Y-99399252D01*
X107813541Y-99399253D01*
X107813544Y-99399252D01*
X107813548Y-99399253D01*
X107821954Y-99398853D01*
X107821964Y-99398855D01*
X107827938Y-99398570D01*
X107830891Y-99398500D01*
X107967975Y-99398500D01*
X107967976Y-99398500D01*
X108011198Y-99390420D01*
X108019646Y-99389435D01*
X108022902Y-99389280D01*
X108022904Y-99389279D01*
X108024781Y-99389190D01*
X108024827Y-99389185D01*
X108057914Y-99387608D01*
X108088294Y-99376008D01*
X108168456Y-99361024D01*
X108213381Y-99343619D01*
X108221145Y-99341186D01*
X108226593Y-99339865D01*
X108226596Y-99339863D01*
X108229340Y-99339198D01*
X108229370Y-99339190D01*
X108258586Y-99332101D01*
X108284999Y-99315875D01*
X108341895Y-99293833D01*
X108358635Y-99287349D01*
X108358640Y-99287346D01*
X108403244Y-99259728D01*
X108410092Y-99256064D01*
X108417251Y-99252795D01*
X108417254Y-99252792D01*
X108421575Y-99250820D01*
X108423528Y-99249928D01*
X108424782Y-99249747D01*
X108428029Y-99247872D01*
X108445245Y-99240010D01*
X108467028Y-99220234D01*
X108532041Y-99179981D01*
X108574053Y-99141681D01*
X108579809Y-99137036D01*
X108587985Y-99131215D01*
X108587989Y-99131210D01*
X108588077Y-99131148D01*
X108590906Y-99130168D01*
X108597622Y-99124350D01*
X108611296Y-99114612D01*
X108628053Y-99092453D01*
X108682764Y-99042579D01*
X108719691Y-98993678D01*
X108724278Y-98988278D01*
X108727207Y-98985203D01*
X108728284Y-98984074D01*
X108732302Y-98981752D01*
X108740799Y-98970949D01*
X108750839Y-98960419D01*
X108762455Y-98937050D01*
X108805673Y-98879821D01*
X108832822Y-98825297D01*
X108840339Y-98817189D01*
X108841541Y-98814187D01*
X108852342Y-98793235D01*
X108858993Y-98782884D01*
X108865607Y-98759455D01*
X108896582Y-98697250D01*
X108913598Y-98637443D01*
X108920343Y-98626750D01*
X108921596Y-98620253D01*
X108928240Y-98597626D01*
X108931947Y-98588365D01*
X108933948Y-98565921D01*
X108952397Y-98501083D01*
X108959368Y-98425845D01*
X108960217Y-98419880D01*
X108963510Y-98402799D01*
X108963510Y-98402794D01*
X108967179Y-98383758D01*
X108965173Y-98363195D01*
X108971215Y-98298000D01*
X108965173Y-98232804D01*
X108968180Y-98217433D01*
X108960220Y-98176132D01*
X108959368Y-98170148D01*
X108952397Y-98094917D01*
X108933948Y-98030076D01*
X108934091Y-98012986D01*
X108928239Y-97998369D01*
X108921597Y-97975746D01*
X108921152Y-97973440D01*
X108913599Y-97958558D01*
X108896582Y-97898750D01*
X108896581Y-97898747D01*
X108896580Y-97898744D01*
X108865608Y-97836546D01*
X108862365Y-97818359D01*
X108852342Y-97802762D01*
X108841891Y-97782490D01*
X108832824Y-97770705D01*
X108805673Y-97716179D01*
X108805670Y-97716175D01*
X108805669Y-97716173D01*
X108762456Y-97658949D01*
X108755456Y-97640420D01*
X108740797Y-97625047D01*
X108734144Y-97616588D01*
X108728316Y-97611957D01*
X108724299Y-97607744D01*
X108719692Y-97602322D01*
X108709043Y-97588220D01*
X108682766Y-97553422D01*
X108682764Y-97553420D01*
X108628055Y-97503547D01*
X108617101Y-97485519D01*
X108597623Y-97471649D01*
X108592369Y-97467096D01*
X108588065Y-97464842D01*
X108579832Y-97458978D01*
X108574024Y-97454291D01*
X108559766Y-97441293D01*
X108532041Y-97416019D01*
X108532034Y-97416015D01*
X108532032Y-97416013D01*
X108467029Y-97375765D01*
X108452113Y-97359124D01*
X108428029Y-97348126D01*
X108425533Y-97346685D01*
X108423586Y-97346097D01*
X108410104Y-97339940D01*
X108403214Y-97336253D01*
X108358637Y-97308652D01*
X108312282Y-97290694D01*
X108284993Y-97280122D01*
X108266320Y-97265772D01*
X108226264Y-97256055D01*
X108224216Y-97255558D01*
X108221155Y-97254815D01*
X108213370Y-97252375D01*
X108182645Y-97240473D01*
X108168456Y-97234976D01*
X108168447Y-97234974D01*
X108168446Y-97234974D01*
X108088284Y-97219988D01*
X108066247Y-97208783D01*
X108019641Y-97206563D01*
X108011191Y-97205577D01*
X107967980Y-97197500D01*
X107967976Y-97197500D01*
X107830834Y-97197500D01*
X107827884Y-97197430D01*
X107813540Y-97196746D01*
X107807649Y-97197028D01*
X107807643Y-97196913D01*
X107799437Y-97197500D01*
X107764024Y-97197500D01*
X107720816Y-97205577D01*
X107616491Y-97225078D01*
X107606072Y-97226576D01*
X107599593Y-97228148D01*
X107596373Y-97228839D01*
X107563548Y-97234975D01*
X107563538Y-97234977D01*
X107410496Y-97294266D01*
X107407915Y-97295159D01*
X107404811Y-97296468D01*
X107373363Y-97308651D01*
X107373361Y-97308652D01*
X107199957Y-97416020D01*
X107049237Y-97553418D01*
X106926327Y-97716178D01*
X106835422Y-97898739D01*
X106835417Y-97898752D01*
X106779602Y-98094917D01*
X106760785Y-98297999D01*
X106760785Y-98298000D01*
X91148215Y-98298000D01*
X91142173Y-98232804D01*
X91145180Y-98217433D01*
X91137220Y-98176132D01*
X91136368Y-98170148D01*
X91129397Y-98094917D01*
X91110948Y-98030076D01*
X91111091Y-98012986D01*
X91105239Y-97998369D01*
X91098597Y-97975746D01*
X91098152Y-97973440D01*
X91090599Y-97958558D01*
X91073582Y-97898750D01*
X91073581Y-97898747D01*
X91073580Y-97898744D01*
X91042608Y-97836546D01*
X91039365Y-97818359D01*
X91029342Y-97802762D01*
X91018891Y-97782490D01*
X91009824Y-97770705D01*
X90982673Y-97716179D01*
X90982670Y-97716175D01*
X90982669Y-97716173D01*
X90939456Y-97658949D01*
X90932456Y-97640420D01*
X90917797Y-97625047D01*
X90911144Y-97616588D01*
X90905316Y-97611957D01*
X90901299Y-97607744D01*
X90896692Y-97602322D01*
X90886043Y-97588220D01*
X90859766Y-97553422D01*
X90859764Y-97553420D01*
X90805055Y-97503547D01*
X90794101Y-97485519D01*
X90774623Y-97471649D01*
X90769369Y-97467096D01*
X90765065Y-97464842D01*
X90756832Y-97458978D01*
X90751024Y-97454291D01*
X90736766Y-97441293D01*
X90709041Y-97416019D01*
X90709034Y-97416015D01*
X90709032Y-97416013D01*
X90644029Y-97375765D01*
X90629113Y-97359124D01*
X90605029Y-97348126D01*
X90602533Y-97346685D01*
X90600586Y-97346097D01*
X90587104Y-97339940D01*
X90580214Y-97336253D01*
X90535637Y-97308652D01*
X90489282Y-97290694D01*
X90461993Y-97280122D01*
X90443320Y-97265772D01*
X90403264Y-97256055D01*
X90401216Y-97255558D01*
X90398155Y-97254815D01*
X90390370Y-97252375D01*
X90359645Y-97240473D01*
X90345456Y-97234976D01*
X90345447Y-97234974D01*
X90345446Y-97234974D01*
X90265284Y-97219988D01*
X90243247Y-97208783D01*
X90196641Y-97206563D01*
X90188191Y-97205577D01*
X90144980Y-97197500D01*
X90144976Y-97197500D01*
X90007834Y-97197500D01*
X90004884Y-97197430D01*
X89990540Y-97196746D01*
X89984649Y-97197028D01*
X89984643Y-97196913D01*
X89976437Y-97197500D01*
X89941024Y-97197500D01*
X89897816Y-97205577D01*
X89793491Y-97225078D01*
X89783072Y-97226576D01*
X89776593Y-97228148D01*
X89773373Y-97228839D01*
X89740548Y-97234975D01*
X89740538Y-97234977D01*
X89587496Y-97294266D01*
X89584915Y-97295159D01*
X89581811Y-97296468D01*
X89550363Y-97308651D01*
X89550361Y-97308652D01*
X89376957Y-97416020D01*
X89226237Y-97553418D01*
X89103327Y-97716178D01*
X89012422Y-97898739D01*
X89012417Y-97898752D01*
X88956602Y-98094917D01*
X88937785Y-98297999D01*
X88937785Y-98298000D01*
X88069410Y-98298000D01*
X88069410Y-94240675D01*
X87654832Y-94240675D01*
X87587793Y-94220990D01*
X87542038Y-94168186D01*
X87532094Y-94099028D01*
X87549293Y-94051578D01*
X87622356Y-93933124D01*
X87622358Y-93933119D01*
X87677505Y-93766697D01*
X87677506Y-93766690D01*
X87687999Y-93663986D01*
X87688000Y-93663973D01*
X87688000Y-93214000D01*
X85363001Y-93214000D01*
X85363001Y-93663986D01*
X85373494Y-93766697D01*
X85428641Y-93933119D01*
X85428643Y-93933124D01*
X85501707Y-94051578D01*
X85520147Y-94118970D01*
X85499225Y-94185634D01*
X85445583Y-94230404D01*
X85396168Y-94240675D01*
X84266409Y-94240675D01*
X84199370Y-94220990D01*
X84153615Y-94168186D01*
X84143671Y-94099028D01*
X84172696Y-94035472D01*
X84191484Y-94017871D01*
X84205922Y-94006922D01*
X84219513Y-93988999D01*
X84297361Y-93886342D01*
X84352877Y-93745564D01*
X84363500Y-93657102D01*
X84363500Y-92851819D01*
X84383185Y-92784781D01*
X84399819Y-92764139D01*
X84963139Y-92200819D01*
X85024462Y-92167334D01*
X85050820Y-92164500D01*
X85239000Y-92164500D01*
X85306039Y-92184185D01*
X85351794Y-92236989D01*
X85363000Y-92288500D01*
X85363000Y-92714000D01*
X87687999Y-92714000D01*
X87687999Y-92288500D01*
X87707684Y-92221461D01*
X87760488Y-92175706D01*
X87811999Y-92164500D01*
X88937142Y-92164500D01*
X89004181Y-92184185D01*
X89049936Y-92236989D01*
X89059880Y-92306147D01*
X89053718Y-92330283D01*
X89053401Y-92331627D01*
X89047000Y-92391155D01*
X89047000Y-92714000D01*
X90017440Y-92714000D01*
X89978722Y-92756059D01*
X89928449Y-92870670D01*
X89918114Y-92995395D01*
X89948837Y-93116719D01*
X90012394Y-93214000D01*
X89047000Y-93214000D01*
X89047000Y-93536844D01*
X89053401Y-93596372D01*
X89053403Y-93596379D01*
X89103645Y-93731086D01*
X89103649Y-93731093D01*
X89189809Y-93846187D01*
X89189812Y-93846190D01*
X89304906Y-93932350D01*
X89304913Y-93932354D01*
X89439620Y-93982596D01*
X89439627Y-93982598D01*
X89499155Y-93988999D01*
X89499172Y-93989000D01*
X90047000Y-93989000D01*
X90047000Y-93244617D01*
X90116052Y-93298363D01*
X90234424Y-93339000D01*
X90328073Y-93339000D01*
X90420446Y-93323586D01*
X90530514Y-93264019D01*
X90547000Y-93246110D01*
X90547000Y-93989000D01*
X91094828Y-93989000D01*
X91094844Y-93988999D01*
X91154372Y-93982598D01*
X91154379Y-93982596D01*
X91289086Y-93932354D01*
X91289093Y-93932350D01*
X91404187Y-93846190D01*
X91404190Y-93846187D01*
X91490350Y-93731093D01*
X91490354Y-93731086D01*
X91540596Y-93596379D01*
X91540598Y-93596372D01*
X91546999Y-93536844D01*
X91547000Y-93536827D01*
X91547000Y-93214000D01*
X90576560Y-93214000D01*
X90615278Y-93171941D01*
X90665551Y-93057330D01*
X90675886Y-92932605D01*
X90645163Y-92811281D01*
X90581606Y-92714000D01*
X91547000Y-92714000D01*
X91547000Y-92391172D01*
X91546999Y-92391155D01*
X91540598Y-92331627D01*
X91540596Y-92331620D01*
X91490354Y-92196913D01*
X91490350Y-92196906D01*
X91404191Y-92081814D01*
X91404184Y-92081806D01*
X91365986Y-92053212D01*
X91324114Y-91997279D01*
X91319130Y-91927587D01*
X91320820Y-91920756D01*
X91322097Y-91916156D01*
X91322101Y-91916147D01*
X91351150Y-91738955D01*
X91341429Y-91559661D01*
X91341428Y-91559656D01*
X91293394Y-91386651D01*
X91293391Y-91386645D01*
X91209285Y-91228006D01*
X91135657Y-91141325D01*
X91107259Y-91077487D01*
X91117883Y-91008430D01*
X91144892Y-90971024D01*
X91154875Y-90961569D01*
X91160067Y-90953911D01*
X91213980Y-90909472D01*
X91262699Y-90899500D01*
X92461679Y-90899500D01*
X92528718Y-90919185D01*
X92549360Y-90935819D01*
X92920181Y-91306639D01*
X92953666Y-91367962D01*
X92956500Y-91394320D01*
X92956500Y-92715856D01*
X92956502Y-92715882D01*
X92959413Y-92740987D01*
X92959415Y-92740991D01*
X93004793Y-92843764D01*
X93004794Y-92843765D01*
X93084235Y-92923206D01*
X93187009Y-92968585D01*
X93212135Y-92971500D01*
X94533678Y-92971499D01*
X94600717Y-92991184D01*
X94621359Y-93007818D01*
X95385192Y-93771651D01*
X95401825Y-93792291D01*
X95403945Y-93795589D01*
X95441117Y-93827798D01*
X95444333Y-93830792D01*
X95454820Y-93841279D01*
X95454827Y-93841284D01*
X95454828Y-93841285D01*
X95466672Y-93850151D01*
X95470119Y-93852928D01*
X95507280Y-93885128D01*
X95507282Y-93885130D01*
X95510844Y-93886756D01*
X95533634Y-93900278D01*
X95536774Y-93902629D01*
X95582869Y-93919820D01*
X95586904Y-93921491D01*
X95631658Y-93941931D01*
X95635526Y-93942487D01*
X95661220Y-93949044D01*
X95664886Y-93950412D01*
X95713941Y-93953920D01*
X95718319Y-93954390D01*
X95732989Y-93956500D01*
X95747788Y-93956500D01*
X95752210Y-93956657D01*
X95801271Y-93960167D01*
X95805101Y-93959333D01*
X95831458Y-93956500D01*
X100914196Y-93956500D01*
X100981235Y-93976185D01*
X101026990Y-94028989D01*
X101029550Y-94035010D01*
X101046637Y-94078339D01*
X101046638Y-94078341D01*
X101138077Y-94198922D01*
X101258656Y-94290360D01*
X101258657Y-94290360D01*
X101258658Y-94290361D01*
X101399436Y-94345877D01*
X101487898Y-94356500D01*
X101487903Y-94356500D01*
X102474097Y-94356500D01*
X102474102Y-94356500D01*
X102562564Y-94345877D01*
X102703342Y-94290361D01*
X102776705Y-94234727D01*
X102842015Y-94209904D01*
X102910379Y-94224331D01*
X102957168Y-94268433D01*
X102970682Y-94290343D01*
X103094654Y-94414315D01*
X103243875Y-94506356D01*
X103243880Y-94506358D01*
X103410302Y-94561505D01*
X103410309Y-94561506D01*
X103513019Y-94571999D01*
X103762999Y-94571999D01*
X103763000Y-94571998D01*
X103763000Y-93722000D01*
X104263000Y-93722000D01*
X104263000Y-94571999D01*
X104512972Y-94571999D01*
X104512986Y-94571998D01*
X104615697Y-94561505D01*
X104782119Y-94506358D01*
X104782124Y-94506356D01*
X104931345Y-94414315D01*
X105055315Y-94290345D01*
X105090069Y-94234000D01*
X109855000Y-94234000D01*
X109855000Y-99695000D01*
X115189000Y-99695000D01*
X115189000Y-94234000D01*
X109855000Y-94234000D01*
X105090069Y-94234000D01*
X105147356Y-94141124D01*
X105147358Y-94141119D01*
X105202505Y-93974697D01*
X105202506Y-93974690D01*
X105212999Y-93871986D01*
X105213000Y-93871973D01*
X105213000Y-93722000D01*
X104263000Y-93722000D01*
X103763000Y-93722000D01*
X103763000Y-93346000D01*
X103782685Y-93278961D01*
X103835489Y-93233206D01*
X103887000Y-93222000D01*
X105212999Y-93222000D01*
X105212999Y-93072028D01*
X105212998Y-93072013D01*
X105202505Y-92969302D01*
X105147358Y-92802880D01*
X105147356Y-92802875D01*
X105055315Y-92653654D01*
X104931344Y-92529683D01*
X104931340Y-92529680D01*
X104814875Y-92457843D01*
X104768150Y-92405895D01*
X104756929Y-92336933D01*
X104784772Y-92272851D01*
X104805042Y-92253505D01*
X104855922Y-92214922D01*
X104947361Y-92094342D01*
X105002877Y-91953564D01*
X105013500Y-91865102D01*
X105013500Y-91078898D01*
X105002877Y-90990436D01*
X104947361Y-90849658D01*
X104947360Y-90849657D01*
X104947360Y-90849656D01*
X104855922Y-90729077D01*
X104735341Y-90637638D01*
X104728718Y-90635026D01*
X104673575Y-90592118D01*
X104650384Y-90526209D01*
X104666508Y-90458226D01*
X104699285Y-90420871D01*
X104755922Y-90377922D01*
X104847361Y-90257342D01*
X104902877Y-90116564D01*
X104913500Y-90028102D01*
X104913500Y-89041898D01*
X104902877Y-88953436D01*
X104847361Y-88812658D01*
X104847360Y-88812657D01*
X104847360Y-88812656D01*
X104755922Y-88692077D01*
X104654477Y-88615149D01*
X104612953Y-88558956D01*
X104608402Y-88489235D01*
X104642267Y-88428121D01*
X104654474Y-88417544D01*
X104712314Y-88373683D01*
X104748921Y-88345923D01*
X104770050Y-88318061D01*
X104840361Y-88225342D01*
X104895877Y-88084564D01*
X104906500Y-87996102D01*
X104906500Y-87009898D01*
X104895877Y-86921436D01*
X104840361Y-86780658D01*
X104840360Y-86780657D01*
X104840360Y-86780656D01*
X104748922Y-86660077D01*
X104628343Y-86568639D01*
X104487561Y-86513122D01*
X104441926Y-86507642D01*
X104399102Y-86502500D01*
X103662898Y-86502500D01*
X103623853Y-86507188D01*
X103574438Y-86513122D01*
X103433656Y-86568639D01*
X103313077Y-86660077D01*
X103221639Y-86780656D01*
X103166122Y-86921438D01*
X103160188Y-86970853D01*
X103155500Y-87009898D01*
X103155500Y-87996102D01*
X103160426Y-88037123D01*
X103166122Y-88084561D01*
X103166122Y-88084563D01*
X103166123Y-88084564D01*
X103170436Y-88095500D01*
X103221639Y-88225343D01*
X103313077Y-88345922D01*
X103389522Y-88403892D01*
X103431046Y-88460085D01*
X103435597Y-88529806D01*
X103401732Y-88590920D01*
X103389522Y-88601500D01*
X103270077Y-88692078D01*
X103231497Y-88742953D01*
X103175305Y-88784476D01*
X103105583Y-88789027D01*
X103044470Y-88755162D01*
X103027156Y-88733124D01*
X102955319Y-88616659D01*
X102955316Y-88616655D01*
X102831344Y-88492683D01*
X102831340Y-88492680D01*
X102781500Y-88461938D01*
X102734775Y-88409990D01*
X102723554Y-88341027D01*
X102747792Y-88281476D01*
X102790361Y-88225342D01*
X102845877Y-88084564D01*
X102856500Y-87996102D01*
X102856500Y-87009898D01*
X102845877Y-86921436D01*
X102790361Y-86780658D01*
X102790360Y-86780657D01*
X102790360Y-86780656D01*
X102698922Y-86660077D01*
X102578343Y-86568639D01*
X102437561Y-86513122D01*
X102391926Y-86507642D01*
X102349102Y-86502500D01*
X101612898Y-86502500D01*
X101573853Y-86507188D01*
X101524438Y-86513122D01*
X101383656Y-86568639D01*
X101263077Y-86660077D01*
X101171639Y-86780656D01*
X101116122Y-86921438D01*
X101110188Y-86970853D01*
X101105500Y-87009898D01*
X101105499Y-87009903D01*
X101105500Y-87009903D01*
X101105500Y-87030500D01*
X101085815Y-87097539D01*
X101033011Y-87143294D01*
X100981500Y-87154500D01*
X98251453Y-87154500D01*
X98225101Y-87151667D01*
X98221270Y-87150834D01*
X98221267Y-87150834D01*
X98184641Y-87153453D01*
X98172223Y-87154342D01*
X98167801Y-87154500D01*
X98152989Y-87154500D01*
X98138329Y-87156607D01*
X98133932Y-87157080D01*
X98084885Y-87160589D01*
X98084882Y-87160590D01*
X98081214Y-87161958D01*
X98055538Y-87168511D01*
X98051660Y-87169068D01*
X98051657Y-87169069D01*
X98006930Y-87189494D01*
X98002843Y-87191187D01*
X97956778Y-87208369D01*
X97956770Y-87208374D01*
X97953635Y-87210721D01*
X97930852Y-87224239D01*
X97927281Y-87225870D01*
X97927280Y-87225870D01*
X97897730Y-87251475D01*
X97890107Y-87258079D01*
X97886672Y-87260848D01*
X97874824Y-87269718D01*
X97864344Y-87280197D01*
X97861115Y-87283202D01*
X97847206Y-87295254D01*
X97823944Y-87315411D01*
X97823942Y-87315413D01*
X97821821Y-87318714D01*
X97805191Y-87339349D01*
X97154360Y-87990181D01*
X97093037Y-88023666D01*
X97066679Y-88026500D01*
X96453108Y-88026500D01*
X96386069Y-88006815D01*
X96340314Y-87954011D01*
X96330370Y-87884853D01*
X96359395Y-87821297D01*
X96369570Y-87810863D01*
X96447762Y-87739581D01*
X96447764Y-87739579D01*
X96570673Y-87576821D01*
X96661582Y-87394250D01*
X96717397Y-87198083D01*
X96736215Y-86995000D01*
X96717397Y-86791917D01*
X96661582Y-86595750D01*
X96648082Y-86568639D01*
X96615149Y-86502500D01*
X96570673Y-86413179D01*
X96488774Y-86304727D01*
X96464082Y-86239365D01*
X96478647Y-86171031D01*
X96527845Y-86121418D01*
X96587728Y-86106000D01*
X115318500Y-86106000D01*
X115385539Y-86125685D01*
G37*
%TD.AperFunction*%
%TA.AperFunction,Conductor*%
G36*
X101107024Y-88125185D02*
G01*
X101152779Y-88177989D01*
X101155334Y-88183997D01*
X101156964Y-88188128D01*
X101171639Y-88225343D01*
X101234601Y-88308371D01*
X101259424Y-88373683D01*
X101244996Y-88442047D01*
X101200899Y-88488831D01*
X101194661Y-88492678D01*
X101194655Y-88492683D01*
X101070684Y-88616654D01*
X100978643Y-88765875D01*
X100978641Y-88765880D01*
X100923494Y-88932302D01*
X100923493Y-88932309D01*
X100913000Y-89035013D01*
X100913000Y-89285000D01*
X102139000Y-89285000D01*
X102206039Y-89304685D01*
X102251794Y-89357489D01*
X102263000Y-89409000D01*
X102263000Y-89661000D01*
X102243315Y-89728039D01*
X102190511Y-89773794D01*
X102139000Y-89785000D01*
X100913001Y-89785000D01*
X100913001Y-90034986D01*
X100923494Y-90137697D01*
X100978641Y-90304119D01*
X100978643Y-90304124D01*
X101070684Y-90453345D01*
X101146908Y-90529569D01*
X101180393Y-90590892D01*
X101175409Y-90660584D01*
X101142215Y-90705220D01*
X101144075Y-90707080D01*
X101138079Y-90713075D01*
X101046639Y-90833656D01*
X100991122Y-90974438D01*
X100989201Y-90990438D01*
X100980500Y-91062898D01*
X100980500Y-91799102D01*
X100980909Y-91802505D01*
X100991122Y-91887561D01*
X100991122Y-91887563D01*
X100991123Y-91887564D01*
X101000260Y-91910734D01*
X101046639Y-92028343D01*
X101138077Y-92148922D01*
X101258656Y-92240360D01*
X101258657Y-92240360D01*
X101258658Y-92240361D01*
X101399436Y-92295877D01*
X101487898Y-92306500D01*
X101487903Y-92306500D01*
X102474097Y-92306500D01*
X102474102Y-92306500D01*
X102562564Y-92295877D01*
X102703342Y-92240361D01*
X102823922Y-92148922D01*
X102873577Y-92083441D01*
X102929769Y-92041919D01*
X102999490Y-92037367D01*
X103060605Y-92071231D01*
X103073139Y-92087867D01*
X103073514Y-92087584D01*
X103170077Y-92214922D01*
X103220952Y-92253501D01*
X103262475Y-92309693D01*
X103267027Y-92379414D01*
X103233163Y-92440528D01*
X103211125Y-92457843D01*
X103094656Y-92529682D01*
X102970682Y-92653656D01*
X102949604Y-92687830D01*
X102897656Y-92734554D01*
X102828693Y-92745775D01*
X102769141Y-92721536D01*
X102703342Y-92671639D01*
X102703341Y-92671638D01*
X102562561Y-92616122D01*
X102516926Y-92610642D01*
X102474102Y-92605500D01*
X101487898Y-92605500D01*
X101448853Y-92610188D01*
X101399438Y-92616122D01*
X101258656Y-92671639D01*
X101138077Y-92763077D01*
X101046638Y-92883658D01*
X101046637Y-92883660D01*
X101029550Y-92926990D01*
X100986644Y-92982134D01*
X100920736Y-93005327D01*
X100914196Y-93005500D01*
X100211050Y-93005500D01*
X100144011Y-92985815D01*
X100098256Y-92933011D01*
X100088312Y-92863853D01*
X100117337Y-92800297D01*
X100123369Y-92793819D01*
X100225105Y-92692082D01*
X100360600Y-92498578D01*
X100460429Y-92284492D01*
X100460432Y-92284486D01*
X100517636Y-92071000D01*
X99620686Y-92071000D01*
X99646493Y-92030844D01*
X99687000Y-91892889D01*
X99687000Y-91749111D01*
X99646493Y-91611156D01*
X99620686Y-91571000D01*
X100517636Y-91571000D01*
X100517635Y-91570999D01*
X100460432Y-91357513D01*
X100460429Y-91357507D01*
X100360600Y-91143422D01*
X100360599Y-91143420D01*
X100225113Y-90949926D01*
X100225108Y-90949920D01*
X100058082Y-90782894D01*
X99864578Y-90647399D01*
X99650492Y-90547570D01*
X99650486Y-90547567D01*
X99437000Y-90490364D01*
X99437000Y-91385498D01*
X99329315Y-91336320D01*
X99222763Y-91321000D01*
X99151237Y-91321000D01*
X99044685Y-91336320D01*
X98937000Y-91385498D01*
X98937000Y-90490364D01*
X98936999Y-90490364D01*
X98723513Y-90547567D01*
X98723507Y-90547570D01*
X98509422Y-90647399D01*
X98509420Y-90647400D01*
X98315926Y-90782886D01*
X98315920Y-90782891D01*
X98148891Y-90949920D01*
X98148886Y-90949926D01*
X98013400Y-91143420D01*
X98013399Y-91143422D01*
X97919705Y-91344348D01*
X97873532Y-91396787D01*
X97806339Y-91415939D01*
X97739457Y-91395723D01*
X97696324Y-91347216D01*
X97629366Y-91212745D01*
X97604778Y-91180186D01*
X97500872Y-91042593D01*
X97426110Y-90974438D01*
X97343302Y-90898948D01*
X97324219Y-90887132D01*
X97277586Y-90835106D01*
X97265499Y-90781711D01*
X97265499Y-90103662D01*
X97285184Y-90036624D01*
X97337988Y-89990869D01*
X97344009Y-89988309D01*
X97412339Y-89961362D01*
X97412337Y-89961362D01*
X97412342Y-89961361D01*
X97532922Y-89869922D01*
X97571502Y-89819046D01*
X97627692Y-89777524D01*
X97697413Y-89772971D01*
X97758528Y-89806836D01*
X97775843Y-89828875D01*
X97847680Y-89945340D01*
X97847683Y-89945344D01*
X97971654Y-90069315D01*
X98120875Y-90161356D01*
X98120880Y-90161358D01*
X98287302Y-90216505D01*
X98287309Y-90216506D01*
X98390019Y-90226999D01*
X98539999Y-90226999D01*
X98540000Y-90226998D01*
X98540000Y-89277000D01*
X99040000Y-89277000D01*
X99040000Y-90226999D01*
X99189972Y-90226999D01*
X99189986Y-90226998D01*
X99292697Y-90216505D01*
X99459119Y-90161358D01*
X99459124Y-90161356D01*
X99608345Y-90069315D01*
X99732315Y-89945345D01*
X99824356Y-89796124D01*
X99824358Y-89796119D01*
X99879505Y-89629697D01*
X99879506Y-89629690D01*
X99889999Y-89526986D01*
X99890000Y-89526973D01*
X99890000Y-89277000D01*
X99040000Y-89277000D01*
X98540000Y-89277000D01*
X98540000Y-88901000D01*
X98559685Y-88833961D01*
X98612489Y-88788206D01*
X98664000Y-88777000D01*
X99889999Y-88777000D01*
X99889999Y-88527028D01*
X99889998Y-88527013D01*
X99879505Y-88424302D01*
X99827879Y-88268504D01*
X99825477Y-88198676D01*
X99861209Y-88138634D01*
X99923729Y-88107441D01*
X99945585Y-88105500D01*
X101039985Y-88105500D01*
X101107024Y-88125185D01*
G37*
%TD.AperFunction*%
%TA.AperFunction,Conductor*%
G36*
X92201311Y-86125685D02*
G01*
X92247066Y-86178489D01*
X92257010Y-86247647D01*
X92233226Y-86304727D01*
X92151327Y-86413178D01*
X92060422Y-86595739D01*
X92060417Y-86595752D01*
X92004602Y-86791917D01*
X91985785Y-86994999D01*
X91985785Y-86995000D01*
X92004602Y-87198082D01*
X92060417Y-87394247D01*
X92060422Y-87394260D01*
X92151327Y-87576821D01*
X92274237Y-87739581D01*
X92424958Y-87876980D01*
X92424960Y-87876982D01*
X92465182Y-87901886D01*
X92598363Y-87984348D01*
X92788544Y-88058024D01*
X92989024Y-88095500D01*
X92989026Y-88095500D01*
X93192974Y-88095500D01*
X93192976Y-88095500D01*
X93393456Y-88058024D01*
X93393459Y-88058022D01*
X93399091Y-88056970D01*
X93399380Y-88058516D01*
X93461806Y-88059029D01*
X93513575Y-88090034D01*
X94741192Y-89317651D01*
X94757825Y-89338291D01*
X94759945Y-89341589D01*
X94797117Y-89373798D01*
X94800333Y-89376792D01*
X94810820Y-89387279D01*
X94821381Y-89395185D01*
X94822672Y-89396151D01*
X94826119Y-89398928D01*
X94863280Y-89431128D01*
X94863282Y-89431130D01*
X94866844Y-89432756D01*
X94889634Y-89446278D01*
X94892774Y-89448629D01*
X94938866Y-89465819D01*
X94942924Y-89467501D01*
X94987658Y-89487931D01*
X94991530Y-89488487D01*
X95017221Y-89495044D01*
X95020885Y-89496411D01*
X95069944Y-89499920D01*
X95074300Y-89500387D01*
X95088989Y-89502500D01*
X95103791Y-89502500D01*
X95108215Y-89502657D01*
X95157271Y-89506167D01*
X95161101Y-89505333D01*
X95187458Y-89502500D01*
X95777386Y-89502500D01*
X95844425Y-89522185D01*
X95890180Y-89574989D01*
X95897495Y-89601023D01*
X95898173Y-89600852D01*
X95900120Y-89608556D01*
X95900122Y-89608563D01*
X95900123Y-89608564D01*
X95903453Y-89617009D01*
X95955639Y-89749343D01*
X96047077Y-89869922D01*
X96167657Y-89961361D01*
X96200551Y-89974332D01*
X96235990Y-89988307D01*
X96291134Y-90031213D01*
X96314327Y-90097120D01*
X96314500Y-90103662D01*
X96314500Y-90631051D01*
X96294815Y-90698090D01*
X96242011Y-90743845D01*
X96235294Y-90746677D01*
X96131992Y-90786696D01*
X96131982Y-90786701D01*
X95950699Y-90898947D01*
X95793127Y-91042593D01*
X95664632Y-91212746D01*
X95569596Y-91403605D01*
X95569596Y-91403607D01*
X95511244Y-91608689D01*
X95504970Y-91676398D01*
X95479184Y-91741335D01*
X95422384Y-91782023D01*
X95352603Y-91785543D01*
X95291996Y-91750778D01*
X95259806Y-91688765D01*
X95257499Y-91664957D01*
X95257499Y-90926143D01*
X95257499Y-90926136D01*
X95256693Y-90919185D01*
X95254586Y-90901012D01*
X95254585Y-90901010D01*
X95254585Y-90901009D01*
X95209206Y-90798235D01*
X95129765Y-90718794D01*
X95123424Y-90715994D01*
X95026992Y-90673415D01*
X95001868Y-90670500D01*
X95001865Y-90670500D01*
X93680321Y-90670500D01*
X93613282Y-90650815D01*
X93592640Y-90634181D01*
X93091808Y-90133349D01*
X93075172Y-90112704D01*
X93073058Y-90109415D01*
X93073057Y-90109413D01*
X93058870Y-90097120D01*
X93035882Y-90077201D01*
X93032663Y-90074204D01*
X93022180Y-90063721D01*
X93010315Y-90054839D01*
X93006890Y-90052079D01*
X92969718Y-90019870D01*
X92966152Y-90018241D01*
X92943362Y-90004718D01*
X92940227Y-90002371D01*
X92894149Y-89985185D01*
X92890078Y-89983499D01*
X92845342Y-89963069D01*
X92845341Y-89963068D01*
X92845337Y-89963067D01*
X92841455Y-89962509D01*
X92815791Y-89955959D01*
X92812122Y-89954591D01*
X92812118Y-89954590D01*
X92812115Y-89954589D01*
X92804200Y-89954022D01*
X92763071Y-89951079D01*
X92758680Y-89950607D01*
X92744019Y-89948501D01*
X92744016Y-89948500D01*
X92744011Y-89948500D01*
X92744005Y-89948500D01*
X92729209Y-89948500D01*
X92724784Y-89948342D01*
X92675731Y-89944833D01*
X92675728Y-89944833D01*
X92673841Y-89945243D01*
X92671898Y-89945666D01*
X92645542Y-89948500D01*
X91258579Y-89948500D01*
X91191540Y-89928815D01*
X91164071Y-89904776D01*
X91093044Y-89821157D01*
X91074205Y-89806836D01*
X90950099Y-89712493D01*
X90787138Y-89637099D01*
X90787134Y-89637097D01*
X90611779Y-89598500D01*
X90101156Y-89598500D01*
X90034117Y-89578815D01*
X89988362Y-89526011D01*
X89978418Y-89456853D01*
X90007443Y-89393297D01*
X90049641Y-89361707D01*
X90051339Y-89360931D01*
X90051342Y-89360931D01*
X90096081Y-89340498D01*
X90100135Y-89338818D01*
X90146226Y-89321629D01*
X90149358Y-89319283D01*
X90172158Y-89305756D01*
X90173731Y-89305037D01*
X90175718Y-89304130D01*
X90212871Y-89271935D01*
X90216321Y-89269156D01*
X90218658Y-89267406D01*
X90228180Y-89260279D01*
X90238648Y-89249809D01*
X90241890Y-89246791D01*
X90279055Y-89214589D01*
X90281171Y-89211295D01*
X90297803Y-89190654D01*
X90841654Y-88646803D01*
X90862295Y-88630171D01*
X90865589Y-88628055D01*
X90897796Y-88590883D01*
X90900811Y-88587647D01*
X90903047Y-88585411D01*
X90911279Y-88577180D01*
X90920156Y-88565321D01*
X90922936Y-88561871D01*
X90931704Y-88551752D01*
X90955130Y-88524718D01*
X90956756Y-88521158D01*
X90970283Y-88498358D01*
X90972629Y-88495226D01*
X90985044Y-88461938D01*
X90989814Y-88449149D01*
X90991509Y-88445056D01*
X91011931Y-88400342D01*
X91012487Y-88396473D01*
X91019045Y-88370776D01*
X91020412Y-88367114D01*
X91023922Y-88318030D01*
X91024388Y-88313693D01*
X91026500Y-88299011D01*
X91026500Y-88284212D01*
X91026658Y-88279787D01*
X91027483Y-88268260D01*
X91030167Y-88230729D01*
X91029334Y-88226899D01*
X91026500Y-88200542D01*
X91026500Y-88064026D01*
X91046185Y-87996987D01*
X91085223Y-87958599D01*
X91217039Y-87876982D01*
X91217038Y-87876982D01*
X91217041Y-87876981D01*
X91367764Y-87739579D01*
X91490673Y-87576821D01*
X91581582Y-87394250D01*
X91637397Y-87198083D01*
X91656215Y-86995000D01*
X91637397Y-86791917D01*
X91581582Y-86595750D01*
X91568082Y-86568639D01*
X91535149Y-86502500D01*
X91490673Y-86413179D01*
X91408774Y-86304727D01*
X91384082Y-86239365D01*
X91398647Y-86171031D01*
X91447845Y-86121418D01*
X91507728Y-86106000D01*
X92134272Y-86106000D01*
X92201311Y-86125685D01*
G37*
%TD.AperFunction*%
%TA.AperFunction,Conductor*%
G36*
X89909178Y-89395185D02*
G01*
X89954933Y-89447989D01*
X89964877Y-89517147D01*
X89935852Y-89580703D01*
X89881732Y-89617009D01*
X89723338Y-89670378D01*
X89723336Y-89670378D01*
X89723336Y-89670379D01*
X89569482Y-89762950D01*
X89439123Y-89886431D01*
X89338358Y-90035051D01*
X89338357Y-90035053D01*
X89271900Y-90201847D01*
X89271899Y-90201850D01*
X89267776Y-90226999D01*
X89249572Y-90338034D01*
X89219303Y-90401004D01*
X89214888Y-90405652D01*
X88993360Y-90627181D01*
X88932037Y-90660666D01*
X88905679Y-90663500D01*
X86479500Y-90663500D01*
X86412461Y-90643815D01*
X86366706Y-90591011D01*
X86355500Y-90539500D01*
X86355500Y-90257342D01*
X86355500Y-89930898D01*
X86344877Y-89842436D01*
X86289361Y-89701658D01*
X86197922Y-89581078D01*
X86197920Y-89581076D01*
X86192877Y-89574426D01*
X86168054Y-89509114D01*
X86182482Y-89440750D01*
X86231579Y-89391039D01*
X86291681Y-89375500D01*
X89842139Y-89375500D01*
X89909178Y-89395185D01*
G37*
%TD.AperFunction*%
%TA.AperFunction,Conductor*%
G36*
X89661311Y-86125685D02*
G01*
X89707066Y-86178489D01*
X89717010Y-86247647D01*
X89693226Y-86304727D01*
X89611327Y-86413178D01*
X89520422Y-86595739D01*
X89520417Y-86595752D01*
X89464602Y-86791917D01*
X89445785Y-86994999D01*
X89445785Y-86995000D01*
X89464602Y-87198082D01*
X89520417Y-87394247D01*
X89520422Y-87394260D01*
X89611327Y-87576821D01*
X89734237Y-87739581D01*
X89884958Y-87876980D01*
X89884960Y-87876982D01*
X89987535Y-87940493D01*
X90034171Y-87992520D01*
X90045275Y-88061502D01*
X90017322Y-88125536D01*
X90009939Y-88133601D01*
X89755360Y-88388181D01*
X89694037Y-88421666D01*
X89667679Y-88424500D01*
X85043453Y-88424500D01*
X85017101Y-88421667D01*
X85013270Y-88420834D01*
X85013267Y-88420834D01*
X84976641Y-88423453D01*
X84964223Y-88424342D01*
X84959801Y-88424500D01*
X84944989Y-88424500D01*
X84930329Y-88426607D01*
X84925932Y-88427080D01*
X84876885Y-88430589D01*
X84876882Y-88430590D01*
X84873214Y-88431958D01*
X84847538Y-88438511D01*
X84843656Y-88439069D01*
X84798924Y-88459497D01*
X84794842Y-88461188D01*
X84792833Y-88461938D01*
X84748774Y-88478371D01*
X84748771Y-88478372D01*
X84745633Y-88480722D01*
X84722850Y-88494240D01*
X84719282Y-88495869D01*
X84682112Y-88528075D01*
X84678673Y-88530847D01*
X84666815Y-88539726D01*
X84656342Y-88550197D01*
X84653106Y-88553210D01*
X84615942Y-88585413D01*
X84613821Y-88588714D01*
X84597191Y-88609349D01*
X83819360Y-89387181D01*
X83758037Y-89420666D01*
X83731679Y-89423500D01*
X83061898Y-89423500D01*
X83022853Y-89428188D01*
X82973438Y-89434122D01*
X82832656Y-89489639D01*
X82712077Y-89581077D01*
X82646304Y-89667813D01*
X82590111Y-89709337D01*
X82520390Y-89713888D01*
X82459276Y-89680023D01*
X82426172Y-89618493D01*
X82423500Y-89592888D01*
X82423500Y-86230000D01*
X82443185Y-86162961D01*
X82495989Y-86117206D01*
X82547500Y-86106000D01*
X89594272Y-86106000D01*
X89661311Y-86125685D01*
G37*
%TD.AperFunction*%
%TD*%
M02*
