%TF.GenerationSoftware,KiCad,Pcbnew,7.0.6-1.fc38*%
%TF.CreationDate,2023-08-14T17:52:24+02:00*%
%TF.ProjectId,220V_OPTO_SWITCH,32323056-5f4f-4505-944f-5f5357495443,rev?*%
%TF.SameCoordinates,Original*%
%TF.FileFunction,Legend,Top*%
%TF.FilePolarity,Positive*%
%FSLAX46Y46*%
G04 Gerber Fmt 4.6, Leading zero omitted, Abs format (unit mm)*
G04 Created by KiCad (PCBNEW 7.0.6-1.fc38) date 2023-08-14 17:52:24*
%MOMM*%
%LPD*%
G01*
G04 APERTURE LIST*
%ADD10C,0.150000*%
%ADD11C,0.120000*%
G04 APERTURE END LIST*
D10*
X115122000Y-96968000D02*
G75*
G03*
X115122000Y-96968000I-2600000J0D01*
G01*
X115122000Y-76962000D02*
G75*
G03*
X115122000Y-76962000I-2600000J0D01*
G01*
X88004000Y-96968000D02*
G75*
G03*
X88004000Y-96968000I-2600000J0D01*
G01*
X88004000Y-76962000D02*
G75*
G03*
X88004000Y-76962000I-2600000J0D01*
G01*
X97415819Y-83946904D02*
X98225342Y-83946904D01*
X98225342Y-83946904D02*
X98320580Y-83899285D01*
X98320580Y-83899285D02*
X98368200Y-83851666D01*
X98368200Y-83851666D02*
X98415819Y-83756428D01*
X98415819Y-83756428D02*
X98415819Y-83565952D01*
X98415819Y-83565952D02*
X98368200Y-83470714D01*
X98368200Y-83470714D02*
X98320580Y-83423095D01*
X98320580Y-83423095D02*
X98225342Y-83375476D01*
X98225342Y-83375476D02*
X97415819Y-83375476D01*
X98415819Y-82375476D02*
X98415819Y-82946904D01*
X98415819Y-82661190D02*
X97415819Y-82661190D01*
X97415819Y-82661190D02*
X97558676Y-82756428D01*
X97558676Y-82756428D02*
X97653914Y-82851666D01*
X97653914Y-82851666D02*
X97701533Y-82946904D01*
X102846333Y-91639819D02*
X102513000Y-91163628D01*
X102274905Y-91639819D02*
X102274905Y-90639819D01*
X102274905Y-90639819D02*
X102655857Y-90639819D01*
X102655857Y-90639819D02*
X102751095Y-90687438D01*
X102751095Y-90687438D02*
X102798714Y-90735057D01*
X102798714Y-90735057D02*
X102846333Y-90830295D01*
X102846333Y-90830295D02*
X102846333Y-90973152D01*
X102846333Y-90973152D02*
X102798714Y-91068390D01*
X102798714Y-91068390D02*
X102751095Y-91116009D01*
X102751095Y-91116009D02*
X102655857Y-91163628D01*
X102655857Y-91163628D02*
X102274905Y-91163628D01*
X103751095Y-90639819D02*
X103274905Y-90639819D01*
X103274905Y-90639819D02*
X103227286Y-91116009D01*
X103227286Y-91116009D02*
X103274905Y-91068390D01*
X103274905Y-91068390D02*
X103370143Y-91020771D01*
X103370143Y-91020771D02*
X103608238Y-91020771D01*
X103608238Y-91020771D02*
X103703476Y-91068390D01*
X103703476Y-91068390D02*
X103751095Y-91116009D01*
X103751095Y-91116009D02*
X103798714Y-91211247D01*
X103798714Y-91211247D02*
X103798714Y-91449342D01*
X103798714Y-91449342D02*
X103751095Y-91544580D01*
X103751095Y-91544580D02*
X103703476Y-91592200D01*
X103703476Y-91592200D02*
X103608238Y-91639819D01*
X103608238Y-91639819D02*
X103370143Y-91639819D01*
X103370143Y-91639819D02*
X103274905Y-91592200D01*
X103274905Y-91592200D02*
X103227286Y-91544580D01*
X106117819Y-92638666D02*
X105641628Y-92971999D01*
X106117819Y-93210094D02*
X105117819Y-93210094D01*
X105117819Y-93210094D02*
X105117819Y-92829142D01*
X105117819Y-92829142D02*
X105165438Y-92733904D01*
X105165438Y-92733904D02*
X105213057Y-92686285D01*
X105213057Y-92686285D02*
X105308295Y-92638666D01*
X105308295Y-92638666D02*
X105451152Y-92638666D01*
X105451152Y-92638666D02*
X105546390Y-92686285D01*
X105546390Y-92686285D02*
X105594009Y-92733904D01*
X105594009Y-92733904D02*
X105641628Y-92829142D01*
X105641628Y-92829142D02*
X105641628Y-93210094D01*
X105451152Y-91781523D02*
X106117819Y-91781523D01*
X105070200Y-92019618D02*
X105784485Y-92257713D01*
X105784485Y-92257713D02*
X105784485Y-91638666D01*
X84288333Y-92528819D02*
X83955000Y-92052628D01*
X83716905Y-92528819D02*
X83716905Y-91528819D01*
X83716905Y-91528819D02*
X84097857Y-91528819D01*
X84097857Y-91528819D02*
X84193095Y-91576438D01*
X84193095Y-91576438D02*
X84240714Y-91624057D01*
X84240714Y-91624057D02*
X84288333Y-91719295D01*
X84288333Y-91719295D02*
X84288333Y-91862152D01*
X84288333Y-91862152D02*
X84240714Y-91957390D01*
X84240714Y-91957390D02*
X84193095Y-92005009D01*
X84193095Y-92005009D02*
X84097857Y-92052628D01*
X84097857Y-92052628D02*
X83716905Y-92052628D01*
X84621667Y-91528819D02*
X85240714Y-91528819D01*
X85240714Y-91528819D02*
X84907381Y-91909771D01*
X84907381Y-91909771D02*
X85050238Y-91909771D01*
X85050238Y-91909771D02*
X85145476Y-91957390D01*
X85145476Y-91957390D02*
X85193095Y-92005009D01*
X85193095Y-92005009D02*
X85240714Y-92100247D01*
X85240714Y-92100247D02*
X85240714Y-92338342D01*
X85240714Y-92338342D02*
X85193095Y-92433580D01*
X85193095Y-92433580D02*
X85145476Y-92481200D01*
X85145476Y-92481200D02*
X85050238Y-92528819D01*
X85050238Y-92528819D02*
X84764524Y-92528819D01*
X84764524Y-92528819D02*
X84669286Y-92481200D01*
X84669286Y-92481200D02*
X84621667Y-92433580D01*
X97623333Y-87831819D02*
X97290000Y-87355628D01*
X97051905Y-87831819D02*
X97051905Y-86831819D01*
X97051905Y-86831819D02*
X97432857Y-86831819D01*
X97432857Y-86831819D02*
X97528095Y-86879438D01*
X97528095Y-86879438D02*
X97575714Y-86927057D01*
X97575714Y-86927057D02*
X97623333Y-87022295D01*
X97623333Y-87022295D02*
X97623333Y-87165152D01*
X97623333Y-87165152D02*
X97575714Y-87260390D01*
X97575714Y-87260390D02*
X97528095Y-87308009D01*
X97528095Y-87308009D02*
X97432857Y-87355628D01*
X97432857Y-87355628D02*
X97051905Y-87355628D01*
X98004286Y-86927057D02*
X98051905Y-86879438D01*
X98051905Y-86879438D02*
X98147143Y-86831819D01*
X98147143Y-86831819D02*
X98385238Y-86831819D01*
X98385238Y-86831819D02*
X98480476Y-86879438D01*
X98480476Y-86879438D02*
X98528095Y-86927057D01*
X98528095Y-86927057D02*
X98575714Y-87022295D01*
X98575714Y-87022295D02*
X98575714Y-87117533D01*
X98575714Y-87117533D02*
X98528095Y-87260390D01*
X98528095Y-87260390D02*
X97956667Y-87831819D01*
X97956667Y-87831819D02*
X98575714Y-87831819D01*
X97877333Y-79574819D02*
X97544000Y-79098628D01*
X97305905Y-79574819D02*
X97305905Y-78574819D01*
X97305905Y-78574819D02*
X97686857Y-78574819D01*
X97686857Y-78574819D02*
X97782095Y-78622438D01*
X97782095Y-78622438D02*
X97829714Y-78670057D01*
X97829714Y-78670057D02*
X97877333Y-78765295D01*
X97877333Y-78765295D02*
X97877333Y-78908152D01*
X97877333Y-78908152D02*
X97829714Y-79003390D01*
X97829714Y-79003390D02*
X97782095Y-79051009D01*
X97782095Y-79051009D02*
X97686857Y-79098628D01*
X97686857Y-79098628D02*
X97305905Y-79098628D01*
X98829714Y-79574819D02*
X98258286Y-79574819D01*
X98544000Y-79574819D02*
X98544000Y-78574819D01*
X98544000Y-78574819D02*
X98448762Y-78717676D01*
X98448762Y-78717676D02*
X98353524Y-78812914D01*
X98353524Y-78812914D02*
X98258286Y-78860533D01*
X87287057Y-91789238D02*
X87239438Y-91884476D01*
X87239438Y-91884476D02*
X87144200Y-91979714D01*
X87144200Y-91979714D02*
X87001342Y-92122571D01*
X87001342Y-92122571D02*
X86953723Y-92217809D01*
X86953723Y-92217809D02*
X86953723Y-92313047D01*
X87191819Y-92265428D02*
X87144200Y-92360666D01*
X87144200Y-92360666D02*
X87048961Y-92455904D01*
X87048961Y-92455904D02*
X86858485Y-92503523D01*
X86858485Y-92503523D02*
X86525152Y-92503523D01*
X86525152Y-92503523D02*
X86334676Y-92455904D01*
X86334676Y-92455904D02*
X86239438Y-92360666D01*
X86239438Y-92360666D02*
X86191819Y-92265428D01*
X86191819Y-92265428D02*
X86191819Y-92074952D01*
X86191819Y-92074952D02*
X86239438Y-91979714D01*
X86239438Y-91979714D02*
X86334676Y-91884476D01*
X86334676Y-91884476D02*
X86525152Y-91836857D01*
X86525152Y-91836857D02*
X86858485Y-91836857D01*
X86858485Y-91836857D02*
X87048961Y-91884476D01*
X87048961Y-91884476D02*
X87144200Y-91979714D01*
X87144200Y-91979714D02*
X87191819Y-92074952D01*
X87191819Y-92074952D02*
X87191819Y-92265428D01*
X87191819Y-90884476D02*
X87191819Y-91455904D01*
X87191819Y-91170190D02*
X86191819Y-91170190D01*
X86191819Y-91170190D02*
X86334676Y-91265428D01*
X86334676Y-91265428D02*
X86429914Y-91360666D01*
X86429914Y-91360666D02*
X86477533Y-91455904D01*
X98679666Y-74040819D02*
X98679666Y-74755104D01*
X98679666Y-74755104D02*
X98632047Y-74897961D01*
X98632047Y-74897961D02*
X98536809Y-74993200D01*
X98536809Y-74993200D02*
X98393952Y-75040819D01*
X98393952Y-75040819D02*
X98298714Y-75040819D01*
X99679666Y-75040819D02*
X99108238Y-75040819D01*
X99393952Y-75040819D02*
X99393952Y-74040819D01*
X99393952Y-74040819D02*
X99298714Y-74183676D01*
X99298714Y-74183676D02*
X99203476Y-74278914D01*
X99203476Y-74278914D02*
X99108238Y-74326533D01*
X102267905Y-89607819D02*
X102267905Y-88607819D01*
X102267905Y-88607819D02*
X102506000Y-88607819D01*
X102506000Y-88607819D02*
X102648857Y-88655438D01*
X102648857Y-88655438D02*
X102744095Y-88750676D01*
X102744095Y-88750676D02*
X102791714Y-88845914D01*
X102791714Y-88845914D02*
X102839333Y-89036390D01*
X102839333Y-89036390D02*
X102839333Y-89179247D01*
X102839333Y-89179247D02*
X102791714Y-89369723D01*
X102791714Y-89369723D02*
X102744095Y-89464961D01*
X102744095Y-89464961D02*
X102648857Y-89560200D01*
X102648857Y-89560200D02*
X102506000Y-89607819D01*
X102506000Y-89607819D02*
X102267905Y-89607819D01*
X103172667Y-88607819D02*
X103791714Y-88607819D01*
X103791714Y-88607819D02*
X103458381Y-88988771D01*
X103458381Y-88988771D02*
X103601238Y-88988771D01*
X103601238Y-88988771D02*
X103696476Y-89036390D01*
X103696476Y-89036390D02*
X103744095Y-89084009D01*
X103744095Y-89084009D02*
X103791714Y-89179247D01*
X103791714Y-89179247D02*
X103791714Y-89417342D01*
X103791714Y-89417342D02*
X103744095Y-89512580D01*
X103744095Y-89512580D02*
X103696476Y-89560200D01*
X103696476Y-89560200D02*
X103601238Y-89607819D01*
X103601238Y-89607819D02*
X103315524Y-89607819D01*
X103315524Y-89607819D02*
X103220286Y-89560200D01*
X103220286Y-89560200D02*
X103172667Y-89512580D01*
X104085819Y-93194094D02*
X103085819Y-93194094D01*
X103085819Y-93194094D02*
X103085819Y-92955999D01*
X103085819Y-92955999D02*
X103133438Y-92813142D01*
X103133438Y-92813142D02*
X103228676Y-92717904D01*
X103228676Y-92717904D02*
X103323914Y-92670285D01*
X103323914Y-92670285D02*
X103514390Y-92622666D01*
X103514390Y-92622666D02*
X103657247Y-92622666D01*
X103657247Y-92622666D02*
X103847723Y-92670285D01*
X103847723Y-92670285D02*
X103942961Y-92717904D01*
X103942961Y-92717904D02*
X104038200Y-92813142D01*
X104038200Y-92813142D02*
X104085819Y-92955999D01*
X104085819Y-92955999D02*
X104085819Y-93194094D01*
X103181057Y-92241713D02*
X103133438Y-92194094D01*
X103133438Y-92194094D02*
X103085819Y-92098856D01*
X103085819Y-92098856D02*
X103085819Y-91860761D01*
X103085819Y-91860761D02*
X103133438Y-91765523D01*
X103133438Y-91765523D02*
X103181057Y-91717904D01*
X103181057Y-91717904D02*
X103276295Y-91670285D01*
X103276295Y-91670285D02*
X103371533Y-91670285D01*
X103371533Y-91670285D02*
X103514390Y-91717904D01*
X103514390Y-91717904D02*
X104085819Y-92289332D01*
X104085819Y-92289332D02*
X104085819Y-91670285D01*
X102893905Y-82807819D02*
X102893905Y-81807819D01*
X102893905Y-81807819D02*
X103132000Y-81807819D01*
X103132000Y-81807819D02*
X103274857Y-81855438D01*
X103274857Y-81855438D02*
X103370095Y-81950676D01*
X103370095Y-81950676D02*
X103417714Y-82045914D01*
X103417714Y-82045914D02*
X103465333Y-82236390D01*
X103465333Y-82236390D02*
X103465333Y-82379247D01*
X103465333Y-82379247D02*
X103417714Y-82569723D01*
X103417714Y-82569723D02*
X103370095Y-82664961D01*
X103370095Y-82664961D02*
X103274857Y-82760200D01*
X103274857Y-82760200D02*
X103132000Y-82807819D01*
X103132000Y-82807819D02*
X102893905Y-82807819D01*
X104417714Y-82807819D02*
X103846286Y-82807819D01*
X104132000Y-82807819D02*
X104132000Y-81807819D01*
X104132000Y-81807819D02*
X104036762Y-81950676D01*
X104036762Y-81950676D02*
X103941524Y-82045914D01*
X103941524Y-82045914D02*
X103846286Y-82093533D01*
X108450095Y-82437819D02*
X108450095Y-81437819D01*
X109021523Y-82437819D02*
X108592952Y-81866390D01*
X109021523Y-81437819D02*
X108450095Y-82009247D01*
X84796333Y-91473580D02*
X84748714Y-91521200D01*
X84748714Y-91521200D02*
X84605857Y-91568819D01*
X84605857Y-91568819D02*
X84510619Y-91568819D01*
X84510619Y-91568819D02*
X84367762Y-91521200D01*
X84367762Y-91521200D02*
X84272524Y-91425961D01*
X84272524Y-91425961D02*
X84224905Y-91330723D01*
X84224905Y-91330723D02*
X84177286Y-91140247D01*
X84177286Y-91140247D02*
X84177286Y-90997390D01*
X84177286Y-90997390D02*
X84224905Y-90806914D01*
X84224905Y-90806914D02*
X84272524Y-90711676D01*
X84272524Y-90711676D02*
X84367762Y-90616438D01*
X84367762Y-90616438D02*
X84510619Y-90568819D01*
X84510619Y-90568819D02*
X84605857Y-90568819D01*
X84605857Y-90568819D02*
X84748714Y-90616438D01*
X84748714Y-90616438D02*
X84796333Y-90664057D01*
X85748714Y-91568819D02*
X85177286Y-91568819D01*
X85463000Y-91568819D02*
X85463000Y-90568819D01*
X85463000Y-90568819D02*
X85367762Y-90711676D01*
X85367762Y-90711676D02*
X85272524Y-90806914D01*
X85272524Y-90806914D02*
X85177286Y-90854533D01*
D11*
%TO.C,U1*%
X96961000Y-85835000D02*
X96961000Y-84185000D01*
X89221000Y-85835000D02*
X96961000Y-85835000D01*
X96961000Y-80535000D02*
X89221000Y-80535000D01*
X89221000Y-80535000D02*
X89221000Y-85835000D01*
X96961000Y-82185000D02*
X96961000Y-80535000D01*
X96961000Y-82185000D02*
G75*
G03*
X96961000Y-84185000I0J-1000000D01*
G01*
%TO.C,R5*%
X103240064Y-90270000D02*
X102785936Y-90270000D01*
X103240064Y-88800000D02*
X102785936Y-88800000D01*
%TO.C,R4*%
X104748000Y-92244936D02*
X104748000Y-92699064D01*
X103278000Y-92244936D02*
X103278000Y-92699064D01*
%TO.C,R3*%
X84682064Y-91159000D02*
X84227936Y-91159000D01*
X84682064Y-89689000D02*
X84227936Y-89689000D01*
%TO.C,R2*%
X97562936Y-88292000D02*
X98017064Y-88292000D01*
X97562936Y-89762000D02*
X98017064Y-89762000D01*
%TO.C,R1*%
X91864000Y-76200000D02*
X92974000Y-76200000D01*
X92974000Y-78120000D02*
X103114000Y-78120000D01*
X92974000Y-74280000D02*
X92974000Y-78120000D01*
X104224000Y-76200000D02*
X103114000Y-76200000D01*
X103114000Y-78120000D02*
X103114000Y-74280000D01*
X103114000Y-74280000D02*
X92974000Y-74280000D01*
%TO.C,Q1*%
X92147000Y-93494000D02*
X92147000Y-89894000D01*
X92135478Y-89855522D02*
G75*
G03*
X87697000Y-91694000I-1838478J-1838478D01*
G01*
X87697000Y-91694000D02*
G75*
G03*
X92135478Y-93532478I2600000J0D01*
G01*
%TO.C,J1*%
X90240000Y-67303000D02*
X90287000Y-67257000D01*
X92738000Y-69395000D02*
X92785000Y-69349000D01*
X97738000Y-69395000D02*
X97785000Y-69349000D01*
X111573000Y-73587000D02*
X86453000Y-73587000D01*
X92943000Y-69601000D02*
X92978000Y-69565000D01*
X105047000Y-67087000D02*
X105082000Y-67052000D01*
X87943000Y-69601000D02*
X87978000Y-69565000D01*
X111573000Y-63666000D02*
X86453000Y-63666000D01*
X102738000Y-69395000D02*
X102785000Y-69349000D01*
X111813000Y-63426000D02*
X111313000Y-63426000D01*
X100047000Y-67087000D02*
X100082000Y-67052000D01*
X90047000Y-67087000D02*
X90082000Y-67052000D01*
X111573000Y-65726000D02*
X86453000Y-65726000D01*
X102943000Y-69601000D02*
X102978000Y-69565000D01*
X111813000Y-64166000D02*
X111813000Y-63426000D01*
X97943000Y-69601000D02*
X97978000Y-69565000D01*
X105240000Y-67303000D02*
X105287000Y-67257000D01*
X100240000Y-67303000D02*
X100287000Y-67257000D01*
X95047000Y-67087000D02*
X95082000Y-67052000D01*
X86453000Y-73587000D02*
X86453000Y-63666000D01*
X111573000Y-64226000D02*
X86453000Y-64226000D01*
X87738000Y-69395000D02*
X87785000Y-69349000D01*
X111573000Y-73587000D02*
X111573000Y-63666000D01*
X95240000Y-67303000D02*
X95287000Y-67257000D01*
X111573000Y-70627000D02*
X86453000Y-70627000D01*
X108329001Y-69860999D02*
G75*
G03*
X109696042Y-69861426I684000J1534992D01*
G01*
X107478000Y-67642000D02*
G75*
G03*
X107477574Y-69009042I1535000J-684000D01*
G01*
X109697000Y-66791001D02*
G75*
G03*
X108984195Y-66645748I-683999J-1535000D01*
G01*
X109013000Y-66646001D02*
G75*
G03*
X108329682Y-66791245I0J-1679999D01*
G01*
X110547999Y-69009999D02*
G75*
G03*
X110548426Y-67642958I-1534992J684000D01*
G01*
X100693000Y-68326000D02*
G75*
G03*
X100693000Y-68326000I-1680000J0D01*
G01*
X95693000Y-68326000D02*
G75*
G03*
X95693000Y-68326000I-1680000J0D01*
G01*
X90693000Y-68326000D02*
G75*
G03*
X90693000Y-68326000I-1680000J0D01*
G01*
X105693000Y-68326000D02*
G75*
G03*
X105693000Y-68326000I-1680000J0D01*
G01*
%TO.C,D3*%
X104866000Y-86543000D02*
X102006000Y-86543000D01*
X102006000Y-88463000D02*
X104866000Y-88463000D01*
X104866000Y-88463000D02*
X104866000Y-86543000D01*
%TO.C,D2*%
X101021000Y-90596000D02*
X101021000Y-93456000D01*
X102941000Y-93456000D02*
X102941000Y-90596000D01*
X102941000Y-90596000D02*
X101021000Y-90596000D01*
%TO.C,D1*%
X105452000Y-81353000D02*
X105452000Y-78413000D01*
X105332000Y-81353000D02*
X105332000Y-78413000D01*
X106352000Y-78413000D02*
X100912000Y-78413000D01*
X99892000Y-79883000D02*
X100912000Y-79883000D01*
X106352000Y-81353000D02*
X106352000Y-78413000D01*
X105572000Y-81353000D02*
X105572000Y-78413000D01*
X100912000Y-78413000D02*
X100912000Y-81353000D01*
X107372000Y-79883000D02*
X106352000Y-79883000D01*
X100912000Y-81353000D02*
X106352000Y-81353000D01*
%TO.C,C1*%
X84251748Y-93874000D02*
X85674252Y-93874000D01*
X84251748Y-92054000D02*
X85674252Y-92054000D01*
%TD*%
M02*
