%TF.GenerationSoftware,KiCad,Pcbnew,7.0.6-1.fc38*%
%TF.CreationDate,2023-08-14T17:52:24+02:00*%
%TF.ProjectId,220V_OPTO_SWITCH,32323056-5f4f-4505-944f-5f5357495443,rev?*%
%TF.SameCoordinates,Original*%
%TF.FileFunction,Copper,L2,Bot*%
%TF.FilePolarity,Positive*%
%FSLAX46Y46*%
G04 Gerber Fmt 4.6, Leading zero omitted, Abs format (unit mm)*
G04 Created by KiCad (PCBNEW 7.0.6-1.fc38) date 2023-08-14 17:52:24*
%MOMM*%
%LPD*%
G01*
G04 APERTURE LIST*
%TA.AperFunction,ComponentPad*%
%ADD10R,1.600000X1.600000*%
%TD*%
%TA.AperFunction,ComponentPad*%
%ADD11O,1.600000X1.600000*%
%TD*%
%TA.AperFunction,ComponentPad*%
%ADD12C,2.400000*%
%TD*%
%TA.AperFunction,ComponentPad*%
%ADD13O,2.400000X2.400000*%
%TD*%
%TA.AperFunction,ComponentPad*%
%ADD14R,1.500000X1.050000*%
%TD*%
%TA.AperFunction,ComponentPad*%
%ADD15O,1.500000X1.050000*%
%TD*%
%TA.AperFunction,ComponentPad*%
%ADD16R,1.700000X1.700000*%
%TD*%
%TA.AperFunction,ComponentPad*%
%ADD17O,1.700000X1.700000*%
%TD*%
%TA.AperFunction,ComponentPad*%
%ADD18R,2.600000X2.600000*%
%TD*%
%TA.AperFunction,ComponentPad*%
%ADD19C,2.600000*%
%TD*%
%TA.AperFunction,ComponentPad*%
%ADD20R,2.200000X2.200000*%
%TD*%
%TA.AperFunction,ComponentPad*%
%ADD21O,2.200000X2.200000*%
%TD*%
%TA.AperFunction,ViaPad*%
%ADD22C,0.800000*%
%TD*%
G04 APERTURE END LIST*
D10*
%TO.P,U1,1*%
%TO.N,Net-(D1-K)*%
X95631000Y-79375000D03*
D11*
%TO.P,U1,2*%
%TO.N,NEUT*%
X93091000Y-79375000D03*
%TO.P,U1,3,NC*%
%TO.N,unconnected-(U1-NC-Pad3)*%
X90551000Y-79375000D03*
%TO.P,U1,4*%
%TO.N,Net-(Q1-B)*%
X90551000Y-86995000D03*
%TO.P,U1,5*%
%TO.N,+3.3V*%
X93091000Y-86995000D03*
%TO.P,U1,6*%
%TO.N,unconnected-(U1-Pad6)*%
X95631000Y-86995000D03*
%TD*%
D12*
%TO.P,R1,1*%
%TO.N,Net-(D1-K)*%
X105664000Y-76200000D03*
D13*
%TO.P,R1,2*%
%TO.N,-VSW*%
X90424000Y-76200000D03*
%TD*%
D14*
%TO.P,Q1,1,C*%
%TO.N,GND*%
X90297000Y-92964000D03*
D15*
%TO.P,Q1,2,B*%
%TO.N,Net-(Q1-B)*%
X90297000Y-91694000D03*
%TO.P,Q1,3,E*%
%TO.N,SIG*%
X90297000Y-90424000D03*
%TD*%
D16*
%TO.P,J2,1,Pin_1*%
%TO.N,SIG*%
X94107000Y-91821000D03*
D17*
%TO.P,J2,2,Pin_2*%
%TO.N,+3.3V*%
X96647000Y-91821000D03*
%TO.P,J2,3,Pin_3*%
%TO.N,GND*%
X99187000Y-91821000D03*
%TD*%
D18*
%TO.P,J1,1,Pin_1*%
%TO.N,NEUT*%
X109013000Y-68326000D03*
D19*
%TO.P,J1,2,Pin_2*%
%TO.N,LINE*%
X104013000Y-68326000D03*
%TO.P,J1,3,Pin_3*%
X99013000Y-68326000D03*
%TO.P,J1,4,Pin_4*%
%TO.N,NEUT*%
X94013000Y-68326000D03*
%TO.P,J1,5,Pin_5*%
%TO.N,-VSW*%
X89013000Y-68326000D03*
%TD*%
D20*
%TO.P,D1,1,K*%
%TO.N,Net-(D1-K)*%
X108712000Y-79883000D03*
D21*
%TO.P,D1,2,A*%
%TO.N,NEUT*%
X98552000Y-79883000D03*
%TD*%
D22*
%TO.N,GND*%
X100330000Y-89154000D03*
X93726000Y-93980000D03*
X86868000Y-90170000D03*
X93091000Y-89154000D03*
X86233000Y-87503000D03*
%TD*%
%TA.AperFunction,Conductor*%
%TO.N,GND*%
G36*
X89661311Y-86125685D02*
G01*
X89707066Y-86178489D01*
X89717010Y-86247647D01*
X89693226Y-86304727D01*
X89611327Y-86413178D01*
X89520422Y-86595739D01*
X89520417Y-86595752D01*
X89464602Y-86791917D01*
X89445785Y-86994999D01*
X89445785Y-86995000D01*
X89464602Y-87198082D01*
X89520417Y-87394247D01*
X89520422Y-87394260D01*
X89611327Y-87576821D01*
X89734237Y-87739581D01*
X89884958Y-87876980D01*
X89884960Y-87876982D01*
X89984141Y-87938392D01*
X90058363Y-87984348D01*
X90248544Y-88058024D01*
X90449024Y-88095500D01*
X90449026Y-88095500D01*
X90652974Y-88095500D01*
X90652976Y-88095500D01*
X90853456Y-88058024D01*
X91043637Y-87984348D01*
X91217041Y-87876981D01*
X91367764Y-87739579D01*
X91490673Y-87576821D01*
X91581582Y-87394250D01*
X91637397Y-87198083D01*
X91656215Y-86995000D01*
X91637397Y-86791917D01*
X91581582Y-86595750D01*
X91490673Y-86413179D01*
X91408774Y-86304727D01*
X91384082Y-86239365D01*
X91398647Y-86171031D01*
X91447845Y-86121418D01*
X91507728Y-86106000D01*
X92134272Y-86106000D01*
X92201311Y-86125685D01*
X92247066Y-86178489D01*
X92257010Y-86247647D01*
X92233226Y-86304727D01*
X92151327Y-86413178D01*
X92060422Y-86595739D01*
X92060417Y-86595752D01*
X92004602Y-86791917D01*
X91985785Y-86994999D01*
X91985785Y-86995000D01*
X92004602Y-87198082D01*
X92060417Y-87394247D01*
X92060422Y-87394260D01*
X92151327Y-87576821D01*
X92274237Y-87739581D01*
X92424958Y-87876980D01*
X92424960Y-87876982D01*
X92524141Y-87938392D01*
X92598363Y-87984348D01*
X92788544Y-88058024D01*
X92989024Y-88095500D01*
X92989026Y-88095500D01*
X93192974Y-88095500D01*
X93192976Y-88095500D01*
X93393456Y-88058024D01*
X93583637Y-87984348D01*
X93757041Y-87876981D01*
X93907764Y-87739579D01*
X94030673Y-87576821D01*
X94121582Y-87394250D01*
X94177397Y-87198083D01*
X94196215Y-86995000D01*
X94177397Y-86791917D01*
X94121582Y-86595750D01*
X94030673Y-86413179D01*
X93948774Y-86304727D01*
X93924082Y-86239365D01*
X93938647Y-86171031D01*
X93987845Y-86121418D01*
X94047728Y-86106000D01*
X94674272Y-86106000D01*
X94741311Y-86125685D01*
X94787066Y-86178489D01*
X94797010Y-86247647D01*
X94773226Y-86304727D01*
X94691327Y-86413178D01*
X94600422Y-86595739D01*
X94600417Y-86595752D01*
X94544602Y-86791917D01*
X94525785Y-86994999D01*
X94525785Y-86995000D01*
X94544602Y-87198082D01*
X94600417Y-87394247D01*
X94600422Y-87394260D01*
X94691327Y-87576821D01*
X94814237Y-87739581D01*
X94964958Y-87876980D01*
X94964960Y-87876982D01*
X95064141Y-87938392D01*
X95138363Y-87984348D01*
X95328544Y-88058024D01*
X95529024Y-88095500D01*
X95529026Y-88095500D01*
X95732974Y-88095500D01*
X95732976Y-88095500D01*
X95933456Y-88058024D01*
X96123637Y-87984348D01*
X96297041Y-87876981D01*
X96447764Y-87739579D01*
X96570673Y-87576821D01*
X96661582Y-87394250D01*
X96717397Y-87198083D01*
X96736215Y-86995000D01*
X96717397Y-86791917D01*
X96661582Y-86595750D01*
X96570673Y-86413179D01*
X96488774Y-86304727D01*
X96464082Y-86239365D01*
X96478647Y-86171031D01*
X96527845Y-86121418D01*
X96587728Y-86106000D01*
X115318500Y-86106000D01*
X115385539Y-86125685D01*
X115431294Y-86178489D01*
X115442500Y-86230000D01*
X115442500Y-99824500D01*
X115422815Y-99891539D01*
X115370011Y-99937294D01*
X115318500Y-99948500D01*
X88121947Y-99948500D01*
X88054908Y-99928815D01*
X88009153Y-99876011D01*
X87999209Y-99806853D01*
X88028234Y-99743297D01*
X88034266Y-99736819D01*
X88069410Y-99701675D01*
X88069410Y-98298000D01*
X88937785Y-98298000D01*
X88956602Y-98501082D01*
X89012417Y-98697247D01*
X89012422Y-98697260D01*
X89103327Y-98879821D01*
X89226237Y-99042581D01*
X89376958Y-99179980D01*
X89376960Y-99179982D01*
X89503148Y-99258113D01*
X89550363Y-99287348D01*
X89581863Y-99299551D01*
X89584927Y-99300844D01*
X89585002Y-99300870D01*
X89585004Y-99300871D01*
X89586021Y-99301223D01*
X89587499Y-99301735D01*
X89665885Y-99332101D01*
X89740544Y-99361024D01*
X89773395Y-99367165D01*
X89776608Y-99367854D01*
X89783070Y-99369422D01*
X89783075Y-99369424D01*
X89783079Y-99369424D01*
X89783081Y-99369425D01*
X89793493Y-99370922D01*
X89820696Y-99376007D01*
X89941024Y-99398500D01*
X89941026Y-99398500D01*
X89976437Y-99398500D01*
X89984643Y-99399086D01*
X89984649Y-99398972D01*
X89990537Y-99399252D01*
X89990541Y-99399253D01*
X89990544Y-99399252D01*
X89990548Y-99399253D01*
X89998954Y-99398853D01*
X89998964Y-99398855D01*
X90004938Y-99398570D01*
X90007891Y-99398500D01*
X90144975Y-99398500D01*
X90144976Y-99398500D01*
X90188198Y-99390420D01*
X90196646Y-99389435D01*
X90199902Y-99389280D01*
X90199904Y-99389279D01*
X90201781Y-99389190D01*
X90201827Y-99389185D01*
X90234914Y-99387608D01*
X90265294Y-99376008D01*
X90345456Y-99361024D01*
X90390381Y-99343619D01*
X90398145Y-99341186D01*
X90403593Y-99339865D01*
X90403596Y-99339863D01*
X90406340Y-99339198D01*
X90406370Y-99339190D01*
X90435586Y-99332101D01*
X90461999Y-99315875D01*
X90518895Y-99293833D01*
X90535635Y-99287349D01*
X90535640Y-99287346D01*
X90580244Y-99259728D01*
X90587092Y-99256064D01*
X90594251Y-99252795D01*
X90594254Y-99252792D01*
X90598575Y-99250820D01*
X90600528Y-99249928D01*
X90601782Y-99249747D01*
X90605029Y-99247872D01*
X90622245Y-99240010D01*
X90644028Y-99220234D01*
X90709041Y-99179981D01*
X90751053Y-99141681D01*
X90756809Y-99137036D01*
X90764985Y-99131215D01*
X90764989Y-99131210D01*
X90765077Y-99131148D01*
X90767906Y-99130168D01*
X90774622Y-99124350D01*
X90788296Y-99114612D01*
X90805053Y-99092453D01*
X90859764Y-99042579D01*
X90896691Y-98993678D01*
X90901278Y-98988278D01*
X90904207Y-98985203D01*
X90905284Y-98984074D01*
X90909302Y-98981752D01*
X90917799Y-98970949D01*
X90927839Y-98960419D01*
X90939455Y-98937050D01*
X90982673Y-98879821D01*
X91009822Y-98825297D01*
X91017339Y-98817189D01*
X91018541Y-98814187D01*
X91029342Y-98793235D01*
X91035993Y-98782884D01*
X91042607Y-98759455D01*
X91073582Y-98697250D01*
X91090598Y-98637443D01*
X91097343Y-98626750D01*
X91098596Y-98620253D01*
X91105240Y-98597626D01*
X91108947Y-98588365D01*
X91110948Y-98565921D01*
X91129397Y-98501083D01*
X91136368Y-98425845D01*
X91137217Y-98419880D01*
X91140510Y-98402799D01*
X91140510Y-98402794D01*
X91144179Y-98383758D01*
X91142173Y-98363195D01*
X91148215Y-98298000D01*
X106760785Y-98298000D01*
X106779602Y-98501082D01*
X106835417Y-98697247D01*
X106835422Y-98697260D01*
X106926327Y-98879821D01*
X107049237Y-99042581D01*
X107199958Y-99179980D01*
X107199960Y-99179982D01*
X107326148Y-99258113D01*
X107373363Y-99287348D01*
X107404863Y-99299551D01*
X107407927Y-99300844D01*
X107408002Y-99300870D01*
X107408004Y-99300871D01*
X107409021Y-99301223D01*
X107410499Y-99301735D01*
X107488885Y-99332101D01*
X107563544Y-99361024D01*
X107596395Y-99367165D01*
X107599608Y-99367854D01*
X107606070Y-99369422D01*
X107606075Y-99369424D01*
X107606079Y-99369424D01*
X107606081Y-99369425D01*
X107616493Y-99370922D01*
X107643696Y-99376007D01*
X107764024Y-99398500D01*
X107764026Y-99398500D01*
X107799437Y-99398500D01*
X107807643Y-99399086D01*
X107807649Y-99398972D01*
X107813537Y-99399252D01*
X107813541Y-99399253D01*
X107813544Y-99399252D01*
X107813548Y-99399253D01*
X107821954Y-99398853D01*
X107821964Y-99398855D01*
X107827938Y-99398570D01*
X107830891Y-99398500D01*
X107967975Y-99398500D01*
X107967976Y-99398500D01*
X108011198Y-99390420D01*
X108019646Y-99389435D01*
X108022902Y-99389280D01*
X108022904Y-99389279D01*
X108024781Y-99389190D01*
X108024827Y-99389185D01*
X108057914Y-99387608D01*
X108088294Y-99376008D01*
X108168456Y-99361024D01*
X108213381Y-99343619D01*
X108221145Y-99341186D01*
X108226593Y-99339865D01*
X108226596Y-99339863D01*
X108229340Y-99339198D01*
X108229370Y-99339190D01*
X108258586Y-99332101D01*
X108284999Y-99315875D01*
X108341895Y-99293833D01*
X108358635Y-99287349D01*
X108358640Y-99287346D01*
X108403244Y-99259728D01*
X108410092Y-99256064D01*
X108417251Y-99252795D01*
X108417254Y-99252792D01*
X108421575Y-99250820D01*
X108423528Y-99249928D01*
X108424782Y-99249747D01*
X108428029Y-99247872D01*
X108445245Y-99240010D01*
X108467028Y-99220234D01*
X108532041Y-99179981D01*
X108574053Y-99141681D01*
X108579809Y-99137036D01*
X108587985Y-99131215D01*
X108587989Y-99131210D01*
X108588077Y-99131148D01*
X108590906Y-99130168D01*
X108597622Y-99124350D01*
X108611296Y-99114612D01*
X108628053Y-99092453D01*
X108682764Y-99042579D01*
X108719691Y-98993678D01*
X108724278Y-98988278D01*
X108727207Y-98985203D01*
X108728284Y-98984074D01*
X108732302Y-98981752D01*
X108740799Y-98970949D01*
X108750839Y-98960419D01*
X108762455Y-98937050D01*
X108805673Y-98879821D01*
X108832822Y-98825297D01*
X108840339Y-98817189D01*
X108841541Y-98814187D01*
X108852342Y-98793235D01*
X108858993Y-98782884D01*
X108865607Y-98759455D01*
X108896582Y-98697250D01*
X108913598Y-98637443D01*
X108920343Y-98626750D01*
X108921596Y-98620253D01*
X108928240Y-98597626D01*
X108931947Y-98588365D01*
X108933948Y-98565921D01*
X108952397Y-98501083D01*
X108959368Y-98425845D01*
X108960217Y-98419880D01*
X108963510Y-98402799D01*
X108963510Y-98402794D01*
X108967179Y-98383758D01*
X108965173Y-98363195D01*
X108971215Y-98298000D01*
X108965173Y-98232804D01*
X108968180Y-98217433D01*
X108960220Y-98176132D01*
X108959368Y-98170148D01*
X108952397Y-98094917D01*
X108933948Y-98030076D01*
X108934091Y-98012986D01*
X108928239Y-97998369D01*
X108921597Y-97975746D01*
X108921152Y-97973440D01*
X108913599Y-97958558D01*
X108896582Y-97898750D01*
X108896581Y-97898747D01*
X108896580Y-97898744D01*
X108865608Y-97836546D01*
X108862365Y-97818359D01*
X108852342Y-97802762D01*
X108841891Y-97782490D01*
X108832824Y-97770705D01*
X108805673Y-97716179D01*
X108805670Y-97716175D01*
X108805669Y-97716173D01*
X108762456Y-97658949D01*
X108755456Y-97640420D01*
X108740797Y-97625047D01*
X108734144Y-97616588D01*
X108728316Y-97611957D01*
X108724299Y-97607744D01*
X108719692Y-97602322D01*
X108709043Y-97588220D01*
X108682766Y-97553422D01*
X108682764Y-97553420D01*
X108628055Y-97503547D01*
X108617101Y-97485519D01*
X108597623Y-97471649D01*
X108592369Y-97467096D01*
X108588065Y-97464842D01*
X108579832Y-97458978D01*
X108574024Y-97454291D01*
X108559766Y-97441293D01*
X108532041Y-97416019D01*
X108532034Y-97416015D01*
X108532032Y-97416013D01*
X108467029Y-97375765D01*
X108452113Y-97359124D01*
X108428029Y-97348126D01*
X108425533Y-97346685D01*
X108423586Y-97346097D01*
X108410104Y-97339940D01*
X108403214Y-97336253D01*
X108358637Y-97308652D01*
X108312282Y-97290694D01*
X108284993Y-97280122D01*
X108266320Y-97265772D01*
X108226264Y-97256055D01*
X108224216Y-97255558D01*
X108221155Y-97254815D01*
X108213370Y-97252375D01*
X108182645Y-97240473D01*
X108168456Y-97234976D01*
X108168447Y-97234974D01*
X108168446Y-97234974D01*
X108088284Y-97219988D01*
X108066247Y-97208783D01*
X108019641Y-97206563D01*
X108011191Y-97205577D01*
X107967980Y-97197500D01*
X107967976Y-97197500D01*
X107830834Y-97197500D01*
X107827884Y-97197430D01*
X107813540Y-97196746D01*
X107807649Y-97197028D01*
X107807643Y-97196913D01*
X107799437Y-97197500D01*
X107764024Y-97197500D01*
X107720816Y-97205577D01*
X107616491Y-97225078D01*
X107606072Y-97226576D01*
X107599593Y-97228148D01*
X107596373Y-97228839D01*
X107563548Y-97234975D01*
X107563538Y-97234977D01*
X107410496Y-97294266D01*
X107407915Y-97295159D01*
X107404811Y-97296468D01*
X107373363Y-97308651D01*
X107373361Y-97308652D01*
X107199957Y-97416020D01*
X107049237Y-97553418D01*
X106926327Y-97716178D01*
X106835422Y-97898739D01*
X106835417Y-97898752D01*
X106779602Y-98094917D01*
X106760785Y-98297999D01*
X106760785Y-98298000D01*
X91148215Y-98298000D01*
X91142173Y-98232804D01*
X91145180Y-98217433D01*
X91137220Y-98176132D01*
X91136368Y-98170148D01*
X91129397Y-98094917D01*
X91110948Y-98030076D01*
X91111091Y-98012986D01*
X91105239Y-97998369D01*
X91098597Y-97975746D01*
X91098152Y-97973440D01*
X91090599Y-97958558D01*
X91073582Y-97898750D01*
X91073581Y-97898747D01*
X91073580Y-97898744D01*
X91042608Y-97836546D01*
X91039365Y-97818359D01*
X91029342Y-97802762D01*
X91018891Y-97782490D01*
X91009824Y-97770705D01*
X90982673Y-97716179D01*
X90982670Y-97716175D01*
X90982669Y-97716173D01*
X90939456Y-97658949D01*
X90932456Y-97640420D01*
X90917797Y-97625047D01*
X90911144Y-97616588D01*
X90905316Y-97611957D01*
X90901299Y-97607744D01*
X90896692Y-97602322D01*
X90886043Y-97588220D01*
X90859766Y-97553422D01*
X90859764Y-97553420D01*
X90805055Y-97503547D01*
X90794101Y-97485519D01*
X90774623Y-97471649D01*
X90769369Y-97467096D01*
X90765065Y-97464842D01*
X90756832Y-97458978D01*
X90751024Y-97454291D01*
X90736766Y-97441293D01*
X90709041Y-97416019D01*
X90709034Y-97416015D01*
X90709032Y-97416013D01*
X90644029Y-97375765D01*
X90629113Y-97359124D01*
X90605029Y-97348126D01*
X90602533Y-97346685D01*
X90600586Y-97346097D01*
X90587104Y-97339940D01*
X90580214Y-97336253D01*
X90535637Y-97308652D01*
X90489282Y-97290694D01*
X90461993Y-97280122D01*
X90443320Y-97265772D01*
X90403264Y-97256055D01*
X90401216Y-97255558D01*
X90398155Y-97254815D01*
X90390370Y-97252375D01*
X90359645Y-97240473D01*
X90345456Y-97234976D01*
X90345447Y-97234974D01*
X90345446Y-97234974D01*
X90265284Y-97219988D01*
X90243247Y-97208783D01*
X90196641Y-97206563D01*
X90188191Y-97205577D01*
X90144980Y-97197500D01*
X90144976Y-97197500D01*
X90007834Y-97197500D01*
X90004884Y-97197430D01*
X89990540Y-97196746D01*
X89984649Y-97197028D01*
X89984643Y-97196913D01*
X89976437Y-97197500D01*
X89941024Y-97197500D01*
X89897816Y-97205577D01*
X89793491Y-97225078D01*
X89783072Y-97226576D01*
X89776593Y-97228148D01*
X89773373Y-97228839D01*
X89740548Y-97234975D01*
X89740538Y-97234977D01*
X89587496Y-97294266D01*
X89584915Y-97295159D01*
X89581811Y-97296468D01*
X89550363Y-97308651D01*
X89550361Y-97308652D01*
X89376957Y-97416020D01*
X89226237Y-97553418D01*
X89103327Y-97716178D01*
X89012422Y-97898739D01*
X89012417Y-97898752D01*
X88956602Y-98094917D01*
X88937785Y-98297999D01*
X88937785Y-98298000D01*
X88069410Y-98298000D01*
X88069410Y-94240675D01*
X82735410Y-94240675D01*
X82735410Y-99701675D01*
X82770554Y-99736819D01*
X82804039Y-99798142D01*
X82799055Y-99867834D01*
X82757183Y-99923767D01*
X82691719Y-99948184D01*
X82682873Y-99948500D01*
X82547500Y-99948500D01*
X82480461Y-99928815D01*
X82434706Y-99876011D01*
X82423500Y-99824500D01*
X82423500Y-94234000D01*
X109855000Y-94234000D01*
X109855000Y-99695000D01*
X115189000Y-99695000D01*
X115189000Y-94234000D01*
X109855000Y-94234000D01*
X82423500Y-94234000D01*
X82423500Y-93536844D01*
X89047000Y-93536844D01*
X89053401Y-93596372D01*
X89053403Y-93596379D01*
X89103645Y-93731086D01*
X89103649Y-93731093D01*
X89189809Y-93846187D01*
X89189812Y-93846190D01*
X89304906Y-93932350D01*
X89304913Y-93932354D01*
X89439620Y-93982596D01*
X89439627Y-93982598D01*
X89499155Y-93988999D01*
X89499172Y-93989000D01*
X90047000Y-93989000D01*
X90047000Y-93244617D01*
X90116052Y-93298363D01*
X90234424Y-93339000D01*
X90328073Y-93339000D01*
X90420446Y-93323586D01*
X90530514Y-93264019D01*
X90547000Y-93246110D01*
X90547000Y-93989000D01*
X91094828Y-93989000D01*
X91094844Y-93988999D01*
X91154372Y-93982598D01*
X91154379Y-93982596D01*
X91289086Y-93932354D01*
X91289093Y-93932350D01*
X91404187Y-93846190D01*
X91404190Y-93846187D01*
X91490350Y-93731093D01*
X91490354Y-93731086D01*
X91540596Y-93596379D01*
X91540598Y-93596372D01*
X91546999Y-93536844D01*
X91547000Y-93536827D01*
X91547000Y-93214000D01*
X90576560Y-93214000D01*
X90615278Y-93171941D01*
X90665551Y-93057330D01*
X90675886Y-92932605D01*
X90645163Y-92811281D01*
X90582819Y-92715856D01*
X92956500Y-92715856D01*
X92956502Y-92715882D01*
X92959413Y-92740987D01*
X92959415Y-92740991D01*
X93004793Y-92843764D01*
X93004794Y-92843765D01*
X93084235Y-92923206D01*
X93187009Y-92968585D01*
X93212135Y-92971500D01*
X95001864Y-92971499D01*
X95001879Y-92971497D01*
X95001882Y-92971497D01*
X95026987Y-92968586D01*
X95026988Y-92968585D01*
X95026991Y-92968585D01*
X95129765Y-92923206D01*
X95209206Y-92843765D01*
X95254585Y-92740991D01*
X95257500Y-92715865D01*
X95257499Y-91977046D01*
X95277183Y-91910009D01*
X95329987Y-91864254D01*
X95399146Y-91854310D01*
X95462702Y-91883335D01*
X95500476Y-91942113D01*
X95504970Y-91965606D01*
X95511244Y-92033310D01*
X95569596Y-92238392D01*
X95569596Y-92238394D01*
X95664632Y-92429253D01*
X95732784Y-92519500D01*
X95793128Y-92599407D01*
X95950698Y-92743052D01*
X96131981Y-92855298D01*
X96330802Y-92932321D01*
X96540390Y-92971500D01*
X96540392Y-92971500D01*
X96753608Y-92971500D01*
X96753610Y-92971500D01*
X96963198Y-92932321D01*
X97162019Y-92855298D01*
X97343302Y-92743052D01*
X97500872Y-92599407D01*
X97629366Y-92429255D01*
X97696325Y-92294781D01*
X97743825Y-92243548D01*
X97811488Y-92226126D01*
X97877828Y-92248051D01*
X97919705Y-92297651D01*
X98013399Y-92498578D01*
X98148894Y-92692082D01*
X98315917Y-92859105D01*
X98509421Y-92994600D01*
X98723507Y-93094429D01*
X98723516Y-93094433D01*
X98937000Y-93151634D01*
X98937000Y-92256501D01*
X99044685Y-92305680D01*
X99151237Y-92321000D01*
X99222763Y-92321000D01*
X99329315Y-92305680D01*
X99437000Y-92256501D01*
X99437000Y-93151633D01*
X99650483Y-93094433D01*
X99650492Y-93094429D01*
X99864578Y-92994600D01*
X100058082Y-92859105D01*
X100225105Y-92692082D01*
X100360600Y-92498578D01*
X100460429Y-92284492D01*
X100460432Y-92284486D01*
X100517636Y-92071000D01*
X99620686Y-92071000D01*
X99646493Y-92030844D01*
X99687000Y-91892889D01*
X99687000Y-91749111D01*
X99646493Y-91611156D01*
X99620686Y-91571000D01*
X100517636Y-91571000D01*
X100517635Y-91570999D01*
X100460432Y-91357513D01*
X100460429Y-91357507D01*
X100360600Y-91143422D01*
X100360599Y-91143420D01*
X100225113Y-90949926D01*
X100225108Y-90949920D01*
X100058082Y-90782894D01*
X99864578Y-90647399D01*
X99650492Y-90547570D01*
X99650486Y-90547567D01*
X99437000Y-90490364D01*
X99437000Y-91385498D01*
X99329315Y-91336320D01*
X99222763Y-91321000D01*
X99151237Y-91321000D01*
X99044685Y-91336320D01*
X98937000Y-91385498D01*
X98937000Y-90490364D01*
X98936999Y-90490364D01*
X98723513Y-90547567D01*
X98723507Y-90547570D01*
X98509422Y-90647399D01*
X98509420Y-90647400D01*
X98315926Y-90782886D01*
X98315920Y-90782891D01*
X98148891Y-90949920D01*
X98148886Y-90949926D01*
X98013400Y-91143420D01*
X98013399Y-91143422D01*
X97919705Y-91344348D01*
X97873532Y-91396787D01*
X97806339Y-91415939D01*
X97739457Y-91395723D01*
X97696324Y-91347216D01*
X97629366Y-91212745D01*
X97500872Y-91042593D01*
X97343302Y-90898948D01*
X97162019Y-90786702D01*
X97162017Y-90786701D01*
X97019140Y-90731351D01*
X96963198Y-90709679D01*
X96753610Y-90670500D01*
X96540390Y-90670500D01*
X96330802Y-90709679D01*
X96330799Y-90709679D01*
X96330799Y-90709680D01*
X96131982Y-90786701D01*
X96131980Y-90786702D01*
X95950699Y-90898947D01*
X95793127Y-91042593D01*
X95664632Y-91212746D01*
X95569596Y-91403605D01*
X95569596Y-91403607D01*
X95511244Y-91608689D01*
X95504970Y-91676394D01*
X95479183Y-91741331D01*
X95422383Y-91782018D01*
X95352602Y-91785538D01*
X95291995Y-91750772D01*
X95259806Y-91688759D01*
X95257499Y-91664952D01*
X95257499Y-90926143D01*
X95257499Y-90926136D01*
X95257497Y-90926117D01*
X95254586Y-90901012D01*
X95254585Y-90901010D01*
X95254585Y-90901009D01*
X95209206Y-90798235D01*
X95129765Y-90718794D01*
X95109124Y-90709680D01*
X95026992Y-90673415D01*
X95001865Y-90670500D01*
X93212143Y-90670500D01*
X93212117Y-90670502D01*
X93187012Y-90673413D01*
X93187008Y-90673415D01*
X93084235Y-90718793D01*
X93004794Y-90798234D01*
X92959415Y-90901006D01*
X92959415Y-90901008D01*
X92956500Y-90926131D01*
X92956500Y-92715856D01*
X90582819Y-92715856D01*
X90581606Y-92714000D01*
X91547000Y-92714000D01*
X91547000Y-92391172D01*
X91546999Y-92391155D01*
X91540598Y-92331627D01*
X91540596Y-92331620D01*
X91490354Y-92196913D01*
X91490350Y-92196906D01*
X91404191Y-92081814D01*
X91404184Y-92081806D01*
X91365986Y-92053212D01*
X91324114Y-91997279D01*
X91319130Y-91927587D01*
X91320820Y-91920756D01*
X91322097Y-91916156D01*
X91322101Y-91916147D01*
X91351150Y-91738955D01*
X91341429Y-91559661D01*
X91317048Y-91471847D01*
X91293394Y-91386651D01*
X91293391Y-91386645D01*
X91209285Y-91228006D01*
X91135657Y-91141325D01*
X91107259Y-91077487D01*
X91117883Y-91008430D01*
X91144892Y-90971024D01*
X91154875Y-90961569D01*
X91255640Y-90812951D01*
X91261504Y-90798235D01*
X91322099Y-90646152D01*
X91322098Y-90646152D01*
X91322101Y-90646147D01*
X91351150Y-90468955D01*
X91341429Y-90289661D01*
X91293393Y-90116649D01*
X91209286Y-89958008D01*
X91209285Y-89958006D01*
X91093044Y-89821157D01*
X91093043Y-89821157D01*
X90950099Y-89712493D01*
X90787138Y-89637099D01*
X90787134Y-89637097D01*
X90611779Y-89598500D01*
X90027240Y-89598500D01*
X90027238Y-89598500D01*
X89893496Y-89613045D01*
X89893489Y-89613047D01*
X89723339Y-89670377D01*
X89723336Y-89670379D01*
X89569482Y-89762950D01*
X89439123Y-89886431D01*
X89338358Y-90035051D01*
X89338357Y-90035053D01*
X89271900Y-90201847D01*
X89242850Y-90379048D01*
X89252571Y-90558338D01*
X89252571Y-90558343D01*
X89300605Y-90731348D01*
X89300608Y-90731354D01*
X89384714Y-90889994D01*
X89384717Y-90889997D01*
X89458341Y-90976675D01*
X89486739Y-91040513D01*
X89476114Y-91109570D01*
X89449111Y-91146970D01*
X89439126Y-91156428D01*
X89439123Y-91156431D01*
X89338358Y-91305051D01*
X89338357Y-91305053D01*
X89271900Y-91471847D01*
X89242850Y-91649048D01*
X89252571Y-91828338D01*
X89252571Y-91828343D01*
X89277365Y-91917641D01*
X89276333Y-91987503D01*
X89237694Y-92045716D01*
X89232197Y-92050080D01*
X89189814Y-92081807D01*
X89189808Y-92081814D01*
X89103649Y-92196906D01*
X89103645Y-92196913D01*
X89053403Y-92331620D01*
X89053401Y-92331627D01*
X89047000Y-92391155D01*
X89047000Y-92714000D01*
X90017440Y-92714000D01*
X89978722Y-92756059D01*
X89928449Y-92870670D01*
X89918114Y-92995395D01*
X89948837Y-93116719D01*
X90012394Y-93214000D01*
X89047000Y-93214000D01*
X89047000Y-93536844D01*
X82423500Y-93536844D01*
X82423500Y-86230000D01*
X82443185Y-86162961D01*
X82495989Y-86117206D01*
X82547500Y-86106000D01*
X89594272Y-86106000D01*
X89661311Y-86125685D01*
G37*
%TD.AperFunction*%
%TD*%
M02*
