%TF.GenerationSoftware,KiCad,Pcbnew,7.0.6-1.fc38*%
%TF.CreationDate,2023-08-14T18:07:14+02:00*%
%TF.ProjectId,ESP12F_INSPIRE_WIFI,45535031-3246-45f4-994e-53504952455f,rev?*%
%TF.SameCoordinates,Original*%
%TF.FileFunction,Copper,L2,Bot*%
%TF.FilePolarity,Positive*%
%FSLAX46Y46*%
G04 Gerber Fmt 4.6, Leading zero omitted, Abs format (unit mm)*
G04 Created by KiCad (PCBNEW 7.0.6-1.fc38) date 2023-08-14 18:07:14*
%MOMM*%
%LPD*%
G01*
G04 APERTURE LIST*
%TA.AperFunction,ComponentPad*%
%ADD10R,1.700000X1.700000*%
%TD*%
%TA.AperFunction,ComponentPad*%
%ADD11O,1.700000X1.700000*%
%TD*%
%TA.AperFunction,ComponentPad*%
%ADD12R,1.350000X1.350000*%
%TD*%
%TA.AperFunction,ComponentPad*%
%ADD13O,1.350000X1.350000*%
%TD*%
%TA.AperFunction,ViaPad*%
%ADD14C,0.800000*%
%TD*%
%TA.AperFunction,Conductor*%
%ADD15C,0.250000*%
%TD*%
G04 APERTURE END LIST*
D10*
%TO.P,J3,1,Pin_1*%
%TO.N,GND*%
X135636000Y-71755000D03*
D11*
%TO.P,J3,2,Pin_2*%
%TO.N,3V3*%
X135636000Y-74295000D03*
%TO.P,J3,3,Pin_3*%
%TO.N,SW_SIG*%
X135636000Y-76835000D03*
%TD*%
D12*
%TO.P,J2,1,Pin_1*%
%TO.N,GND*%
X103505000Y-80136000D03*
D13*
%TO.P,J2,2,Pin_2*%
%TO.N,TXD*%
X103505000Y-78136000D03*
%TO.P,J2,3,Pin_3*%
%TO.N,RXD*%
X103505000Y-76136000D03*
%TO.P,J2,4,Pin_4*%
%TO.N,PRG*%
X103505000Y-74136000D03*
%TO.P,J2,5,Pin_5*%
%TO.N,RST*%
X103505000Y-72136000D03*
%TO.P,J2,6,Pin_6*%
%TO.N,3V3*%
X103505000Y-70136000D03*
%TD*%
D10*
%TO.P,J1,1,Pin_1*%
%TO.N,GND*%
X125222000Y-69342000D03*
D11*
%TO.P,J1,2,Pin_2*%
%TO.N,3V3*%
X125222000Y-71882000D03*
%TO.P,J1,3,Pin_3*%
%TO.N,PWM1*%
X125222000Y-74422000D03*
%TO.P,J1,4,Pin_4*%
%TO.N,PWM2*%
X125222000Y-76962000D03*
%TD*%
D14*
%TO.N,GND*%
X114554000Y-63246000D03*
X103378000Y-82296000D03*
X106680000Y-64008000D03*
X123444000Y-64008000D03*
X112522000Y-81788000D03*
X109220000Y-68580000D03*
X119126000Y-69088000D03*
X112522000Y-68834000D03*
%TO.N,SW_SIG*%
X135382000Y-79121000D03*
X119253000Y-70739000D03*
%TD*%
D15*
%TO.N,GND*%
X119380000Y-64225000D02*
X119380000Y-68834000D01*
X103378000Y-82296000D02*
X106307222Y-82296000D01*
X103632000Y-82296000D02*
X103378000Y-82296000D01*
X112051000Y-64696000D02*
X112051000Y-68617000D01*
X106307222Y-82296000D02*
X106815222Y-81788000D01*
X112522000Y-64225000D02*
X112051000Y-64696000D01*
X114554000Y-64225000D02*
X112522000Y-64225000D01*
X109220000Y-68580000D02*
X109220000Y-68326000D01*
X109220000Y-64225000D02*
X106897000Y-64225000D01*
X114554000Y-64225000D02*
X114554000Y-63246000D01*
X106680000Y-64008000D02*
X106684652Y-64012652D01*
X109220000Y-64225000D02*
X109220000Y-68580000D01*
X106815222Y-81788000D02*
X112305000Y-81788000D01*
X106680000Y-81923222D02*
X106680000Y-64008000D01*
X114554000Y-63246000D02*
X114554000Y-63500000D01*
X112051000Y-68617000D02*
X112263348Y-68829348D01*
X106897000Y-64225000D02*
X106680000Y-64008000D01*
X119380000Y-68834000D02*
X119126000Y-69088000D01*
X123444000Y-64008000D02*
X123227000Y-64225000D01*
X123227000Y-64225000D02*
X119380000Y-64225000D01*
X119380000Y-64225000D02*
X114554000Y-64225000D01*
X112522000Y-64225000D02*
X109220000Y-64225000D01*
X106307222Y-82296000D02*
X106680000Y-81923222D01*
%TO.N,SW_SIG*%
X119253000Y-76708000D02*
X119253000Y-70739000D01*
X121666000Y-79121000D02*
X119253000Y-76708000D01*
X135382000Y-79121000D02*
X121666000Y-79121000D01*
%TD*%
%TA.AperFunction,Conductor*%
%TO.N,GND*%
G36*
X137269219Y-61993781D02*
G01*
X137286500Y-62035500D01*
X137286500Y-82491000D01*
X137269219Y-82532719D01*
X137227500Y-82550000D01*
X101659500Y-82550000D01*
X101617781Y-82532719D01*
X101600500Y-82491000D01*
X101600500Y-80858835D01*
X102330000Y-80858835D01*
X102336402Y-80918375D01*
X102336403Y-80918381D01*
X102386647Y-81053090D01*
X102472811Y-81168188D01*
X102587909Y-81254352D01*
X102722618Y-81304596D01*
X102722624Y-81304597D01*
X102782164Y-81310999D01*
X102782178Y-81311000D01*
X103255000Y-81311000D01*
X103255000Y-80451686D01*
X103266955Y-80463641D01*
X103379852Y-80521165D01*
X103473519Y-80536000D01*
X103536481Y-80536000D01*
X103630148Y-80521165D01*
X103743045Y-80463641D01*
X103755000Y-80451686D01*
X103755000Y-81311000D01*
X104227822Y-81311000D01*
X104227835Y-81310999D01*
X104287375Y-81304597D01*
X104287381Y-81304596D01*
X104422090Y-81254352D01*
X104537188Y-81168188D01*
X104623352Y-81053090D01*
X104673596Y-80918381D01*
X104673597Y-80918375D01*
X104679999Y-80858835D01*
X104680000Y-80858821D01*
X104680000Y-80386000D01*
X103820686Y-80386000D01*
X103832641Y-80374045D01*
X103890165Y-80261148D01*
X103909986Y-80136000D01*
X103890165Y-80010852D01*
X103832641Y-79897955D01*
X103820686Y-79886000D01*
X104680000Y-79886000D01*
X104680000Y-79413178D01*
X104679999Y-79413164D01*
X104673597Y-79353624D01*
X104673596Y-79353618D01*
X104623352Y-79218909D01*
X104537188Y-79103811D01*
X104422090Y-79017647D01*
X104287381Y-78967403D01*
X104287375Y-78967402D01*
X104227835Y-78961000D01*
X104040557Y-78961000D01*
X103998838Y-78943719D01*
X103981557Y-78902000D01*
X103998838Y-78860281D01*
X104005878Y-78854268D01*
X104055577Y-78818159D01*
X104094050Y-78790207D01*
X104217195Y-78653440D01*
X104309214Y-78494059D01*
X104366085Y-78319029D01*
X104385322Y-78136000D01*
X104366085Y-77952971D01*
X104366085Y-77952969D01*
X104309217Y-77777948D01*
X104309215Y-77777944D01*
X104309214Y-77777941D01*
X104217195Y-77618560D01*
X104094050Y-77481793D01*
X104094048Y-77481792D01*
X104094046Y-77481789D01*
X104094044Y-77481788D01*
X103945163Y-77373620D01*
X103945152Y-77373614D01*
X103777038Y-77298765D01*
X103777037Y-77298764D01*
X103597019Y-77260500D01*
X103412981Y-77260500D01*
X103232962Y-77298764D01*
X103232961Y-77298765D01*
X103064847Y-77373614D01*
X103064836Y-77373620D01*
X102915955Y-77481788D01*
X102915953Y-77481789D01*
X102792804Y-77618560D01*
X102792804Y-77618561D01*
X102700787Y-77777939D01*
X102700782Y-77777948D01*
X102643914Y-77952969D01*
X102624678Y-78136000D01*
X102643914Y-78319030D01*
X102700782Y-78494051D01*
X102700785Y-78494057D01*
X102700786Y-78494059D01*
X102759909Y-78596463D01*
X102792804Y-78653438D01*
X102792804Y-78653439D01*
X102915953Y-78790210D01*
X102915955Y-78790211D01*
X103004122Y-78854268D01*
X103027717Y-78892770D01*
X103017175Y-78936679D01*
X102978673Y-78960274D01*
X102969443Y-78961000D01*
X102782164Y-78961000D01*
X102722624Y-78967402D01*
X102722618Y-78967403D01*
X102587909Y-79017647D01*
X102472811Y-79103811D01*
X102386647Y-79218909D01*
X102336403Y-79353618D01*
X102336402Y-79353624D01*
X102330000Y-79413164D01*
X102330000Y-79886000D01*
X103189314Y-79886000D01*
X103177359Y-79897955D01*
X103119835Y-80010852D01*
X103100014Y-80136000D01*
X103119835Y-80261148D01*
X103177359Y-80374045D01*
X103189314Y-80386000D01*
X102330000Y-80386000D01*
X102330000Y-80858835D01*
X101600500Y-80858835D01*
X101600500Y-76135999D01*
X102624678Y-76135999D01*
X102643914Y-76319030D01*
X102700782Y-76494051D01*
X102700785Y-76494057D01*
X102700786Y-76494059D01*
X102792805Y-76653440D01*
X102885209Y-76756066D01*
X102915953Y-76790210D01*
X102915955Y-76790211D01*
X103042288Y-76881997D01*
X103064839Y-76898381D01*
X103064842Y-76898382D01*
X103064847Y-76898385D01*
X103232961Y-76973234D01*
X103232962Y-76973235D01*
X103232965Y-76973235D01*
X103232966Y-76973236D01*
X103412981Y-77011500D01*
X103597019Y-77011500D01*
X103777034Y-76973236D01*
X103777035Y-76973235D01*
X103777037Y-76973235D01*
X103777038Y-76973234D01*
X103802273Y-76961999D01*
X103945161Y-76898381D01*
X104094050Y-76790207D01*
X104217195Y-76653440D01*
X104309214Y-76494059D01*
X104329689Y-76431046D01*
X104366085Y-76319030D01*
X104373492Y-76248551D01*
X104385322Y-76136000D01*
X104366542Y-75957315D01*
X104366085Y-75952969D01*
X104309217Y-75777948D01*
X104309215Y-75777944D01*
X104309214Y-75777941D01*
X104217195Y-75618560D01*
X104094050Y-75481793D01*
X104094048Y-75481792D01*
X104094046Y-75481789D01*
X104094044Y-75481788D01*
X103945163Y-75373620D01*
X103945152Y-75373614D01*
X103777038Y-75298765D01*
X103777037Y-75298764D01*
X103597019Y-75260500D01*
X103412981Y-75260500D01*
X103232962Y-75298764D01*
X103232961Y-75298765D01*
X103064847Y-75373614D01*
X103064836Y-75373620D01*
X102915955Y-75481788D01*
X102915953Y-75481789D01*
X102792804Y-75618560D01*
X102792804Y-75618561D01*
X102700787Y-75777939D01*
X102700782Y-75777948D01*
X102643914Y-75952969D01*
X102624678Y-76135999D01*
X101600500Y-76135999D01*
X101600500Y-74136000D01*
X102624678Y-74136000D01*
X102643914Y-74319030D01*
X102700782Y-74494051D01*
X102700785Y-74494057D01*
X102700786Y-74494059D01*
X102778077Y-74627930D01*
X102792804Y-74653438D01*
X102792804Y-74653439D01*
X102915953Y-74790210D01*
X102915955Y-74790211D01*
X103041535Y-74881450D01*
X103064839Y-74898381D01*
X103064842Y-74898382D01*
X103064847Y-74898385D01*
X103232961Y-74973234D01*
X103232962Y-74973235D01*
X103232965Y-74973235D01*
X103232966Y-74973236D01*
X103412981Y-75011500D01*
X103597019Y-75011500D01*
X103777034Y-74973236D01*
X103777035Y-74973235D01*
X103777037Y-74973235D01*
X103777038Y-74973234D01*
X103945152Y-74898385D01*
X103945151Y-74898385D01*
X103945161Y-74898381D01*
X104094050Y-74790207D01*
X104217195Y-74653440D01*
X104309214Y-74494059D01*
X104366085Y-74319029D01*
X104385322Y-74136000D01*
X104366085Y-73952971D01*
X104366085Y-73952969D01*
X104309217Y-73777948D01*
X104309215Y-73777944D01*
X104309214Y-73777941D01*
X104217195Y-73618560D01*
X104094050Y-73481793D01*
X104094048Y-73481792D01*
X104094046Y-73481789D01*
X104094044Y-73481788D01*
X103945163Y-73373620D01*
X103945152Y-73373614D01*
X103777038Y-73298765D01*
X103777037Y-73298764D01*
X103597019Y-73260500D01*
X103412981Y-73260500D01*
X103232962Y-73298764D01*
X103232961Y-73298765D01*
X103064847Y-73373614D01*
X103064836Y-73373620D01*
X102915955Y-73481788D01*
X102915953Y-73481789D01*
X102792804Y-73618560D01*
X102792804Y-73618561D01*
X102700787Y-73777939D01*
X102700782Y-73777948D01*
X102643914Y-73952969D01*
X102624678Y-74136000D01*
X101600500Y-74136000D01*
X101600500Y-72135999D01*
X102624678Y-72135999D01*
X102643914Y-72319030D01*
X102700782Y-72494051D01*
X102700785Y-72494057D01*
X102700786Y-72494059D01*
X102792805Y-72653440D01*
X102845875Y-72712381D01*
X102915953Y-72790210D01*
X102915955Y-72790211D01*
X102994243Y-72847090D01*
X103064839Y-72898381D01*
X103064842Y-72898382D01*
X103064847Y-72898385D01*
X103232961Y-72973234D01*
X103232962Y-72973235D01*
X103232965Y-72973235D01*
X103232966Y-72973236D01*
X103412981Y-73011500D01*
X103597019Y-73011500D01*
X103777034Y-72973236D01*
X103777035Y-72973235D01*
X103777037Y-72973235D01*
X103777038Y-72973234D01*
X103945152Y-72898385D01*
X103945151Y-72898385D01*
X103945161Y-72898381D01*
X104094050Y-72790207D01*
X104217195Y-72653440D01*
X104309214Y-72494059D01*
X104366085Y-72319029D01*
X104385322Y-72136000D01*
X104366085Y-71952971D01*
X104366085Y-71952969D01*
X104309217Y-71777948D01*
X104309215Y-71777944D01*
X104309214Y-71777941D01*
X104217195Y-71618560D01*
X104094050Y-71481793D01*
X104094048Y-71481792D01*
X104094046Y-71481789D01*
X104094044Y-71481788D01*
X103945163Y-71373620D01*
X103945152Y-71373614D01*
X103777038Y-71298765D01*
X103777037Y-71298764D01*
X103597019Y-71260500D01*
X103412981Y-71260500D01*
X103232962Y-71298764D01*
X103232961Y-71298765D01*
X103064847Y-71373614D01*
X103064836Y-71373620D01*
X102915955Y-71481788D01*
X102915953Y-71481789D01*
X102792804Y-71618560D01*
X102792804Y-71618561D01*
X102700787Y-71777939D01*
X102700782Y-71777948D01*
X102643914Y-71952969D01*
X102624678Y-72135999D01*
X101600500Y-72135999D01*
X101600500Y-70136000D01*
X102624678Y-70136000D01*
X102643914Y-70319030D01*
X102700782Y-70494051D01*
X102700785Y-70494057D01*
X102700786Y-70494059D01*
X102792805Y-70653440D01*
X102869841Y-70738998D01*
X102915953Y-70790210D01*
X102915955Y-70790211D01*
X103061234Y-70895762D01*
X103064839Y-70898381D01*
X103064842Y-70898382D01*
X103064847Y-70898385D01*
X103232961Y-70973234D01*
X103232962Y-70973235D01*
X103232965Y-70973235D01*
X103232966Y-70973236D01*
X103412981Y-71011500D01*
X103597019Y-71011500D01*
X103777034Y-70973236D01*
X103777035Y-70973235D01*
X103777037Y-70973235D01*
X103777038Y-70973234D01*
X103945152Y-70898385D01*
X103945151Y-70898385D01*
X103945161Y-70898381D01*
X104094050Y-70790207D01*
X104140156Y-70739001D01*
X118647318Y-70739001D01*
X118667956Y-70895764D01*
X118728463Y-71041840D01*
X118824719Y-71167283D01*
X118904416Y-71228436D01*
X118926995Y-71267542D01*
X118927500Y-71275244D01*
X118927500Y-76692502D01*
X118927388Y-76695057D01*
X118924105Y-76732584D01*
X118923736Y-76736806D01*
X118923736Y-76736807D01*
X118934579Y-76777279D01*
X118935136Y-76779790D01*
X118942411Y-76821040D01*
X118942413Y-76821047D01*
X118945797Y-76826908D01*
X118951690Y-76841133D01*
X118953445Y-76847683D01*
X118953446Y-76847685D01*
X118977472Y-76881997D01*
X118978855Y-76884169D01*
X118990768Y-76904802D01*
X118999806Y-76920455D01*
X119021490Y-76938650D01*
X119031910Y-76947394D01*
X119033796Y-76949122D01*
X121424886Y-79340213D01*
X121426615Y-79342101D01*
X121453543Y-79374192D01*
X121453545Y-79374194D01*
X121489468Y-79394934D01*
X121489830Y-79395143D01*
X121492001Y-79396527D01*
X121513197Y-79411368D01*
X121526316Y-79420554D01*
X121531307Y-79421891D01*
X121532855Y-79422306D01*
X121547090Y-79428202D01*
X121552952Y-79431587D01*
X121552953Y-79431587D01*
X121552955Y-79431588D01*
X121574055Y-79435308D01*
X121594208Y-79438862D01*
X121596722Y-79439419D01*
X121606493Y-79442036D01*
X121637193Y-79450263D01*
X121675511Y-79446910D01*
X121678928Y-79446612D01*
X121681500Y-79446500D01*
X134845755Y-79446500D01*
X134887474Y-79463781D01*
X134892563Y-79469583D01*
X134953717Y-79549282D01*
X135079159Y-79645536D01*
X135225236Y-79706043D01*
X135225238Y-79706044D01*
X135325968Y-79719305D01*
X135381998Y-79726682D01*
X135382000Y-79726682D01*
X135382002Y-79726682D01*
X135423278Y-79721247D01*
X135538762Y-79706044D01*
X135684841Y-79645536D01*
X135810282Y-79549282D01*
X135906536Y-79423841D01*
X135967044Y-79277762D01*
X135987682Y-79121000D01*
X135967044Y-78964238D01*
X135906536Y-78818159D01*
X135871437Y-78772417D01*
X135810282Y-78692717D01*
X135684840Y-78596463D01*
X135538763Y-78535956D01*
X135538765Y-78535956D01*
X135382002Y-78515318D01*
X135381998Y-78515318D01*
X135225235Y-78535956D01*
X135079159Y-78596463D01*
X134953717Y-78692717D01*
X134892563Y-78772417D01*
X134853456Y-78794995D01*
X134845755Y-78795500D01*
X121825265Y-78795500D01*
X121783546Y-78778219D01*
X119967327Y-76962000D01*
X124166417Y-76962000D01*
X124167524Y-76973235D01*
X124186699Y-77167930D01*
X124186699Y-77167932D01*
X124186700Y-77167934D01*
X124246768Y-77365954D01*
X124246769Y-77365957D01*
X124246770Y-77365958D01*
X124344313Y-77548448D01*
X124475589Y-77708410D01*
X124635551Y-77839686D01*
X124692826Y-77870300D01*
X124818046Y-77937232D01*
X125016066Y-77997300D01*
X125222000Y-78017583D01*
X125427934Y-77997300D01*
X125625954Y-77937232D01*
X125808450Y-77839685D01*
X125968410Y-77708410D01*
X126099685Y-77548450D01*
X126197232Y-77365954D01*
X126257300Y-77167934D01*
X126277583Y-76962000D01*
X126265074Y-76835000D01*
X134580417Y-76835000D01*
X134600699Y-77040930D01*
X134600699Y-77040932D01*
X134600700Y-77040934D01*
X134660768Y-77238954D01*
X134660769Y-77238957D01*
X134660770Y-77238958D01*
X134758313Y-77421448D01*
X134889589Y-77581410D01*
X135049551Y-77712686D01*
X135156683Y-77769949D01*
X135232046Y-77810232D01*
X135430066Y-77870300D01*
X135636000Y-77890583D01*
X135841934Y-77870300D01*
X136039954Y-77810232D01*
X136222450Y-77712685D01*
X136382410Y-77581410D01*
X136513685Y-77421450D01*
X136611232Y-77238954D01*
X136671300Y-77040934D01*
X136691583Y-76835000D01*
X136671300Y-76629066D01*
X136611232Y-76431046D01*
X136513685Y-76248550D01*
X136486635Y-76215589D01*
X136382410Y-76088589D01*
X136222448Y-75957313D01*
X136039958Y-75859770D01*
X136039957Y-75859769D01*
X136039954Y-75859768D01*
X135841934Y-75799700D01*
X135841932Y-75799699D01*
X135841930Y-75799699D01*
X135636000Y-75779417D01*
X135430069Y-75799699D01*
X135430065Y-75799700D01*
X135430066Y-75799700D01*
X135232046Y-75859768D01*
X135232043Y-75859769D01*
X135232041Y-75859770D01*
X135049551Y-75957313D01*
X134889589Y-76088589D01*
X134758313Y-76248551D01*
X134660770Y-76431041D01*
X134660769Y-76431043D01*
X134660768Y-76431046D01*
X134617655Y-76573173D01*
X134600699Y-76629069D01*
X134580417Y-76835000D01*
X126265074Y-76835000D01*
X126257300Y-76756066D01*
X126197232Y-76558046D01*
X126156949Y-76482683D01*
X126099686Y-76375551D01*
X125968410Y-76215589D01*
X125808448Y-76084313D01*
X125625958Y-75986770D01*
X125625957Y-75986769D01*
X125625954Y-75986768D01*
X125427934Y-75926700D01*
X125427932Y-75926699D01*
X125427930Y-75926699D01*
X125250788Y-75909252D01*
X125222000Y-75906417D01*
X125221999Y-75906417D01*
X125016069Y-75926699D01*
X125016065Y-75926700D01*
X125016066Y-75926700D01*
X124818046Y-75986768D01*
X124818043Y-75986769D01*
X124818041Y-75986770D01*
X124635551Y-76084313D01*
X124475589Y-76215589D01*
X124344313Y-76375551D01*
X124246770Y-76558041D01*
X124246769Y-76558043D01*
X124246768Y-76558046D01*
X124217831Y-76653439D01*
X124186699Y-76756069D01*
X124167775Y-76948215D01*
X124166417Y-76962000D01*
X119967327Y-76962000D01*
X119595781Y-76590454D01*
X119578500Y-76548735D01*
X119578500Y-74422000D01*
X124166417Y-74422000D01*
X124186699Y-74627930D01*
X124186699Y-74627932D01*
X124186700Y-74627934D01*
X124246768Y-74825954D01*
X124246769Y-74825957D01*
X124246770Y-74825958D01*
X124344313Y-75008448D01*
X124475589Y-75168410D01*
X124635551Y-75299686D01*
X124692826Y-75330300D01*
X124818046Y-75397232D01*
X125016066Y-75457300D01*
X125222000Y-75477583D01*
X125427934Y-75457300D01*
X125625954Y-75397232D01*
X125808450Y-75299685D01*
X125968410Y-75168410D01*
X126099685Y-75008450D01*
X126197232Y-74825954D01*
X126257300Y-74627934D01*
X126277583Y-74422000D01*
X126265074Y-74295000D01*
X134580417Y-74295000D01*
X134600699Y-74500930D01*
X134600699Y-74500932D01*
X134600700Y-74500934D01*
X134660768Y-74698954D01*
X134660769Y-74698957D01*
X134660770Y-74698958D01*
X134758313Y-74881448D01*
X134889589Y-75041410D01*
X135049551Y-75172686D01*
X135156683Y-75229949D01*
X135232046Y-75270232D01*
X135430066Y-75330300D01*
X135636000Y-75350583D01*
X135841934Y-75330300D01*
X136039954Y-75270232D01*
X136222450Y-75172685D01*
X136382410Y-75041410D01*
X136513685Y-74881450D01*
X136611232Y-74698954D01*
X136671300Y-74500934D01*
X136691583Y-74295000D01*
X136671300Y-74089066D01*
X136611232Y-73891046D01*
X136513685Y-73708550D01*
X136486635Y-73675589D01*
X136382410Y-73548589D01*
X136222448Y-73417313D01*
X136039958Y-73319770D01*
X136039957Y-73319769D01*
X136039954Y-73319768D01*
X135841934Y-73259700D01*
X135841932Y-73259699D01*
X135841930Y-73259699D01*
X135636000Y-73239417D01*
X135430069Y-73259699D01*
X135398989Y-73269126D01*
X135232046Y-73319768D01*
X135232043Y-73319769D01*
X135232041Y-73319770D01*
X135049551Y-73417313D01*
X134889589Y-73548589D01*
X134758313Y-73708551D01*
X134660770Y-73891041D01*
X134660769Y-73891043D01*
X134660768Y-73891046D01*
X134610126Y-74057989D01*
X134600699Y-74089069D01*
X134580417Y-74295000D01*
X126265074Y-74295000D01*
X126257300Y-74216066D01*
X126197232Y-74018046D01*
X126156949Y-73942683D01*
X126099686Y-73835551D01*
X125968410Y-73675589D01*
X125808448Y-73544313D01*
X125625958Y-73446770D01*
X125625957Y-73446769D01*
X125625954Y-73446768D01*
X125427934Y-73386700D01*
X125427932Y-73386699D01*
X125427930Y-73386699D01*
X125250788Y-73369252D01*
X125222000Y-73366417D01*
X125221999Y-73366417D01*
X125016069Y-73386699D01*
X125016065Y-73386700D01*
X125016066Y-73386700D01*
X124818046Y-73446768D01*
X124818043Y-73446769D01*
X124818041Y-73446770D01*
X124635551Y-73544313D01*
X124475589Y-73675589D01*
X124344313Y-73835551D01*
X124246770Y-74018041D01*
X124246769Y-74018043D01*
X124246768Y-74018046D01*
X124196126Y-74184989D01*
X124186699Y-74216069D01*
X124166417Y-74422000D01*
X119578500Y-74422000D01*
X119578500Y-71881999D01*
X124166417Y-71881999D01*
X124186699Y-72087930D01*
X124186699Y-72087932D01*
X124186700Y-72087934D01*
X124246768Y-72285954D01*
X124246769Y-72285957D01*
X124246770Y-72285958D01*
X124344313Y-72468448D01*
X124475589Y-72628410D01*
X124635551Y-72759686D01*
X124742683Y-72816949D01*
X124818046Y-72857232D01*
X125016066Y-72917300D01*
X125222000Y-72937583D01*
X125427934Y-72917300D01*
X125625954Y-72857232D01*
X125808450Y-72759685D01*
X125938648Y-72652835D01*
X134286000Y-72652835D01*
X134292402Y-72712375D01*
X134292403Y-72712381D01*
X134342647Y-72847090D01*
X134428811Y-72962188D01*
X134543909Y-73048352D01*
X134678618Y-73098596D01*
X134678624Y-73098597D01*
X134738164Y-73104999D01*
X134738178Y-73105000D01*
X135386000Y-73105000D01*
X135386000Y-72190501D01*
X135493685Y-72239680D01*
X135600237Y-72255000D01*
X135671763Y-72255000D01*
X135778315Y-72239680D01*
X135886000Y-72190501D01*
X135886000Y-73105000D01*
X136533822Y-73105000D01*
X136533835Y-73104999D01*
X136593375Y-73098597D01*
X136593381Y-73098596D01*
X136728090Y-73048352D01*
X136843188Y-72962188D01*
X136929352Y-72847090D01*
X136979596Y-72712381D01*
X136979597Y-72712375D01*
X136985999Y-72652835D01*
X136986000Y-72652821D01*
X136986000Y-72005000D01*
X136069686Y-72005000D01*
X136095493Y-71964844D01*
X136136000Y-71826889D01*
X136136000Y-71683111D01*
X136095493Y-71545156D01*
X136069686Y-71505000D01*
X136986000Y-71505000D01*
X136986000Y-70857178D01*
X136985999Y-70857164D01*
X136979597Y-70797624D01*
X136979596Y-70797618D01*
X136929352Y-70662909D01*
X136843188Y-70547811D01*
X136728090Y-70461647D01*
X136593381Y-70411403D01*
X136593375Y-70411402D01*
X136533835Y-70405000D01*
X135886000Y-70405000D01*
X135886000Y-71319498D01*
X135778315Y-71270320D01*
X135671763Y-71255000D01*
X135600237Y-71255000D01*
X135493685Y-71270320D01*
X135386000Y-71319498D01*
X135386000Y-70405000D01*
X134738164Y-70405000D01*
X134678624Y-70411402D01*
X134678618Y-70411403D01*
X134543909Y-70461647D01*
X134428811Y-70547811D01*
X134342647Y-70662909D01*
X134292403Y-70797618D01*
X134292402Y-70797624D01*
X134286000Y-70857164D01*
X134286000Y-71505000D01*
X135202314Y-71505000D01*
X135176507Y-71545156D01*
X135136000Y-71683111D01*
X135136000Y-71826889D01*
X135176507Y-71964844D01*
X135202314Y-72005000D01*
X134286000Y-72005000D01*
X134286000Y-72652835D01*
X125938648Y-72652835D01*
X125968410Y-72628410D01*
X126099685Y-72468450D01*
X126197232Y-72285954D01*
X126257300Y-72087934D01*
X126277583Y-71882000D01*
X126257300Y-71676066D01*
X126197232Y-71478046D01*
X126141414Y-71373619D01*
X126099686Y-71295551D01*
X125968410Y-71135589D01*
X125808448Y-71004313D01*
X125625958Y-70906770D01*
X125625957Y-70906769D01*
X125625954Y-70906768D01*
X125427934Y-70846700D01*
X125427932Y-70846699D01*
X125427930Y-70846699D01*
X125250788Y-70829252D01*
X125222000Y-70826417D01*
X125221999Y-70826417D01*
X125016069Y-70846699D01*
X125016065Y-70846700D01*
X125016066Y-70846700D01*
X124818046Y-70906768D01*
X124818043Y-70906769D01*
X124818041Y-70906770D01*
X124635551Y-71004313D01*
X124475589Y-71135589D01*
X124344313Y-71295551D01*
X124246770Y-71478041D01*
X124246769Y-71478043D01*
X124246768Y-71478046D01*
X124238592Y-71505000D01*
X124186699Y-71676069D01*
X124166417Y-71881999D01*
X119578500Y-71881999D01*
X119578500Y-71275244D01*
X119595781Y-71233525D01*
X119601584Y-71228436D01*
X119681282Y-71167282D01*
X119777536Y-71041841D01*
X119838044Y-70895762D01*
X119858682Y-70739000D01*
X119838044Y-70582238D01*
X119801519Y-70494060D01*
X119777536Y-70436159D01*
X119681282Y-70310717D01*
X119588906Y-70239835D01*
X123872000Y-70239835D01*
X123878402Y-70299375D01*
X123878403Y-70299381D01*
X123928647Y-70434090D01*
X124014811Y-70549188D01*
X124129909Y-70635352D01*
X124264618Y-70685596D01*
X124264624Y-70685597D01*
X124324164Y-70691999D01*
X124324178Y-70692000D01*
X124972000Y-70692000D01*
X124972000Y-69777501D01*
X125079685Y-69826680D01*
X125186237Y-69842000D01*
X125257763Y-69842000D01*
X125364315Y-69826680D01*
X125472000Y-69777501D01*
X125472000Y-70692000D01*
X126119822Y-70692000D01*
X126119835Y-70691999D01*
X126179375Y-70685597D01*
X126179381Y-70685596D01*
X126314090Y-70635352D01*
X126429188Y-70549188D01*
X126515352Y-70434090D01*
X126565596Y-70299381D01*
X126565597Y-70299375D01*
X126571999Y-70239835D01*
X126572000Y-70239821D01*
X126572000Y-69592000D01*
X125655686Y-69592000D01*
X125681493Y-69551844D01*
X125722000Y-69413889D01*
X125722000Y-69270111D01*
X125681493Y-69132156D01*
X125655686Y-69092000D01*
X126572000Y-69092000D01*
X126572000Y-68444178D01*
X126571999Y-68444164D01*
X126565597Y-68384624D01*
X126565596Y-68384618D01*
X126515352Y-68249909D01*
X126429188Y-68134811D01*
X126314090Y-68048647D01*
X126179381Y-67998403D01*
X126179375Y-67998402D01*
X126119835Y-67992000D01*
X125472000Y-67992000D01*
X125472000Y-68906498D01*
X125364315Y-68857320D01*
X125257763Y-68842000D01*
X125186237Y-68842000D01*
X125079685Y-68857320D01*
X124972000Y-68906498D01*
X124972000Y-67992000D01*
X124324164Y-67992000D01*
X124264624Y-67998402D01*
X124264618Y-67998403D01*
X124129909Y-68048647D01*
X124014811Y-68134811D01*
X123928647Y-68249909D01*
X123878403Y-68384618D01*
X123878402Y-68384624D01*
X123872000Y-68444164D01*
X123872000Y-69092000D01*
X124788314Y-69092000D01*
X124762507Y-69132156D01*
X124722000Y-69270111D01*
X124722000Y-69413889D01*
X124762507Y-69551844D01*
X124788314Y-69592000D01*
X123872000Y-69592000D01*
X123872000Y-70239835D01*
X119588906Y-70239835D01*
X119555840Y-70214463D01*
X119409763Y-70153956D01*
X119409765Y-70153956D01*
X119253002Y-70133318D01*
X119252998Y-70133318D01*
X119096235Y-70153956D01*
X118950159Y-70214463D01*
X118824717Y-70310717D01*
X118728463Y-70436159D01*
X118667956Y-70582235D01*
X118647318Y-70738998D01*
X118647318Y-70739001D01*
X104140156Y-70739001D01*
X104217195Y-70653440D01*
X104309214Y-70494059D01*
X104319746Y-70461647D01*
X104366085Y-70319030D01*
X104368151Y-70299375D01*
X104385322Y-70136000D01*
X104366085Y-69952971D01*
X104366085Y-69952969D01*
X104309217Y-69777948D01*
X104309215Y-69777944D01*
X104309214Y-69777941D01*
X104217195Y-69618560D01*
X104094050Y-69481793D01*
X104094048Y-69481792D01*
X104094046Y-69481789D01*
X104094044Y-69481788D01*
X103945163Y-69373620D01*
X103945152Y-69373614D01*
X103777038Y-69298765D01*
X103777037Y-69298764D01*
X103597019Y-69260500D01*
X103412981Y-69260500D01*
X103232962Y-69298764D01*
X103232961Y-69298765D01*
X103064847Y-69373614D01*
X103064836Y-69373620D01*
X102915955Y-69481788D01*
X102915953Y-69481789D01*
X102792804Y-69618560D01*
X102792804Y-69618561D01*
X102700787Y-69777939D01*
X102700782Y-69777948D01*
X102643914Y-69952969D01*
X102624678Y-70136000D01*
X101600500Y-70136000D01*
X101600500Y-62035500D01*
X101617781Y-61993781D01*
X101659500Y-61976500D01*
X137227500Y-61976500D01*
X137269219Y-61993781D01*
G37*
%TD.AperFunction*%
%TD*%
M02*
