%TF.GenerationSoftware,KiCad,Pcbnew,7.0.6-1.fc38*%
%TF.CreationDate,2023-08-14T18:07:14+02:00*%
%TF.ProjectId,ESP12F_INSPIRE_WIFI,45535031-3246-45f4-994e-53504952455f,rev?*%
%TF.SameCoordinates,Original*%
%TF.FileFunction,Legend,Top*%
%TF.FilePolarity,Positive*%
%FSLAX46Y46*%
G04 Gerber Fmt 4.6, Leading zero omitted, Abs format (unit mm)*
G04 Created by KiCad (PCBNEW 7.0.6-1.fc38) date 2023-08-14 18:07:14*
%MOMM*%
%LPD*%
G01*
G04 APERTURE LIST*
%ADD10C,0.150000*%
%ADD11C,0.120000*%
G04 APERTURE END LIST*
D10*
X97968057Y-77009046D02*
X97920438Y-76961427D01*
X97920438Y-76961427D02*
X97872819Y-76866189D01*
X97872819Y-76866189D02*
X97872819Y-76628094D01*
X97872819Y-76628094D02*
X97920438Y-76532856D01*
X97920438Y-76532856D02*
X97968057Y-76485237D01*
X97968057Y-76485237D02*
X98063295Y-76437618D01*
X98063295Y-76437618D02*
X98158533Y-76437618D01*
X98158533Y-76437618D02*
X98301390Y-76485237D01*
X98301390Y-76485237D02*
X98872819Y-77056665D01*
X98872819Y-77056665D02*
X98872819Y-76437618D01*
X97872819Y-75818570D02*
X97872819Y-75723332D01*
X97872819Y-75723332D02*
X97920438Y-75628094D01*
X97920438Y-75628094D02*
X97968057Y-75580475D01*
X97968057Y-75580475D02*
X98063295Y-75532856D01*
X98063295Y-75532856D02*
X98253771Y-75485237D01*
X98253771Y-75485237D02*
X98491866Y-75485237D01*
X98491866Y-75485237D02*
X98682342Y-75532856D01*
X98682342Y-75532856D02*
X98777580Y-75580475D01*
X98777580Y-75580475D02*
X98825200Y-75628094D01*
X98825200Y-75628094D02*
X98872819Y-75723332D01*
X98872819Y-75723332D02*
X98872819Y-75818570D01*
X98872819Y-75818570D02*
X98825200Y-75913808D01*
X98825200Y-75913808D02*
X98777580Y-75961427D01*
X98777580Y-75961427D02*
X98682342Y-76009046D01*
X98682342Y-76009046D02*
X98491866Y-76056665D01*
X98491866Y-76056665D02*
X98253771Y-76056665D01*
X98253771Y-76056665D02*
X98063295Y-76009046D01*
X98063295Y-76009046D02*
X97968057Y-75961427D01*
X97968057Y-75961427D02*
X97920438Y-75913808D01*
X97920438Y-75913808D02*
X97872819Y-75818570D01*
X98825200Y-75009046D02*
X98872819Y-75009046D01*
X98872819Y-75009046D02*
X98968057Y-75056665D01*
X98968057Y-75056665D02*
X99015676Y-75104284D01*
X98301390Y-74437618D02*
X98253771Y-74532856D01*
X98253771Y-74532856D02*
X98206152Y-74580475D01*
X98206152Y-74580475D02*
X98110914Y-74628094D01*
X98110914Y-74628094D02*
X98063295Y-74628094D01*
X98063295Y-74628094D02*
X97968057Y-74580475D01*
X97968057Y-74580475D02*
X97920438Y-74532856D01*
X97920438Y-74532856D02*
X97872819Y-74437618D01*
X97872819Y-74437618D02*
X97872819Y-74247142D01*
X97872819Y-74247142D02*
X97920438Y-74151904D01*
X97920438Y-74151904D02*
X97968057Y-74104285D01*
X97968057Y-74104285D02*
X98063295Y-74056666D01*
X98063295Y-74056666D02*
X98110914Y-74056666D01*
X98110914Y-74056666D02*
X98206152Y-74104285D01*
X98206152Y-74104285D02*
X98253771Y-74151904D01*
X98253771Y-74151904D02*
X98301390Y-74247142D01*
X98301390Y-74247142D02*
X98301390Y-74437618D01*
X98301390Y-74437618D02*
X98349009Y-74532856D01*
X98349009Y-74532856D02*
X98396628Y-74580475D01*
X98396628Y-74580475D02*
X98491866Y-74628094D01*
X98491866Y-74628094D02*
X98682342Y-74628094D01*
X98682342Y-74628094D02*
X98777580Y-74580475D01*
X98777580Y-74580475D02*
X98825200Y-74532856D01*
X98825200Y-74532856D02*
X98872819Y-74437618D01*
X98872819Y-74437618D02*
X98872819Y-74247142D01*
X98872819Y-74247142D02*
X98825200Y-74151904D01*
X98825200Y-74151904D02*
X98777580Y-74104285D01*
X98777580Y-74104285D02*
X98682342Y-74056666D01*
X98682342Y-74056666D02*
X98491866Y-74056666D01*
X98491866Y-74056666D02*
X98396628Y-74104285D01*
X98396628Y-74104285D02*
X98349009Y-74151904D01*
X98349009Y-74151904D02*
X98301390Y-74247142D01*
X97968057Y-73675713D02*
X97920438Y-73628094D01*
X97920438Y-73628094D02*
X97872819Y-73532856D01*
X97872819Y-73532856D02*
X97872819Y-73294761D01*
X97872819Y-73294761D02*
X97920438Y-73199523D01*
X97920438Y-73199523D02*
X97968057Y-73151904D01*
X97968057Y-73151904D02*
X98063295Y-73104285D01*
X98063295Y-73104285D02*
X98158533Y-73104285D01*
X98158533Y-73104285D02*
X98301390Y-73151904D01*
X98301390Y-73151904D02*
X98872819Y-73723332D01*
X98872819Y-73723332D02*
X98872819Y-73104285D01*
X98301390Y-72532856D02*
X98253771Y-72628094D01*
X98253771Y-72628094D02*
X98206152Y-72675713D01*
X98206152Y-72675713D02*
X98110914Y-72723332D01*
X98110914Y-72723332D02*
X98063295Y-72723332D01*
X98063295Y-72723332D02*
X97968057Y-72675713D01*
X97968057Y-72675713D02*
X97920438Y-72628094D01*
X97920438Y-72628094D02*
X97872819Y-72532856D01*
X97872819Y-72532856D02*
X97872819Y-72342380D01*
X97872819Y-72342380D02*
X97920438Y-72247142D01*
X97920438Y-72247142D02*
X97968057Y-72199523D01*
X97968057Y-72199523D02*
X98063295Y-72151904D01*
X98063295Y-72151904D02*
X98110914Y-72151904D01*
X98110914Y-72151904D02*
X98206152Y-72199523D01*
X98206152Y-72199523D02*
X98253771Y-72247142D01*
X98253771Y-72247142D02*
X98301390Y-72342380D01*
X98301390Y-72342380D02*
X98301390Y-72532856D01*
X98301390Y-72532856D02*
X98349009Y-72628094D01*
X98349009Y-72628094D02*
X98396628Y-72675713D01*
X98396628Y-72675713D02*
X98491866Y-72723332D01*
X98491866Y-72723332D02*
X98682342Y-72723332D01*
X98682342Y-72723332D02*
X98777580Y-72675713D01*
X98777580Y-72675713D02*
X98825200Y-72628094D01*
X98825200Y-72628094D02*
X98872819Y-72532856D01*
X98872819Y-72532856D02*
X98872819Y-72342380D01*
X98872819Y-72342380D02*
X98825200Y-72247142D01*
X98825200Y-72247142D02*
X98777580Y-72199523D01*
X98777580Y-72199523D02*
X98682342Y-72151904D01*
X98682342Y-72151904D02*
X98491866Y-72151904D01*
X98491866Y-72151904D02*
X98396628Y-72199523D01*
X98396628Y-72199523D02*
X98349009Y-72247142D01*
X98349009Y-72247142D02*
X98301390Y-72342380D01*
X97872819Y-71532856D02*
X97872819Y-71437618D01*
X97872819Y-71437618D02*
X97920438Y-71342380D01*
X97920438Y-71342380D02*
X97968057Y-71294761D01*
X97968057Y-71294761D02*
X98063295Y-71247142D01*
X98063295Y-71247142D02*
X98253771Y-71199523D01*
X98253771Y-71199523D02*
X98491866Y-71199523D01*
X98491866Y-71199523D02*
X98682342Y-71247142D01*
X98682342Y-71247142D02*
X98777580Y-71294761D01*
X98777580Y-71294761D02*
X98825200Y-71342380D01*
X98825200Y-71342380D02*
X98872819Y-71437618D01*
X98872819Y-71437618D02*
X98872819Y-71532856D01*
X98872819Y-71532856D02*
X98825200Y-71628094D01*
X98825200Y-71628094D02*
X98777580Y-71675713D01*
X98777580Y-71675713D02*
X98682342Y-71723332D01*
X98682342Y-71723332D02*
X98491866Y-71770951D01*
X98491866Y-71770951D02*
X98253771Y-71770951D01*
X98253771Y-71770951D02*
X98063295Y-71723332D01*
X98063295Y-71723332D02*
X97968057Y-71675713D01*
X97968057Y-71675713D02*
X97920438Y-71628094D01*
X97920438Y-71628094D02*
X97872819Y-71532856D01*
X98872819Y-70009046D02*
X98206152Y-70009046D01*
X98301390Y-70009046D02*
X98253771Y-69961427D01*
X98253771Y-69961427D02*
X98206152Y-69866189D01*
X98206152Y-69866189D02*
X98206152Y-69723332D01*
X98206152Y-69723332D02*
X98253771Y-69628094D01*
X98253771Y-69628094D02*
X98349009Y-69580475D01*
X98349009Y-69580475D02*
X98872819Y-69580475D01*
X98349009Y-69580475D02*
X98253771Y-69532856D01*
X98253771Y-69532856D02*
X98206152Y-69437618D01*
X98206152Y-69437618D02*
X98206152Y-69294761D01*
X98206152Y-69294761D02*
X98253771Y-69199522D01*
X98253771Y-69199522D02*
X98349009Y-69151903D01*
X98349009Y-69151903D02*
X98872819Y-69151903D01*
X98872819Y-68675713D02*
X98206152Y-68675713D01*
X98301390Y-68675713D02*
X98253771Y-68628094D01*
X98253771Y-68628094D02*
X98206152Y-68532856D01*
X98206152Y-68532856D02*
X98206152Y-68389999D01*
X98206152Y-68389999D02*
X98253771Y-68294761D01*
X98253771Y-68294761D02*
X98349009Y-68247142D01*
X98349009Y-68247142D02*
X98872819Y-68247142D01*
X98349009Y-68247142D02*
X98253771Y-68199523D01*
X98253771Y-68199523D02*
X98206152Y-68104285D01*
X98206152Y-68104285D02*
X98206152Y-67961428D01*
X98206152Y-67961428D02*
X98253771Y-67866189D01*
X98253771Y-67866189D02*
X98349009Y-67818570D01*
X98349009Y-67818570D02*
X98872819Y-67818570D01*
X101100000Y-82804000D02*
X98981580Y-82804000D01*
X101100000Y-61976000D02*
X98981580Y-61976000D01*
X99568000Y-82804000D02*
X99568000Y-61976000D01*
X99568000Y-82804000D02*
X99568000Y-61976000D01*
X99568000Y-82804000D02*
X98981579Y-81677496D01*
X99568000Y-82804000D02*
X100154421Y-81677496D01*
X99568000Y-61976000D02*
X100154421Y-63102504D01*
X99568000Y-61976000D02*
X98981579Y-63102504D01*
X114776834Y-58121819D02*
X115395881Y-58121819D01*
X115395881Y-58121819D02*
X115062548Y-58502771D01*
X115062548Y-58502771D02*
X115205405Y-58502771D01*
X115205405Y-58502771D02*
X115300643Y-58550390D01*
X115300643Y-58550390D02*
X115348262Y-58598009D01*
X115348262Y-58598009D02*
X115395881Y-58693247D01*
X115395881Y-58693247D02*
X115395881Y-58931342D01*
X115395881Y-58931342D02*
X115348262Y-59026580D01*
X115348262Y-59026580D02*
X115300643Y-59074200D01*
X115300643Y-59074200D02*
X115205405Y-59121819D01*
X115205405Y-59121819D02*
X114919691Y-59121819D01*
X114919691Y-59121819D02*
X114824453Y-59074200D01*
X114824453Y-59074200D02*
X114776834Y-59026580D01*
X116300643Y-58121819D02*
X115824453Y-58121819D01*
X115824453Y-58121819D02*
X115776834Y-58598009D01*
X115776834Y-58598009D02*
X115824453Y-58550390D01*
X115824453Y-58550390D02*
X115919691Y-58502771D01*
X115919691Y-58502771D02*
X116157786Y-58502771D01*
X116157786Y-58502771D02*
X116253024Y-58550390D01*
X116253024Y-58550390D02*
X116300643Y-58598009D01*
X116300643Y-58598009D02*
X116348262Y-58693247D01*
X116348262Y-58693247D02*
X116348262Y-58931342D01*
X116348262Y-58931342D02*
X116300643Y-59026580D01*
X116300643Y-59026580D02*
X116253024Y-59074200D01*
X116253024Y-59074200D02*
X116157786Y-59121819D01*
X116157786Y-59121819D02*
X115919691Y-59121819D01*
X115919691Y-59121819D02*
X115824453Y-59074200D01*
X115824453Y-59074200D02*
X115776834Y-59026580D01*
X116824453Y-59074200D02*
X116824453Y-59121819D01*
X116824453Y-59121819D02*
X116776834Y-59217057D01*
X116776834Y-59217057D02*
X116729215Y-59264676D01*
X117681595Y-58121819D02*
X117491119Y-58121819D01*
X117491119Y-58121819D02*
X117395881Y-58169438D01*
X117395881Y-58169438D02*
X117348262Y-58217057D01*
X117348262Y-58217057D02*
X117253024Y-58359914D01*
X117253024Y-58359914D02*
X117205405Y-58550390D01*
X117205405Y-58550390D02*
X117205405Y-58931342D01*
X117205405Y-58931342D02*
X117253024Y-59026580D01*
X117253024Y-59026580D02*
X117300643Y-59074200D01*
X117300643Y-59074200D02*
X117395881Y-59121819D01*
X117395881Y-59121819D02*
X117586357Y-59121819D01*
X117586357Y-59121819D02*
X117681595Y-59074200D01*
X117681595Y-59074200D02*
X117729214Y-59026580D01*
X117729214Y-59026580D02*
X117776833Y-58931342D01*
X117776833Y-58931342D02*
X117776833Y-58693247D01*
X117776833Y-58693247D02*
X117729214Y-58598009D01*
X117729214Y-58598009D02*
X117681595Y-58550390D01*
X117681595Y-58550390D02*
X117586357Y-58502771D01*
X117586357Y-58502771D02*
X117395881Y-58502771D01*
X117395881Y-58502771D02*
X117300643Y-58550390D01*
X117300643Y-58550390D02*
X117253024Y-58598009D01*
X117253024Y-58598009D02*
X117205405Y-58693247D01*
X118348262Y-58550390D02*
X118253024Y-58502771D01*
X118253024Y-58502771D02*
X118205405Y-58455152D01*
X118205405Y-58455152D02*
X118157786Y-58359914D01*
X118157786Y-58359914D02*
X118157786Y-58312295D01*
X118157786Y-58312295D02*
X118205405Y-58217057D01*
X118205405Y-58217057D02*
X118253024Y-58169438D01*
X118253024Y-58169438D02*
X118348262Y-58121819D01*
X118348262Y-58121819D02*
X118538738Y-58121819D01*
X118538738Y-58121819D02*
X118633976Y-58169438D01*
X118633976Y-58169438D02*
X118681595Y-58217057D01*
X118681595Y-58217057D02*
X118729214Y-58312295D01*
X118729214Y-58312295D02*
X118729214Y-58359914D01*
X118729214Y-58359914D02*
X118681595Y-58455152D01*
X118681595Y-58455152D02*
X118633976Y-58502771D01*
X118633976Y-58502771D02*
X118538738Y-58550390D01*
X118538738Y-58550390D02*
X118348262Y-58550390D01*
X118348262Y-58550390D02*
X118253024Y-58598009D01*
X118253024Y-58598009D02*
X118205405Y-58645628D01*
X118205405Y-58645628D02*
X118157786Y-58740866D01*
X118157786Y-58740866D02*
X118157786Y-58931342D01*
X118157786Y-58931342D02*
X118205405Y-59026580D01*
X118205405Y-59026580D02*
X118253024Y-59074200D01*
X118253024Y-59074200D02*
X118348262Y-59121819D01*
X118348262Y-59121819D02*
X118538738Y-59121819D01*
X118538738Y-59121819D02*
X118633976Y-59074200D01*
X118633976Y-59074200D02*
X118681595Y-59026580D01*
X118681595Y-59026580D02*
X118729214Y-58931342D01*
X118729214Y-58931342D02*
X118729214Y-58740866D01*
X118729214Y-58740866D02*
X118681595Y-58645628D01*
X118681595Y-58645628D02*
X118633976Y-58598009D01*
X118633976Y-58598009D02*
X118538738Y-58550390D01*
X119062548Y-58121819D02*
X119729214Y-58121819D01*
X119729214Y-58121819D02*
X119300643Y-59121819D01*
X120300643Y-58121819D02*
X120395881Y-58121819D01*
X120395881Y-58121819D02*
X120491119Y-58169438D01*
X120491119Y-58169438D02*
X120538738Y-58217057D01*
X120538738Y-58217057D02*
X120586357Y-58312295D01*
X120586357Y-58312295D02*
X120633976Y-58502771D01*
X120633976Y-58502771D02*
X120633976Y-58740866D01*
X120633976Y-58740866D02*
X120586357Y-58931342D01*
X120586357Y-58931342D02*
X120538738Y-59026580D01*
X120538738Y-59026580D02*
X120491119Y-59074200D01*
X120491119Y-59074200D02*
X120395881Y-59121819D01*
X120395881Y-59121819D02*
X120300643Y-59121819D01*
X120300643Y-59121819D02*
X120205405Y-59074200D01*
X120205405Y-59074200D02*
X120157786Y-59026580D01*
X120157786Y-59026580D02*
X120110167Y-58931342D01*
X120110167Y-58931342D02*
X120062548Y-58740866D01*
X120062548Y-58740866D02*
X120062548Y-58502771D01*
X120062548Y-58502771D02*
X120110167Y-58312295D01*
X120110167Y-58312295D02*
X120157786Y-58217057D01*
X120157786Y-58217057D02*
X120205405Y-58169438D01*
X120205405Y-58169438D02*
X120300643Y-58121819D01*
X121824453Y-59121819D02*
X121824453Y-58455152D01*
X121824453Y-58550390D02*
X121872072Y-58502771D01*
X121872072Y-58502771D02*
X121967310Y-58455152D01*
X121967310Y-58455152D02*
X122110167Y-58455152D01*
X122110167Y-58455152D02*
X122205405Y-58502771D01*
X122205405Y-58502771D02*
X122253024Y-58598009D01*
X122253024Y-58598009D02*
X122253024Y-59121819D01*
X122253024Y-58598009D02*
X122300643Y-58502771D01*
X122300643Y-58502771D02*
X122395881Y-58455152D01*
X122395881Y-58455152D02*
X122538738Y-58455152D01*
X122538738Y-58455152D02*
X122633977Y-58502771D01*
X122633977Y-58502771D02*
X122681596Y-58598009D01*
X122681596Y-58598009D02*
X122681596Y-59121819D01*
X123157786Y-59121819D02*
X123157786Y-58455152D01*
X123157786Y-58550390D02*
X123205405Y-58502771D01*
X123205405Y-58502771D02*
X123300643Y-58455152D01*
X123300643Y-58455152D02*
X123443500Y-58455152D01*
X123443500Y-58455152D02*
X123538738Y-58502771D01*
X123538738Y-58502771D02*
X123586357Y-58598009D01*
X123586357Y-58598009D02*
X123586357Y-59121819D01*
X123586357Y-58598009D02*
X123633976Y-58502771D01*
X123633976Y-58502771D02*
X123729214Y-58455152D01*
X123729214Y-58455152D02*
X123872071Y-58455152D01*
X123872071Y-58455152D02*
X123967310Y-58502771D01*
X123967310Y-58502771D02*
X124014929Y-58598009D01*
X124014929Y-58598009D02*
X124014929Y-59121819D01*
X101600000Y-61476000D02*
X101600000Y-59230580D01*
X137287000Y-61476000D02*
X137287000Y-59230580D01*
X101600000Y-59817000D02*
X137287000Y-59817000D01*
X101600000Y-59817000D02*
X137287000Y-59817000D01*
X101600000Y-59817000D02*
X102726504Y-59230579D01*
X101600000Y-59817000D02*
X102726504Y-60403421D01*
X137287000Y-59817000D02*
X136160496Y-60403421D01*
X137287000Y-59817000D02*
X136160496Y-59230579D01*
X128198405Y-73986819D02*
X128198405Y-72986819D01*
X128198405Y-72986819D02*
X128436500Y-72986819D01*
X128436500Y-72986819D02*
X128579357Y-73034438D01*
X128579357Y-73034438D02*
X128674595Y-73129676D01*
X128674595Y-73129676D02*
X128722214Y-73224914D01*
X128722214Y-73224914D02*
X128769833Y-73415390D01*
X128769833Y-73415390D02*
X128769833Y-73558247D01*
X128769833Y-73558247D02*
X128722214Y-73748723D01*
X128722214Y-73748723D02*
X128674595Y-73843961D01*
X128674595Y-73843961D02*
X128579357Y-73939200D01*
X128579357Y-73939200D02*
X128436500Y-73986819D01*
X128436500Y-73986819D02*
X128198405Y-73986819D01*
X129722214Y-73986819D02*
X129150786Y-73986819D01*
X129436500Y-73986819D02*
X129436500Y-72986819D01*
X129436500Y-72986819D02*
X129341262Y-73129676D01*
X129341262Y-73129676D02*
X129246024Y-73224914D01*
X129246024Y-73224914D02*
X129150786Y-73272533D01*
X128198405Y-76526819D02*
X128198405Y-75526819D01*
X128198405Y-75526819D02*
X128436500Y-75526819D01*
X128436500Y-75526819D02*
X128579357Y-75574438D01*
X128579357Y-75574438D02*
X128674595Y-75669676D01*
X128674595Y-75669676D02*
X128722214Y-75764914D01*
X128722214Y-75764914D02*
X128769833Y-75955390D01*
X128769833Y-75955390D02*
X128769833Y-76098247D01*
X128769833Y-76098247D02*
X128722214Y-76288723D01*
X128722214Y-76288723D02*
X128674595Y-76383961D01*
X128674595Y-76383961D02*
X128579357Y-76479200D01*
X128579357Y-76479200D02*
X128436500Y-76526819D01*
X128436500Y-76526819D02*
X128198405Y-76526819D01*
X129150786Y-75622057D02*
X129198405Y-75574438D01*
X129198405Y-75574438D02*
X129293643Y-75526819D01*
X129293643Y-75526819D02*
X129531738Y-75526819D01*
X129531738Y-75526819D02*
X129626976Y-75574438D01*
X129626976Y-75574438D02*
X129674595Y-75622057D01*
X129674595Y-75622057D02*
X129722214Y-75717295D01*
X129722214Y-75717295D02*
X129722214Y-75812533D01*
X129722214Y-75812533D02*
X129674595Y-75955390D01*
X129674595Y-75955390D02*
X129103167Y-76526819D01*
X129103167Y-76526819D02*
X129722214Y-76526819D01*
X109053333Y-62304819D02*
X108720000Y-61828628D01*
X108481905Y-62304819D02*
X108481905Y-61304819D01*
X108481905Y-61304819D02*
X108862857Y-61304819D01*
X108862857Y-61304819D02*
X108958095Y-61352438D01*
X108958095Y-61352438D02*
X109005714Y-61400057D01*
X109005714Y-61400057D02*
X109053333Y-61495295D01*
X109053333Y-61495295D02*
X109053333Y-61638152D01*
X109053333Y-61638152D02*
X109005714Y-61733390D01*
X109005714Y-61733390D02*
X108958095Y-61781009D01*
X108958095Y-61781009D02*
X108862857Y-61828628D01*
X108862857Y-61828628D02*
X108481905Y-61828628D01*
X109958095Y-61304819D02*
X109481905Y-61304819D01*
X109481905Y-61304819D02*
X109434286Y-61781009D01*
X109434286Y-61781009D02*
X109481905Y-61733390D01*
X109481905Y-61733390D02*
X109577143Y-61685771D01*
X109577143Y-61685771D02*
X109815238Y-61685771D01*
X109815238Y-61685771D02*
X109910476Y-61733390D01*
X109910476Y-61733390D02*
X109958095Y-61781009D01*
X109958095Y-61781009D02*
X110005714Y-61876247D01*
X110005714Y-61876247D02*
X110005714Y-62114342D01*
X110005714Y-62114342D02*
X109958095Y-62209580D01*
X109958095Y-62209580D02*
X109910476Y-62257200D01*
X109910476Y-62257200D02*
X109815238Y-62304819D01*
X109815238Y-62304819D02*
X109577143Y-62304819D01*
X109577143Y-62304819D02*
X109481905Y-62257200D01*
X109481905Y-62257200D02*
X109434286Y-62209580D01*
X126564819Y-80835166D02*
X126088628Y-81168499D01*
X126564819Y-81406594D02*
X125564819Y-81406594D01*
X125564819Y-81406594D02*
X125564819Y-81025642D01*
X125564819Y-81025642D02*
X125612438Y-80930404D01*
X125612438Y-80930404D02*
X125660057Y-80882785D01*
X125660057Y-80882785D02*
X125755295Y-80835166D01*
X125755295Y-80835166D02*
X125898152Y-80835166D01*
X125898152Y-80835166D02*
X125993390Y-80882785D01*
X125993390Y-80882785D02*
X126041009Y-80930404D01*
X126041009Y-80930404D02*
X126088628Y-81025642D01*
X126088628Y-81025642D02*
X126088628Y-81406594D01*
X125564819Y-79978023D02*
X125564819Y-80168499D01*
X125564819Y-80168499D02*
X125612438Y-80263737D01*
X125612438Y-80263737D02*
X125660057Y-80311356D01*
X125660057Y-80311356D02*
X125802914Y-80406594D01*
X125802914Y-80406594D02*
X125993390Y-80454213D01*
X125993390Y-80454213D02*
X126374342Y-80454213D01*
X126374342Y-80454213D02*
X126469580Y-80406594D01*
X126469580Y-80406594D02*
X126517200Y-80358975D01*
X126517200Y-80358975D02*
X126564819Y-80263737D01*
X126564819Y-80263737D02*
X126564819Y-80073261D01*
X126564819Y-80073261D02*
X126517200Y-79978023D01*
X126517200Y-79978023D02*
X126469580Y-79930404D01*
X126469580Y-79930404D02*
X126374342Y-79882785D01*
X126374342Y-79882785D02*
X126136247Y-79882785D01*
X126136247Y-79882785D02*
X126041009Y-79930404D01*
X126041009Y-79930404D02*
X125993390Y-79978023D01*
X125993390Y-79978023D02*
X125945771Y-80073261D01*
X125945771Y-80073261D02*
X125945771Y-80263737D01*
X125945771Y-80263737D02*
X125993390Y-80358975D01*
X125993390Y-80358975D02*
X126041009Y-80406594D01*
X126041009Y-80406594D02*
X126136247Y-80454213D01*
X132477833Y-73859819D02*
X132144500Y-73383628D01*
X131906405Y-73859819D02*
X131906405Y-72859819D01*
X131906405Y-72859819D02*
X132287357Y-72859819D01*
X132287357Y-72859819D02*
X132382595Y-72907438D01*
X132382595Y-72907438D02*
X132430214Y-72955057D01*
X132430214Y-72955057D02*
X132477833Y-73050295D01*
X132477833Y-73050295D02*
X132477833Y-73193152D01*
X132477833Y-73193152D02*
X132430214Y-73288390D01*
X132430214Y-73288390D02*
X132382595Y-73336009D01*
X132382595Y-73336009D02*
X132287357Y-73383628D01*
X132287357Y-73383628D02*
X131906405Y-73383628D01*
X132811167Y-72859819D02*
X133477833Y-72859819D01*
X133477833Y-72859819D02*
X133049262Y-73859819D01*
X128198405Y-79066819D02*
X128198405Y-78066819D01*
X128198405Y-78066819D02*
X128436500Y-78066819D01*
X128436500Y-78066819D02*
X128579357Y-78114438D01*
X128579357Y-78114438D02*
X128674595Y-78209676D01*
X128674595Y-78209676D02*
X128722214Y-78304914D01*
X128722214Y-78304914D02*
X128769833Y-78495390D01*
X128769833Y-78495390D02*
X128769833Y-78638247D01*
X128769833Y-78638247D02*
X128722214Y-78828723D01*
X128722214Y-78828723D02*
X128674595Y-78923961D01*
X128674595Y-78923961D02*
X128579357Y-79019200D01*
X128579357Y-79019200D02*
X128436500Y-79066819D01*
X128436500Y-79066819D02*
X128198405Y-79066819D01*
X129103167Y-78066819D02*
X129722214Y-78066819D01*
X129722214Y-78066819D02*
X129388881Y-78447771D01*
X129388881Y-78447771D02*
X129531738Y-78447771D01*
X129531738Y-78447771D02*
X129626976Y-78495390D01*
X129626976Y-78495390D02*
X129674595Y-78543009D01*
X129674595Y-78543009D02*
X129722214Y-78638247D01*
X129722214Y-78638247D02*
X129722214Y-78876342D01*
X129722214Y-78876342D02*
X129674595Y-78971580D01*
X129674595Y-78971580D02*
X129626976Y-79019200D01*
X129626976Y-79019200D02*
X129531738Y-79066819D01*
X129531738Y-79066819D02*
X129246024Y-79066819D01*
X129246024Y-79066819D02*
X129150786Y-79019200D01*
X129150786Y-79019200D02*
X129103167Y-78971580D01*
X103211333Y-64335819D02*
X102878000Y-63859628D01*
X102639905Y-64335819D02*
X102639905Y-63335819D01*
X102639905Y-63335819D02*
X103020857Y-63335819D01*
X103020857Y-63335819D02*
X103116095Y-63383438D01*
X103116095Y-63383438D02*
X103163714Y-63431057D01*
X103163714Y-63431057D02*
X103211333Y-63526295D01*
X103211333Y-63526295D02*
X103211333Y-63669152D01*
X103211333Y-63669152D02*
X103163714Y-63764390D01*
X103163714Y-63764390D02*
X103116095Y-63812009D01*
X103116095Y-63812009D02*
X103020857Y-63859628D01*
X103020857Y-63859628D02*
X102639905Y-63859628D01*
X103592286Y-63431057D02*
X103639905Y-63383438D01*
X103639905Y-63383438D02*
X103735143Y-63335819D01*
X103735143Y-63335819D02*
X103973238Y-63335819D01*
X103973238Y-63335819D02*
X104068476Y-63383438D01*
X104068476Y-63383438D02*
X104116095Y-63431057D01*
X104116095Y-63431057D02*
X104163714Y-63526295D01*
X104163714Y-63526295D02*
X104163714Y-63621533D01*
X104163714Y-63621533D02*
X104116095Y-63764390D01*
X104116095Y-63764390D02*
X103544667Y-64335819D01*
X103544667Y-64335819D02*
X104163714Y-64335819D01*
X125804819Y-80835166D02*
X125328628Y-81168499D01*
X125804819Y-81406594D02*
X124804819Y-81406594D01*
X124804819Y-81406594D02*
X124804819Y-81025642D01*
X124804819Y-81025642D02*
X124852438Y-80930404D01*
X124852438Y-80930404D02*
X124900057Y-80882785D01*
X124900057Y-80882785D02*
X124995295Y-80835166D01*
X124995295Y-80835166D02*
X125138152Y-80835166D01*
X125138152Y-80835166D02*
X125233390Y-80882785D01*
X125233390Y-80882785D02*
X125281009Y-80930404D01*
X125281009Y-80930404D02*
X125328628Y-81025642D01*
X125328628Y-81025642D02*
X125328628Y-81406594D01*
X125804819Y-79882785D02*
X125804819Y-80454213D01*
X125804819Y-80168499D02*
X124804819Y-80168499D01*
X124804819Y-80168499D02*
X124947676Y-80263737D01*
X124947676Y-80263737D02*
X125042914Y-80358975D01*
X125042914Y-80358975D02*
X125090533Y-80454213D01*
X124118095Y-82875819D02*
X124118095Y-83685342D01*
X124118095Y-83685342D02*
X124165714Y-83780580D01*
X124165714Y-83780580D02*
X124213333Y-83828200D01*
X124213333Y-83828200D02*
X124308571Y-83875819D01*
X124308571Y-83875819D02*
X124499047Y-83875819D01*
X124499047Y-83875819D02*
X124594285Y-83828200D01*
X124594285Y-83828200D02*
X124641904Y-83780580D01*
X124641904Y-83780580D02*
X124689523Y-83685342D01*
X124689523Y-83685342D02*
X124689523Y-82875819D01*
X125689523Y-83875819D02*
X125118095Y-83875819D01*
X125403809Y-83875819D02*
X125403809Y-82875819D01*
X125403809Y-82875819D02*
X125308571Y-83018676D01*
X125308571Y-83018676D02*
X125213333Y-83113914D01*
X125213333Y-83113914D02*
X125118095Y-83161533D01*
X133437333Y-63097580D02*
X133389714Y-63145200D01*
X133389714Y-63145200D02*
X133246857Y-63192819D01*
X133246857Y-63192819D02*
X133151619Y-63192819D01*
X133151619Y-63192819D02*
X133008762Y-63145200D01*
X133008762Y-63145200D02*
X132913524Y-63049961D01*
X132913524Y-63049961D02*
X132865905Y-62954723D01*
X132865905Y-62954723D02*
X132818286Y-62764247D01*
X132818286Y-62764247D02*
X132818286Y-62621390D01*
X132818286Y-62621390D02*
X132865905Y-62430914D01*
X132865905Y-62430914D02*
X132913524Y-62335676D01*
X132913524Y-62335676D02*
X133008762Y-62240438D01*
X133008762Y-62240438D02*
X133151619Y-62192819D01*
X133151619Y-62192819D02*
X133246857Y-62192819D01*
X133246857Y-62192819D02*
X133389714Y-62240438D01*
X133389714Y-62240438D02*
X133437333Y-62288057D01*
X134389714Y-63192819D02*
X133818286Y-63192819D01*
X134104000Y-63192819D02*
X134104000Y-62192819D01*
X134104000Y-62192819D02*
X134008762Y-62335676D01*
X134008762Y-62335676D02*
X133913524Y-62430914D01*
X133913524Y-62430914D02*
X133818286Y-62478533D01*
X135302666Y-68439819D02*
X135302666Y-69154104D01*
X135302666Y-69154104D02*
X135255047Y-69296961D01*
X135255047Y-69296961D02*
X135159809Y-69392200D01*
X135159809Y-69392200D02*
X135016952Y-69439819D01*
X135016952Y-69439819D02*
X134921714Y-69439819D01*
X135683619Y-68439819D02*
X136302666Y-68439819D01*
X136302666Y-68439819D02*
X135969333Y-68820771D01*
X135969333Y-68820771D02*
X136112190Y-68820771D01*
X136112190Y-68820771D02*
X136207428Y-68868390D01*
X136207428Y-68868390D02*
X136255047Y-68916009D01*
X136255047Y-68916009D02*
X136302666Y-69011247D01*
X136302666Y-69011247D02*
X136302666Y-69249342D01*
X136302666Y-69249342D02*
X136255047Y-69344580D01*
X136255047Y-69344580D02*
X136207428Y-69392200D01*
X136207428Y-69392200D02*
X136112190Y-69439819D01*
X136112190Y-69439819D02*
X135826476Y-69439819D01*
X135826476Y-69439819D02*
X135731238Y-69392200D01*
X135731238Y-69392200D02*
X135683619Y-69344580D01*
X103171666Y-81650819D02*
X103171666Y-82365104D01*
X103171666Y-82365104D02*
X103124047Y-82507961D01*
X103124047Y-82507961D02*
X103028809Y-82603200D01*
X103028809Y-82603200D02*
X102885952Y-82650819D01*
X102885952Y-82650819D02*
X102790714Y-82650819D01*
X103600238Y-81746057D02*
X103647857Y-81698438D01*
X103647857Y-81698438D02*
X103743095Y-81650819D01*
X103743095Y-81650819D02*
X103981190Y-81650819D01*
X103981190Y-81650819D02*
X104076428Y-81698438D01*
X104076428Y-81698438D02*
X104124047Y-81746057D01*
X104124047Y-81746057D02*
X104171666Y-81841295D01*
X104171666Y-81841295D02*
X104171666Y-81936533D01*
X104171666Y-81936533D02*
X104124047Y-82079390D01*
X104124047Y-82079390D02*
X103552619Y-82650819D01*
X103552619Y-82650819D02*
X104171666Y-82650819D01*
X120205833Y-62304819D02*
X119872500Y-61828628D01*
X119634405Y-62304819D02*
X119634405Y-61304819D01*
X119634405Y-61304819D02*
X120015357Y-61304819D01*
X120015357Y-61304819D02*
X120110595Y-61352438D01*
X120110595Y-61352438D02*
X120158214Y-61400057D01*
X120158214Y-61400057D02*
X120205833Y-61495295D01*
X120205833Y-61495295D02*
X120205833Y-61638152D01*
X120205833Y-61638152D02*
X120158214Y-61733390D01*
X120158214Y-61733390D02*
X120110595Y-61781009D01*
X120110595Y-61781009D02*
X120015357Y-61828628D01*
X120015357Y-61828628D02*
X119634405Y-61828628D01*
X120539167Y-61304819D02*
X121158214Y-61304819D01*
X121158214Y-61304819D02*
X120824881Y-61685771D01*
X120824881Y-61685771D02*
X120967738Y-61685771D01*
X120967738Y-61685771D02*
X121062976Y-61733390D01*
X121062976Y-61733390D02*
X121110595Y-61781009D01*
X121110595Y-61781009D02*
X121158214Y-61876247D01*
X121158214Y-61876247D02*
X121158214Y-62114342D01*
X121158214Y-62114342D02*
X121110595Y-62209580D01*
X121110595Y-62209580D02*
X121062976Y-62257200D01*
X121062976Y-62257200D02*
X120967738Y-62304819D01*
X120967738Y-62304819D02*
X120682024Y-62304819D01*
X120682024Y-62304819D02*
X120586786Y-62257200D01*
X120586786Y-62257200D02*
X120539167Y-62209580D01*
X132477833Y-76526819D02*
X132144500Y-76050628D01*
X131906405Y-76526819D02*
X131906405Y-75526819D01*
X131906405Y-75526819D02*
X132287357Y-75526819D01*
X132287357Y-75526819D02*
X132382595Y-75574438D01*
X132382595Y-75574438D02*
X132430214Y-75622057D01*
X132430214Y-75622057D02*
X132477833Y-75717295D01*
X132477833Y-75717295D02*
X132477833Y-75860152D01*
X132477833Y-75860152D02*
X132430214Y-75955390D01*
X132430214Y-75955390D02*
X132382595Y-76003009D01*
X132382595Y-76003009D02*
X132287357Y-76050628D01*
X132287357Y-76050628D02*
X131906405Y-76050628D01*
X133049262Y-75955390D02*
X132954024Y-75907771D01*
X132954024Y-75907771D02*
X132906405Y-75860152D01*
X132906405Y-75860152D02*
X132858786Y-75764914D01*
X132858786Y-75764914D02*
X132858786Y-75717295D01*
X132858786Y-75717295D02*
X132906405Y-75622057D01*
X132906405Y-75622057D02*
X132954024Y-75574438D01*
X132954024Y-75574438D02*
X133049262Y-75526819D01*
X133049262Y-75526819D02*
X133239738Y-75526819D01*
X133239738Y-75526819D02*
X133334976Y-75574438D01*
X133334976Y-75574438D02*
X133382595Y-75622057D01*
X133382595Y-75622057D02*
X133430214Y-75717295D01*
X133430214Y-75717295D02*
X133430214Y-75764914D01*
X133430214Y-75764914D02*
X133382595Y-75860152D01*
X133382595Y-75860152D02*
X133334976Y-75907771D01*
X133334976Y-75907771D02*
X133239738Y-75955390D01*
X133239738Y-75955390D02*
X133049262Y-75955390D01*
X133049262Y-75955390D02*
X132954024Y-76003009D01*
X132954024Y-76003009D02*
X132906405Y-76050628D01*
X132906405Y-76050628D02*
X132858786Y-76145866D01*
X132858786Y-76145866D02*
X132858786Y-76336342D01*
X132858786Y-76336342D02*
X132906405Y-76431580D01*
X132906405Y-76431580D02*
X132954024Y-76479200D01*
X132954024Y-76479200D02*
X133049262Y-76526819D01*
X133049262Y-76526819D02*
X133239738Y-76526819D01*
X133239738Y-76526819D02*
X133334976Y-76479200D01*
X133334976Y-76479200D02*
X133382595Y-76431580D01*
X133382595Y-76431580D02*
X133430214Y-76336342D01*
X133430214Y-76336342D02*
X133430214Y-76145866D01*
X133430214Y-76145866D02*
X133382595Y-76050628D01*
X133382595Y-76050628D02*
X133334976Y-76003009D01*
X133334976Y-76003009D02*
X133239738Y-75955390D01*
D11*
%TO.C,D1*%
X130621500Y-72842000D02*
X130621500Y-70922000D01*
X130621500Y-70922000D02*
X127936500Y-70922000D01*
X127936500Y-72842000D02*
X130621500Y-72842000D01*
%TO.C,D2*%
X130621500Y-75382000D02*
X130621500Y-73462000D01*
X130621500Y-73462000D02*
X127936500Y-73462000D01*
X127936500Y-75382000D02*
X130621500Y-75382000D01*
%TO.C,R5*%
X108992936Y-62765000D02*
X109447064Y-62765000D01*
X108992936Y-64235000D02*
X109447064Y-64235000D01*
%TO.C,R6*%
X125195000Y-80441436D02*
X125195000Y-80895564D01*
X123725000Y-80441436D02*
X123725000Y-80895564D01*
%TO.C,R7*%
X132871564Y-72490000D02*
X132417436Y-72490000D01*
X132871564Y-71020000D02*
X132417436Y-71020000D01*
%TO.C,D3*%
X130621500Y-77922000D02*
X130621500Y-76002000D01*
X130621500Y-76002000D02*
X127936500Y-76002000D01*
X127936500Y-77922000D02*
X130621500Y-77922000D01*
%TO.C,R2*%
X103150936Y-64796000D02*
X103605064Y-64796000D01*
X103150936Y-66266000D02*
X103605064Y-66266000D01*
%TO.C,R1*%
X126265000Y-80895564D02*
X126265000Y-80441436D01*
X127735000Y-80895564D02*
X127735000Y-80441436D01*
%TO.C,U1*%
X122440000Y-89900000D02*
X106200000Y-89900000D01*
X122440000Y-82280000D02*
X123050000Y-82280000D01*
X122440000Y-82280000D02*
X122440000Y-89900000D01*
X122440000Y-65660000D02*
X122440000Y-66280000D01*
X120320000Y-65660000D02*
X122440000Y-65660000D01*
X106200000Y-89900000D02*
X106200000Y-82280000D01*
X106200000Y-66280000D02*
X106200000Y-65660000D01*
X106200000Y-65660000D02*
X108320000Y-65660000D01*
%TO.C,C1*%
X128013000Y-62573000D02*
X128388000Y-62573000D01*
X128200500Y-62385500D02*
X128200500Y-62760500D01*
X128817437Y-62948000D02*
X129517437Y-62248000D01*
X128817437Y-65068000D02*
X129517437Y-65768000D01*
X129517437Y-62248000D02*
X132148000Y-62248000D01*
X129517437Y-65768000D02*
X132148000Y-65768000D01*
X132148000Y-62248000D02*
X132148000Y-62948000D01*
X132148000Y-65768000D02*
X132148000Y-65068000D01*
%TO.C,R4*%
X103605064Y-68171000D02*
X103150936Y-68171000D01*
X103605064Y-66701000D02*
X103150936Y-66701000D01*
%TO.C,J3*%
X134306000Y-73025000D02*
X134306000Y-78165000D01*
X134306000Y-73025000D02*
X136966000Y-73025000D01*
X134306000Y-78165000D02*
X136966000Y-78165000D01*
X135636000Y-70425000D02*
X136966000Y-70425000D01*
X136966000Y-70425000D02*
X136966000Y-71755000D01*
X136966000Y-73025000D02*
X136966000Y-78165000D01*
%TO.C,J2*%
X104565000Y-81196000D02*
X103505000Y-81196000D01*
X104565000Y-80136000D02*
X104565000Y-81196000D01*
X104565000Y-79136000D02*
X104565000Y-69076000D01*
X104565000Y-79136000D02*
X102445000Y-79136000D01*
X104565000Y-69076000D02*
X102445000Y-69076000D01*
X102445000Y-79136000D02*
X102445000Y-69076000D01*
%TO.C,R9*%
X132918564Y-77697000D02*
X132464436Y-77697000D01*
X132918564Y-76227000D02*
X132464436Y-76227000D01*
%TO.C,R3*%
X120145436Y-62765000D02*
X120599564Y-62765000D01*
X120145436Y-64235000D02*
X120599564Y-64235000D01*
%TO.C,R8*%
X132871564Y-75157000D02*
X132417436Y-75157000D01*
X132871564Y-73687000D02*
X132417436Y-73687000D01*
%TD*%
M02*
