%TF.GenerationSoftware,KiCad,Pcbnew,7.0.6-1.fc38*%
%TF.CreationDate,2023-08-14T18:07:14+02:00*%
%TF.ProjectId,ESP12F_INSPIRE_WIFI,45535031-3246-45f4-994e-53504952455f,rev?*%
%TF.SameCoordinates,Original*%
%TF.FileFunction,Paste,Top*%
%TF.FilePolarity,Positive*%
%FSLAX46Y46*%
G04 Gerber Fmt 4.6, Leading zero omitted, Abs format (unit mm)*
G04 Created by KiCad (PCBNEW 7.0.6-1.fc38) date 2023-08-14 18:07:14*
%MOMM*%
%LPD*%
G01*
G04 APERTURE LIST*
G04 Aperture macros list*
%AMRoundRect*
0 Rectangle with rounded corners*
0 $1 Rounding radius*
0 $2 $3 $4 $5 $6 $7 $8 $9 X,Y pos of 4 corners*
0 Add a 4 corners polygon primitive as box body*
4,1,4,$2,$3,$4,$5,$6,$7,$8,$9,$2,$3,0*
0 Add four circle primitives for the rounded corners*
1,1,$1+$1,$2,$3*
1,1,$1+$1,$4,$5*
1,1,$1+$1,$6,$7*
1,1,$1+$1,$8,$9*
0 Add four rect primitives between the rounded corners*
20,1,$1+$1,$2,$3,$4,$5,0*
20,1,$1+$1,$4,$5,$6,$7,0*
20,1,$1+$1,$6,$7,$8,$9,0*
20,1,$1+$1,$8,$9,$2,$3,0*%
G04 Aperture macros list end*
%ADD10RoundRect,0.243750X0.243750X0.456250X-0.243750X0.456250X-0.243750X-0.456250X0.243750X-0.456250X0*%
%ADD11RoundRect,0.250000X-0.262500X-0.450000X0.262500X-0.450000X0.262500X0.450000X-0.262500X0.450000X0*%
%ADD12RoundRect,0.250000X-0.450000X0.262500X-0.450000X-0.262500X0.450000X-0.262500X0.450000X0.262500X0*%
%ADD13RoundRect,0.250000X0.262500X0.450000X-0.262500X0.450000X-0.262500X-0.450000X0.262500X-0.450000X0*%
%ADD14RoundRect,0.250000X0.450000X-0.262500X0.450000X0.262500X-0.450000X0.262500X-0.450000X-0.262500X0*%
%ADD15R,2.500000X1.000000*%
%ADD16R,1.000000X1.800000*%
%ADD17RoundRect,0.250000X-0.850000X-0.550000X0.850000X-0.550000X0.850000X0.550000X-0.850000X0.550000X0*%
G04 APERTURE END LIST*
D10*
%TO.C,D1*%
X129874000Y-71882000D03*
X127999000Y-71882000D03*
%TD*%
%TO.C,D2*%
X129874000Y-74422000D03*
X127999000Y-74422000D03*
%TD*%
D11*
%TO.C,R5*%
X108307500Y-63500000D03*
X110132500Y-63500000D03*
%TD*%
D12*
%TO.C,R6*%
X124460000Y-79756000D03*
X124460000Y-81581000D03*
%TD*%
D13*
%TO.C,R7*%
X133557000Y-71755000D03*
X131732000Y-71755000D03*
%TD*%
D10*
%TO.C,D3*%
X129874000Y-76962000D03*
X127999000Y-76962000D03*
%TD*%
D11*
%TO.C,R2*%
X102465500Y-65531000D03*
X104290500Y-65531000D03*
%TD*%
D14*
%TO.C,R1*%
X127000000Y-81581000D03*
X127000000Y-79756000D03*
%TD*%
D15*
%TO.C,U1*%
X121920000Y-81280000D03*
X121920000Y-79280000D03*
X121920000Y-77280000D03*
X121920000Y-75280000D03*
X121920000Y-73280000D03*
X121920000Y-71280000D03*
X121920000Y-69280000D03*
X121920000Y-67280000D03*
D16*
X119320000Y-65780000D03*
X117320000Y-65780000D03*
X115320000Y-65780000D03*
X113320000Y-65780000D03*
X111320000Y-65780000D03*
X109320000Y-65780000D03*
D15*
X106720000Y-67280000D03*
X106720000Y-69280000D03*
X106720000Y-71280000D03*
X106720000Y-73280000D03*
X106720000Y-75280000D03*
X106720000Y-77280000D03*
X106720000Y-79280000D03*
X106720000Y-81280000D03*
%TD*%
D17*
%TO.C,C1*%
X128888000Y-64008000D03*
X131888000Y-64008000D03*
%TD*%
D13*
%TO.C,R4*%
X104290500Y-67436000D03*
X102465500Y-67436000D03*
%TD*%
%TO.C,R9*%
X133604000Y-76962000D03*
X131779000Y-76962000D03*
%TD*%
D11*
%TO.C,R3*%
X119460000Y-63500000D03*
X121285000Y-63500000D03*
%TD*%
D13*
%TO.C,R8*%
X133557000Y-74422000D03*
X131732000Y-74422000D03*
%TD*%
M02*
